<svg xmlns="http://www.w3.org/2000/svg" width="321" height="140" viewBox="0 0 321 140" fill="none"><path fill-rule="evenodd" clip-rule="evenodd" d="M133.002 8.84428C133.002 3.95971 136.967 0 141.859 0C146.751 0 150.716 3.95971 150.716 8.84428V13.2664C150.716 15.7087 148.734 17.6886 146.288 17.6886H137.43C134.984 17.6886 133.002 15.7087 133.002 13.2664V8.84428ZM124.144 26.5328C109.469 26.5328 97.5723 38.412 97.5723 53.0657C97.5723 67.7193 109.469 79.5985 124.144 79.5985H137.43H146.288C146.297 79.5985 146.305 79.5985 146.314 79.5984H150.716C155.608 79.5984 159.574 75.6386 159.574 70.7541C159.574 65.8697 155.608 61.9099 150.716 61.9099V48.6435C150.716 46.2012 152.699 44.2214 155.145 44.2214H164.002C166.448 44.2214 168.431 46.2012 168.431 48.6435V75.1763C168.431 77.6187 170.414 79.5985 172.86 79.5985H181.717C184.163 79.5985 186.146 77.6187 186.146 75.1763V48.6435C186.146 46.2012 188.129 44.2214 190.575 44.2214H199.432C201.878 44.2214 203.861 46.2012 203.861 48.6435V75.1763C203.861 77.6187 205.843 79.5985 208.289 79.5985H217.147C219.593 79.5985 221.575 77.6187 221.575 75.1763V44.2214C221.575 34.4522 213.644 26.5328 203.861 26.5328H186.146C182.919 26.5328 179.894 27.3943 177.289 28.8993C174.683 27.3943 171.658 26.5328 168.431 26.5328H150.716C147.49 26.5328 144.465 27.3943 141.859 28.8993C139.253 27.3943 136.228 26.5328 133.002 26.5328H124.144ZM124.144 44.2214C119.253 44.2214 115.287 48.1812 115.287 53.0657C115.287 57.9501 119.253 61.9099 124.144 61.9099H128.573C131.019 61.9099 133.002 59.9301 133.002 57.4878V48.6435C133.002 46.2012 131.019 44.2214 128.573 44.2214H124.144Z" fill="url(#paint0_linear)"></path><path d="M3.61559 139.549C5.7088 139.549 6.82681 138.48 7.6118 135.725L8.87265 131.853H19.7907L21.0276 135.725C21.8126 138.408 23.0258 139.549 25.119 139.549C27.3788 139.549 28.8535 138.218 28.8535 136.152C28.8535 135.321 28.6394 134.371 28.2111 133.041L21.0515 112.02C19.7431 108.149 17.9353 106.629 14.5099 106.629C11.0848 106.629 9.22937 108.172 7.94483 112.02L0.761298 133.041C0.214134 134.632 0 135.534 0 136.318C0 138.218 1.47476 139.549 3.61559 139.549ZM10.49 126.176L14.1771 113.897H14.5575L18.197 126.176H10.49ZM37.0362 139.525C39.5337 139.525 40.9372 138.005 40.9372 135.297V110.856C40.9372 108.172 39.51 106.629 36.9886 106.629C34.4671 106.629 33.0639 108.149 33.0639 110.856V135.297C33.0639 137.981 34.5147 139.525 37.0362 139.525ZM46.5034 135.558C46.5034 137.91 48.454 139.834 50.785 139.834C53.14 139.834 55.0667 137.91 55.0667 135.558C55.0667 133.207 53.14 131.283 50.785 131.283C48.454 131.283 46.5034 133.207 46.5034 135.558ZM90.2944 139.525C92.5796 139.525 93.886 138.028 93.886 135.44V111.688C93.886 108.457 92.1987 106.605 89.2492 106.605C86.7979 106.605 85.3941 107.697 83.968 110.761L77.4977 125.274H77.2364L70.7661 110.785C69.3379 107.721 67.9118 106.605 65.5093 106.605C62.6063 106.605 60.7991 108.529 60.7991 111.688V135.44C60.7991 138.1 61.9885 139.525 64.2493 139.525C66.5323 139.525 67.841 138.028 67.841 135.44V119.122H68.2218L73.7156 131.378C74.8095 133.729 75.7617 134.561 77.3781 134.561C78.9725 134.561 79.8759 133.777 80.9942 131.378L86.4902 119.122H86.8688V135.44C86.8688 138.1 88.0579 139.525 90.2944 139.525ZM101.665 139.549C103.758 139.549 104.876 138.48 105.662 135.725L106.922 131.853H117.841L119.076 135.725C119.862 138.408 121.076 139.549 123.168 139.549C125.427 139.549 126.902 138.218 126.902 136.152C126.902 135.321 126.689 134.371 126.26 133.041L119.101 112.02C117.792 108.149 115.985 106.629 112.56 106.629C109.134 106.629 107.278 108.172 105.994 112.02L98.8107 133.041C98.2638 134.632 98.049 135.534 98.049 136.318C98.049 138.218 99.5238 139.549 101.665 139.549ZM108.541 126.176L112.227 113.897H112.606L116.246 126.176H108.541ZM138.893 122.21V113.089H144.005C147.145 113.089 149.025 114.728 149.025 117.626C149.025 120.571 147.121 122.21 144.005 122.21H138.893ZM138.893 135.297V127.768H143.554L147.836 136.104C149.121 138.622 150.214 139.477 152.283 139.477C154.568 139.477 156.184 137.957 156.184 135.796C156.184 134.964 155.97 134.062 155.542 133.326L151.308 125.844C154.829 124.205 156.826 120.998 156.826 116.913C156.826 110.69 152.356 106.866 145.077 106.866H136.49C132.754 106.866 131.018 108.695 131.018 112.543V135.297C131.018 137.981 132.469 139.525 135.015 139.525C137.511 139.525 138.893 138.005 138.893 135.297ZM184.468 139.477C186.702 139.477 188.25 137.957 188.25 135.772C188.25 134.679 187.891 133.872 186.631 132.186L178.496 121.212L186.133 112.97C187.178 111.83 187.559 111.094 187.559 110.12C187.559 108.196 186.06 106.676 184.109 106.676C182.993 106.676 182.088 107.175 181.018 108.339L170.099 120.191H169.672V110.856C169.672 108.172 168.244 106.629 165.724 106.629C163.202 106.629 161.798 108.149 161.798 110.856V135.297C161.798 137.957 163.272 139.525 165.819 139.525C168.292 139.525 169.672 138.005 169.672 135.297V129.216L172.668 126.176L180.566 137.031C181.802 138.741 182.993 139.477 184.468 139.477ZM192.816 134.798C192.816 137.72 194.41 139.287 197.384 139.287H211.988C213.914 139.287 215.199 138.076 215.199 136.176C215.199 134.299 213.914 133.064 212.012 133.064H200.595V125.844H211.536C213.226 125.844 214.368 124.727 214.368 122.994C214.368 121.283 213.226 120.096 211.536 120.096H200.595V113.089H212.107C213.914 113.089 215.199 111.83 215.199 110.001C215.199 108.149 213.914 106.866 212.107 106.866H197.384C194.41 106.866 192.816 108.457 192.816 111.355V134.798ZM229.948 139.525C232.397 139.525 233.897 137.957 233.897 135.392V113.303H240.106C241.912 113.303 243.246 111.925 243.246 110.097C243.246 108.244 241.912 106.866 240.106 106.866H219.862C218.055 106.866 216.698 108.244 216.698 110.097C216.698 111.925 218.055 113.303 219.862 113.303H226.022V135.392C226.022 137.957 227.497 139.525 229.948 139.525ZM250.168 139.525C252.663 139.525 254.067 138.005 254.067 135.297V110.856C254.067 108.172 252.641 106.629 250.119 106.629C247.597 106.629 246.195 108.149 246.195 110.856V135.297C246.195 137.981 247.645 139.525 250.168 139.525ZM267.674 135.44V119.906H267.982L279.02 136.413C280.637 138.788 281.709 139.525 283.469 139.525C285.872 139.525 287.156 138.005 287.156 135.155V110.714C287.156 108.149 285.776 106.629 283.469 106.629C281.184 106.629 279.853 108.149 279.853 110.714V126.058H279.543L268.602 109.764C267.032 107.484 266.033 106.629 264.295 106.629C261.702 106.629 260.396 108.196 260.396 111.237V135.44C260.396 137.981 261.751 139.525 264.058 139.525C266.365 139.525 267.674 138.005 267.674 135.44ZM292.293 125.203C292.293 134.442 297.596 140 306.613 140C314.629 140 320.028 135.155 320.028 128.005V126.034C320.028 123.017 318.648 121.663 315.508 121.663H309.68C307.588 121.663 306.469 122.637 306.469 124.419C306.469 126.224 307.612 127.221 309.68 127.221H312.608V128.599C312.608 131.568 310.322 133.563 306.921 133.563C302.546 133.563 300.143 130.594 300.143 125.179V121.26C300.143 115.773 302.497 112.899 306.994 112.899C310.061 112.899 311.846 114.752 313.772 116.676C314.463 117.365 315.176 117.673 316.104 117.673C317.982 117.673 319.29 116.391 319.29 114.514C319.29 112.638 317.889 110.595 315.747 109.051C313.367 107.27 310.11 106.272 306.423 106.272C297.67 106.272 292.293 111.902 292.293 120.88V125.203Z" fill="url(#paint1_linear)"></path><defs><linearGradient id="paint0_linear" x1="93.4819" y1="39.7992" x2="225.235" y2="39.7992" gradientUnits="userSpaceOnUse"><stop stop-color="#003665"></stop><stop offset="1" stop-color="#00A3B6"></stop></linearGradient><linearGradient id="paint1_linear" x1="-10.5565" y1="123.136" x2="329.473" y2="123.136" gradientUnits="userSpaceOnUse"><stop stop-color="#003665"></stop><stop offset="1" stop-color="#00A3B6"></stop></linearGradient></defs></svg>