<svg xmlns="http://www.w3.org/2000/svg" width="102" height="31" viewBox="0 0 102 31" fill="none"><path fill-rule="evenodd" clip-rule="evenodd" d="M63.2757 24.2437C57.3705 28.6516 48.781 31.0001 41.3726 31.0001C30.9936 31.0001 21.6884 27.1341 14.6021 20.7029C14.0652 20.197 14.5305 19.5106 15.2105 19.908C22.8336 24.3882 32.2463 27.0619 41.981 27.0619C48.5305 27.0619 55.7599 25.6889 62.4168 22.8346C63.4189 22.4371 64.242 23.5211 63.2757 24.2437Z" fill="#FF9900"></path><path fill-rule="evenodd" clip-rule="evenodd" d="M65.7452 21.3893C64.9937 20.4138 60.7347 20.9196 58.8379 21.1726C58.2652 21.2448 58.1579 20.739 58.6947 20.3777C62.0947 17.9569 67.6421 18.6796 68.2863 19.4744C68.9305 20.2693 68.1073 25.9057 64.9221 28.5793C64.421 28.9768 63.9558 28.76 64.1705 28.218C64.8863 26.4115 66.4968 22.401 65.7452 21.3893Z" fill="#FF9900"></path><path fill-rule="evenodd" clip-rule="evenodd" d="M58.9453 3.39627V1.04778C58.9453 0.686478 59.1958 0.469693 59.5179 0.469693L69.8968 0.469693C70.2189 0.469693 70.5053 0.722609 70.5053 1.04778V3.03496C70.5053 3.36014 70.2189 3.79371 69.7179 4.51632L64.3495 12.2482C66.3537 12.2121 68.4653 12.5012 70.2547 13.5128C70.6484 13.7296 70.7558 14.0909 70.7916 14.4161V16.9091C70.7916 17.2704 70.4337 17.6678 70.04 17.451C66.8547 15.7529 62.5958 15.5723 59.0884 17.4872C58.7305 17.6678 58.3368 17.3065 58.3368 16.9452V14.5606C58.3368 14.1993 58.3368 13.5489 58.7305 12.9709L64.9579 3.97436L59.5537 3.97436C59.2316 3.97436 58.9453 3.72144 58.9453 3.39627ZM21.1158 17.9569H17.9663C17.68 17.9207 17.4295 17.704 17.3937 17.4149L17.3937 1.08392C17.3937 0.758741 17.68 0.505825 18.0021 0.505825L20.9368 0.505825C21.2589 0.505825 21.4737 0.758739 21.5095 1.04778V3.17948H21.5811C22.3326 1.12004 23.8 0.14452 25.7326 0.14452C27.7011 0.14452 28.9537 1.12004 29.8126 3.17948C30.5642 1.12004 32.3179 0.14452 34.1789 0.14452C35.5032 0.14452 36.9347 0.686478 37.8295 1.95105C38.8316 3.32401 38.6168 5.31119 38.6168 7.08159V17.4149C38.6168 17.7401 38.3305 17.993 38.0084 17.993H34.8947C34.5726 17.9569 34.3221 17.704 34.3221 17.4149V8.74358C34.3221 8.0571 34.3937 6.32284 34.2505 5.67249C34 4.58857 33.32 4.2634 32.3895 4.2634C31.6379 4.2634 30.8147 4.76923 30.4926 5.60023C30.1705 6.43124 30.2063 7.80419 30.2063 8.74358L30.2063 17.4149C30.2063 17.7401 29.92 17.993 29.5979 17.993H26.4484C26.1263 17.9569 25.8758 17.704 25.8758 17.4149L25.8758 8.74358C25.8758 6.93706 26.1621 4.22727 23.9432 4.22727C21.6884 4.22727 21.76 6.82866 21.76 8.74358L21.76 17.4149C21.7242 17.704 21.4737 17.9569 21.1158 17.9569ZM79.4526 0.14452C84.1411 0.14452 86.6821 4.19114 86.6821 9.35781C86.6821 14.3438 83.8905 18.3182 79.4526 18.3182C74.8716 18.3182 72.3663 14.2716 72.3663 9.21329C72.3305 4.11888 74.8716 0.14452 79.4526 0.14452ZM79.4526 3.50466C77.1263 3.50466 76.9832 6.72028 76.9832 8.70746C76.9832 10.6946 76.9474 14.958 79.4168 14.958C81.8505 14.958 81.9937 11.5256 81.9937 9.43007C81.9937 8.05711 81.9221 6.39511 81.5284 5.09441C81.1705 3.93823 80.4547 3.50466 79.4526 3.50466ZM92.7305 17.9569H89.5811C89.2589 17.9207 89.0084 17.6678 89.0084 17.3788V1.01165C89.0442 0.722606 89.2947 0.469693 89.6168 0.469693L92.5516 0.469693C92.8379 0.469693 93.0526 0.686482 93.1242 0.939396V3.4324H93.1958C94.0905 1.19231 95.3074 0.14452 97.4905 0.14452C98.8863 0.14452 100.282 0.650343 101.177 2.05943C102 3.36013 102 5.5641 102 7.15384V17.451C101.964 17.7401 101.714 17.9569 101.392 17.9569H98.2421C97.9558 17.9207 97.7053 17.704 97.6695 17.451V8.56293C97.6695 6.7564 97.8842 4.15501 95.701 4.15501C94.9495 4.15501 94.2337 4.66084 93.8758 5.45571C93.4463 6.46737 93.3747 7.44288 93.3747 8.56293V17.3788C93.339 17.704 93.0526 17.9569 92.7305 17.9569ZM50.6779 10.1527C50.6779 11.3811 50.7137 12.4289 50.1053 13.549C49.6042 14.4522 48.8168 14.9942 47.9221 14.9942C46.7053 14.9942 45.9895 14.0548 45.9895 12.6818C45.9895 9.97203 48.3874 9.46619 50.6779 9.46619V10.1527ZM53.8632 17.9207C53.6484 18.1014 53.3621 18.1375 53.1116 17.993C52.0737 17.1259 51.8589 16.6923 51.2863 15.8613C49.5684 17.6317 48.3158 18.1737 46.0968 18.1737C43.4484 18.1737 41.3726 16.5117 41.3726 13.2238C41.3726 10.6224 42.7684 8.88811 44.7368 8.02097C46.4547 7.26223 48.8526 7.11772 50.6779 6.90093V6.5035C50.6779 5.74476 50.7495 4.84149 50.2842 4.19114C49.8905 3.61306 49.1747 3.36014 48.5305 3.36014C47.3137 3.36014 46.24 3.97436 45.9895 5.27506C45.9179 5.5641 45.7389 5.85314 45.4526 5.85314L42.4105 5.52797C42.16 5.45571 41.8737 5.27506 41.9453 4.87762C42.6611 1.12005 45.9895 0 48.9958 0C50.5347 0 52.539 0.397434 53.7558 1.58974C55.2947 3.03496 55.1516 4.98602 55.1516 7.08159V12.0315C55.1516 13.5128 55.76 14.1632 56.3326 14.9942C56.5474 15.2832 56.5832 15.6445 56.3326 15.8252C55.6526 16.3671 54.5074 17.3788 53.8632 17.9207ZM9.34105 10.1527C9.34105 11.3811 9.37684 12.4289 8.76842 13.549C8.26737 14.4522 7.48 14.9942 6.58526 14.9942C5.36842 14.9942 4.65263 14.0548 4.65263 12.6818C4.65263 9.97203 7.05053 9.46619 9.34105 9.46619V10.1527ZM12.4905 17.9207C12.2758 18.1014 11.9895 18.1375 11.7389 17.993C10.7011 17.1259 10.4863 16.6923 9.91368 15.8613C8.19579 17.6317 6.94316 18.1737 4.72421 18.1737C2.07579 18.1737 0 16.5117 0 13.2238C0 10.6224 1.39579 8.88811 3.36421 8.02097C5.0821 7.26223 7.48 7.11772 9.30526 6.90093V6.5035C9.30526 5.74476 9.37684 4.84149 8.91158 4.19114C8.51789 3.61306 7.80211 3.36014 7.1579 3.36014C5.94105 3.36014 4.86737 3.97436 4.61684 5.27506C4.54526 5.5641 4.36631 5.85314 4.08 5.85314L1.03789 5.52797C0.787366 5.45571 0.501055 5.27506 0.572634 4.87762C1.28842 1.12005 4.61684 0 7.62316 0C9.16211 0 11.1663 0.397434 12.3832 1.58974C13.9221 3.03496 13.7789 4.98602 13.7789 7.08159L13.7789 12.0315C13.7789 13.5128 14.3874 14.1632 14.96 14.9942C15.1747 15.2832 15.2105 15.6445 14.96 15.8252C14.28 16.3671 13.1347 17.3788 12.4905 17.9207Z" fill="#333333"></path></svg>