<svg xmlns="http://www.w3.org/2000/svg" width="98" height="34" viewBox="0 0 98 34" fill="none"><g clip-path="url(#clip0)"><path d="M22.7944 18.0664C22.754 13.7641 26.2599 11.697 26.4176 11.5986C24.4443 8.67433 21.3791 8.2724 20.2873 8.22728C17.6791 7.95659 15.1962 9.78579 13.8699 9.78579C12.5435 9.78579 10.5015 8.26419 8.33806 8.30931C5.49126 8.35032 2.86688 9.98675 1.399 12.5706C-1.55293 17.7629 0.646866 25.4734 3.53005 29.6936C4.94132 31.7566 6.61542 34.082 8.8233 33.9959C10.9503 33.9098 11.751 32.6015 14.3147 32.6015C16.8784 32.6015 17.6023 33.9959 19.8465 33.9549C22.1312 33.9098 23.5789 31.8468 24.978 29.7757C26.5874 27.3764 27.2547 25.0591 27.2951 24.9361C27.2425 24.9156 22.8429 23.2053 22.7944 18.0664Z" fill="#333333"></path><path d="M18.577 5.43016C19.7497 3.99059 20.5383 1.99324 20.3239 0C18.6377 0.0697226 16.5956 1.14017 15.3865 2.57973C14.3028 3.85115 13.3525 5.8854 13.6113 7.83764C15.4836 7.98528 17.4084 6.86562 18.577 5.43016ZM37.5826 22.2948L35.6416 28.2622H33.1466L39.4993 9.29771H42.4108L48.7878 28.2622H46.2079L44.2103 22.2948H37.5826ZM43.7129 20.3795L41.8851 14.9206C41.4686 13.682 41.1937 12.5583 40.9146 11.4591H40.8621C40.5831 12.5829 40.2798 13.7353 39.9199 14.8919L38.0921 20.3754L43.7129 20.3795ZM50.6803 19.0876C50.6803 17.3445 50.6277 15.9337 50.5671 14.6417H52.7588L52.872 16.9795H52.9246C53.9234 15.3185 55.5045 14.3341 57.6962 14.3341C60.9433 14.3341 63.3817 17.1189 63.3817 21.2572C63.3817 26.1542 60.4419 28.5698 57.2797 28.5698C55.5045 28.5698 53.9517 27.7824 53.147 26.4331H53.0944V33.8318H50.6803V19.0876ZM53.0903 22.7173C53.0903 23.0864 53.1429 23.4186 53.2036 23.7303C53.6484 25.4446 55.1163 26.6299 56.8672 26.6299C59.4471 26.6299 60.9473 24.4931 60.9473 21.3679C60.9473 18.6364 59.532 16.3069 56.9521 16.3069C55.2901 16.3069 53.7373 17.5168 53.2602 19.3747C53.1753 19.6823 53.0944 20.0514 53.0944 20.3877L53.0903 22.7173ZM65.905 19.0876C65.905 17.3445 65.8524 15.9337 65.7917 14.6417H67.9834L68.0967 16.9795H68.1492C69.148 15.3185 70.7291 14.3341 72.9208 14.3341C76.168 14.3341 78.6063 17.1189 78.6063 21.2572C78.6063 26.1542 75.6665 28.5698 72.5043 28.5698C70.7291 28.5698 69.1763 27.7824 68.3716 26.4331H68.3191V33.8318H65.905V19.0876ZM68.3191 22.7173C68.3191 23.0864 68.3716 23.4186 68.4323 23.7303C68.8771 25.4446 70.345 26.6299 72.0959 26.6299C74.6758 26.6299 76.1761 24.4931 76.1761 21.3679C76.1761 18.6364 74.7607 16.3069 72.1808 16.3069C70.5189 16.3069 68.9661 17.5168 68.4889 19.3747C68.404 19.6823 68.3231 20.0514 68.3231 20.3877L68.3191 22.7173ZM81.1337 8.28468H83.5761V28.2581H81.1337V8.28468ZM88.4852 21.9011C88.5378 25.2478 90.6486 26.6299 93.087 26.6299C94.8339 26.6299 95.8893 26.3223 96.8032 25.9286L97.2197 27.7004C96.3624 28.0941 94.8905 28.5452 92.7554 28.5452C88.6227 28.5452 86.152 25.7891 86.152 21.6796C86.152 17.5701 88.5378 14.3341 92.4481 14.3341C96.8315 14.3341 97.9961 18.2427 97.9961 20.7486C97.9961 21.2572 97.9435 21.6468 97.9111 21.9011H88.4852ZM95.6426 20.1293C95.6709 18.5544 95.0037 16.1059 92.258 16.1059C89.7873 16.1059 88.7076 18.415 88.5135 20.1293H95.6426Z" fill="#333333"></path></g><defs><clipPath id="clip0"><rect width="98" height="34" fill="white"></rect></clipPath></defs></svg>