<svg xmlns="http://www.w3.org/2000/svg" width="287" height="236" viewBox="0 0 287 236" fill="none"><path d="M47.7251 85.3488L40.5011 81.6994L47.4258 69.8369L47.7251 85.3488Z" fill="#B1B4C4"></path><path fill-rule="evenodd" clip-rule="evenodd" d="M131.953 99.8542C109.535 99.8542 91.3609 89.3624 91.3609 76.4202C91.3609 76.388 91.361 76.3559 91.3612 76.3238V66.3781L94.2349 67.7425C100.209 59.0961 114.845 52.9861 131.953 52.9861C149.437 52.9861 164.339 59.3674 170.053 68.3157L172.538 66.1037V75.947C172.543 76.1043 172.546 76.2621 172.546 76.4202C172.546 89.3624 154.372 99.8542 131.953 99.8542Z" fill="#9DECE6"></path><path d="M131.953 89.8123C109.535 89.8123 91.3609 79.3205 91.3609 66.3782C91.3609 53.4359 109.535 42.9441 131.953 42.9441C154.372 42.9441 172.546 53.4359 172.546 66.3782C172.546 79.3205 154.372 89.8123 131.953 89.8123Z" fill="#D0FFFB"></path><path d="M102.941 67.1098C103.357 71.0501 106.167 74.9406 111.404 77.9665C122.751 84.517 141.156 84.517 152.503 77.9665C157.732 74.9406 160.55 71.0501 160.949 67.1098C161.44 62.4878 158.622 57.7661 152.503 54.2414C141.156 47.6825 122.751 47.6825 111.404 54.2414C105.285 57.7661 102.459 62.4878 102.941 67.1098Z" fill="#CC8B09"></path><path d="M102.941 67.1098C103.357 71.0501 106.166 74.9406 111.404 77.9665C122.751 84.517 141.156 84.517 152.503 77.9665C157.732 74.9406 160.55 71.0501 160.949 67.1098C160.55 63.1612 157.732 59.2707 152.503 56.2448C141.156 49.686 122.751 49.686 111.404 56.2448C106.166 59.2707 103.357 63.1612 102.941 67.1098Z" fill="#E8A30A"></path><path d="M132.377 61.615C132.734 61.6141 133.089 61.6419 133.441 61.6981C133.923 61.7729 134.455 61.8644 135.046 61.9891C135.636 62.1138 136.259 62.2717 136.9 62.4629C137.524 62.6479 138.132 62.8814 138.72 63.1612L134.048 65.8546L133.217 65.5553C132.028 65.1646 130.906 64.8238 129.892 64.5494C128.902 64.2854 127.888 64.1184 126.866 64.0506C125.936 63.9916 125.002 64.0559 124.089 64.2419C123.153 64.4408 122.255 64.7888 121.429 65.2726C120.619 65.6825 119.927 66.2918 119.417 67.0433C119.249 67.3115 119.136 67.611 119.086 67.9239C119.036 68.2367 119.05 68.5564 119.126 68.8638C119.323 69.551 119.699 70.1736 120.215 70.6677C120.859 71.3045 121.576 71.8626 122.352 72.3303L119.384 74.0428L120.997 74.9821L123.989 73.253C125.418 73.9479 126.91 74.5046 128.445 74.9156C130.054 75.3622 131.697 75.6709 133.358 75.8383L134.888 73.0702C134.451 73.0596 134.016 73.0263 133.583 72.9704C132.923 72.8932 132.269 72.7822 131.621 72.6379C130.906 72.4799 130.141 72.2887 129.343 72.056C128.564 71.8365 127.802 71.5587 127.065 71.2247L131.704 68.5396L132.311 68.7558L132.943 68.947C134.115 69.3294 135.187 69.6286 136.16 69.8531C137.058 70.0617 137.973 70.1841 138.895 70.2188C139.705 70.2483 140.515 70.1729 141.305 69.9944C142.093 69.8005 142.849 69.4954 143.55 69.0883C144.315 68.6869 144.98 68.1187 145.495 67.4257C145.867 66.9031 146.051 66.2705 146.019 65.6301C145.95 64.9618 145.681 64.33 145.246 63.8179C144.711 63.1487 144.074 62.5679 143.359 62.0971L146.11 60.5094L144.489 59.5783L141.771 61.1495C140.491 60.5183 139.148 60.0251 137.764 59.6781C136.447 59.3435 135.108 59.1018 133.757 58.9548L132.377 61.615ZM140.308 66.5113C139.695 66.8603 138.99 67.0113 138.288 66.9435C137.343 66.832 136.413 66.6231 135.511 66.3201L139.876 63.8262C141.48 64.8487 141.621 65.7465 140.308 66.5113ZM124.987 67.7832C125.655 67.4213 126.421 67.2843 127.173 67.3925C128.191 67.5366 129.195 67.7674 130.174 68.0824L125.835 70.5763C124.023 69.4374 123.723 68.5147 124.987 67.7832Z" fill="#CC8B09"></path><path d="M134.888 73.0699C134.888 72.9619 134.888 71.4988 134.888 71.4988L133.109 72.646L133.882 73.8347L134.888 73.0699Z" fill="#CC8B09"></path><path d="M119.342 74.0592V72.488L123.208 72.779L120.988 74.2919L119.342 74.0592Z" fill="#CC8B09"></path><path d="M119.018 68.2819V66.6941L121.911 67.7415L119.018 68.2819Z" fill="#CC8B09"></path><path d="M131.006 68.1986L130.05 67.2759L126.658 69.6201L126.866 70.3101C126.866 70.3101 129.401 69.246 129.485 69.1878C129.568 69.1296 131.006 68.1986 131.006 68.1986Z" fill="#CC8B09"></path><path d="M139.867 63.2441L135.362 65.7879L134.447 65.1229C134.447 65.1229 135.012 64.4745 135.054 64.4163C135.454 63.9534 135.925 63.5577 136.451 63.2441C136.791 63.1776 138.944 62.2217 138.944 62.2217L139.867 63.2441Z" fill="#CC8B09"></path><path d="M132.377 61.6149V60.0437L134.447 59.3704L134.888 60.6007L134.78 61.166L132.377 61.6149Z" fill="#CC8B09"></path><path d="M146.11 60.4759V58.9048L143.716 59.1625L144.489 60.6921L146.11 60.4759Z" fill="#CC8B09"></path><path d="M146.027 65.8213V64.1587H143.284L143.957 65.6218L145.138 66.9601L146.027 65.8213Z" fill="#CC8B09"></path><path d="M132.377 60.0437C132.734 60.0428 133.089 60.0706 133.441 60.1268C133.923 60.1933 134.455 60.2931 135.046 60.4177C135.636 60.5424 136.259 60.7004 136.9 60.8916C137.522 61.0775 138.131 61.3081 138.72 61.5816L134.048 64.2749L133.217 63.984C132.028 63.585 130.906 63.2524 129.892 62.9781C128.902 62.7141 127.888 62.5471 126.866 62.4794C125.936 62.4217 125.003 62.4832 124.089 62.6622C123.153 62.8642 122.254 63.215 121.429 63.7014C120.619 64.1112 119.927 64.7205 119.417 65.472C119.249 65.7402 119.136 66.0397 119.086 66.3526C119.036 66.6654 119.05 66.9851 119.126 67.2925C119.323 67.9772 119.699 68.597 120.215 69.0881C120.857 69.7271 121.575 70.2855 122.352 70.7507L119.367 72.4881L120.98 73.4191L123.973 71.69C125.4 72.3886 126.893 72.9454 128.429 73.3526C130.037 73.7965 131.681 74.1024 133.342 74.267L134.904 71.4656C134.468 71.455 134.032 71.4217 133.599 71.3659C133.009 71.2993 132.361 71.1829 131.637 71.0333C130.914 70.8837 130.158 70.6759 129.36 70.4431C128.581 70.2237 127.819 69.9458 127.082 69.6118L131.721 66.9351L132.327 67.1429L132.959 67.3424C134.129 67.7248 135.201 68.0241 136.176 68.2402C137.074 68.4529 137.99 68.5754 138.911 68.606C139.721 68.6355 140.532 68.56 141.322 68.3815C142.112 68.195 142.869 67.8894 143.567 67.4754C144.332 67.0743 144.996 66.506 145.512 65.8128C145.883 65.2902 146.068 64.6576 146.036 64.0172C145.965 63.3468 145.696 62.7127 145.262 62.1967C144.725 61.5323 144.089 60.9547 143.375 60.4842L146.11 58.9381L144.489 57.9987L141.771 59.5781C140.491 58.947 139.148 58.4538 137.764 58.1068C136.447 57.7722 135.108 57.5305 133.757 57.3835L132.377 60.0437ZM140.308 64.9316C139.698 65.2894 138.991 65.4438 138.288 65.3722C137.343 65.2607 136.413 65.0518 135.511 64.7488L139.876 62.2549C141.477 63.2802 141.621 64.1724 140.308 64.9316ZM124.987 66.2118C125.653 65.8459 126.421 65.7087 127.173 65.8211C128.206 65.9535 129.224 66.1788 130.216 66.4945L125.876 68.9883C124.02 67.8633 123.723 66.9378 124.987 66.2118Z" fill="#F9CA06"></path><path fill-rule="evenodd" clip-rule="evenodd" d="M131.953 86.7119C109.535 86.7119 91.3609 76.2201 91.3609 63.2778C91.3609 63.2457 91.361 63.2136 91.3612 63.1815V53.2357L94.2369 54.5973C100.212 45.9524 114.847 39.8438 131.953 39.8438C149.434 39.8438 164.334 46.2226 170.049 55.1682L172.538 52.9532V62.8047C172.543 62.962 172.546 63.1197 172.546 63.2778C172.546 76.2201 154.372 86.7119 131.953 86.7119Z" fill="#9DECE6"></path><path d="M131.953 76.6699C109.535 76.6699 91.3609 66.1781 91.3609 53.2358C91.3609 40.2936 109.535 29.8018 131.953 29.8018C154.372 29.8018 172.546 40.2936 172.546 53.2358C172.546 66.1781 154.372 76.6699 131.953 76.6699Z" fill="#D0FFFB"></path><path d="M102.941 53.9509C103.357 57.8995 106.167 61.7816 111.404 64.8075C122.751 71.3581 141.156 71.3581 152.503 64.8075C157.732 61.7816 160.55 57.8995 160.949 53.9509C161.44 49.3289 158.622 44.6072 152.503 41.0825C141.156 34.5236 122.751 34.5236 111.404 41.0825C105.285 44.6155 102.459 49.3372 102.941 53.9509Z" fill="#CC8B09"></path><path d="M102.941 53.9506C103.357 57.8992 106.166 61.7814 111.404 64.8073C122.751 71.3578 141.156 71.3578 152.503 64.8073C157.732 61.7814 160.55 57.8992 160.949 53.9506C160.55 50.002 157.732 46.1199 152.503 43.094C141.156 36.5351 122.751 36.5351 111.404 43.094C106.166 46.1282 103.357 50.0103 102.941 53.9506Z" fill="#E8A30A"></path><path d="M132.377 48.4642C132.734 48.4669 133.09 48.4975 133.441 48.5556C133.923 48.6221 134.455 48.7136 135.046 48.8383C135.636 48.963 136.259 49.1292 136.9 49.3204C137.523 49.5026 138.132 49.7333 138.72 50.0104L134.048 52.7038L133.217 52.4128C132.028 52.0138 130.906 51.6813 129.892 51.407C128.902 51.1429 127.888 50.9759 126.866 50.9082C125.936 50.8464 125.003 50.9079 124.089 51.0911C123.153 51.293 122.254 51.6438 121.429 52.1302C120.62 52.5374 119.927 53.1438 119.417 53.8925C119.249 54.1624 119.136 54.4633 119.086 54.7774C119.036 55.0916 119.05 55.4126 119.126 55.7214C119.323 56.4061 119.699 57.0259 120.215 57.5169C120.859 58.1536 121.576 58.7117 122.352 59.1795L119.384 60.892L120.997 61.823L123.989 60.0939C125.418 60.7888 126.91 61.3455 128.445 61.7565C130.055 62.1964 131.698 62.5022 133.358 62.6709L134.921 59.8695C134.485 59.8589 134.049 59.8256 133.616 59.7697C133.026 59.6949 132.377 59.5868 131.654 59.4289C130.931 59.271 130.174 59.0798 129.376 58.847C128.597 58.6276 127.836 58.3497 127.098 58.0157L131.737 55.339L132.344 55.5468L132.976 55.738C134.032 56.0948 135.106 56.3973 136.193 56.6441C137.091 56.8527 138.007 56.9752 138.928 57.0098C139.738 57.0393 140.548 56.9639 141.339 56.7854C142.127 56.5952 142.884 56.2899 143.583 55.8793C144.348 55.4782 145.013 54.9099 145.528 54.2167C145.899 53.6904 146.083 53.0556 146.052 52.4128C145.983 51.7445 145.714 51.1127 145.279 50.6006C144.744 49.9341 144.107 49.3562 143.392 48.8881L146.11 47.3004L144.489 46.361L141.771 47.9322C140.491 47.301 139.148 46.8078 137.764 46.4608C136.446 46.1302 135.108 45.8885 133.757 45.7375L132.377 48.4642ZM140.308 53.3605C139.697 53.7154 138.99 53.8668 138.288 53.7928C137.342 53.6894 136.411 53.4802 135.511 53.1693L139.876 50.6754C141.477 51.7062 141.621 52.6012 140.308 53.3605ZM124.987 54.6407C125.652 54.2712 126.421 54.1337 127.173 54.25C128.205 54.383 129.223 54.6055 130.216 54.915L125.876 57.4089C124.02 56.2894 123.723 55.3667 124.987 54.6407Z" fill="#CC8B09"></path><path d="M134.888 59.9193C134.888 59.8029 134.888 58.3398 134.888 58.3398L133.109 59.487L133.882 60.6841L134.888 59.9193Z" fill="#CC8B09"></path><path d="M119.342 60.9171V59.3376L123.208 59.6369L120.988 61.1498L119.342 60.9171Z" fill="#CC8B09"></path><path d="M119.018 55.1395V53.5435L121.911 54.5909L119.018 55.1395Z" fill="#CC8B09"></path><path d="M131.006 55.0563L130.05 54.1335L126.658 56.4778L126.866 57.1678C126.866 57.1678 129.401 56.0954 129.485 56.0372C129.568 55.979 131.006 55.0563 131.006 55.0563Z" fill="#CC8B09"></path><path d="M139.867 50.0935L135.362 52.6456L134.447 51.9806C134.447 51.9806 135.012 51.3322 135.054 51.2656C135.456 50.8051 135.927 50.4096 136.451 50.0935C136.791 50.027 138.944 49.071 138.944 49.071L139.867 50.0935Z" fill="#CC8B09"></path><path d="M132.377 48.4725V46.8931L134.447 46.2197L134.888 47.4584L134.78 48.0236L132.377 48.4725Z" fill="#CC8B09"></path><path d="M146.11 47.3336V45.7542L143.716 46.0118L144.489 47.5414L146.11 47.3336Z" fill="#CC8B09"></path><path d="M146.027 52.6706V51.0081H143.284L143.957 52.4711L145.138 53.8095L146.027 52.6706Z" fill="#CC8B09"></path><path d="M132.377 46.8931C132.734 46.8923 133.089 46.9201 133.441 46.9762C133.923 47.051 134.455 47.1425 135.046 47.2672C135.636 47.3919 136.259 47.5498 136.899 47.741C137.524 47.9261 138.132 48.1595 138.72 48.4393L134.048 51.1327L133.217 50.8334C132.028 50.4427 130.906 50.1019 129.892 49.8275C128.902 49.5635 127.888 49.3965 126.866 49.3288C125.936 49.2697 125.002 49.334 124.089 49.52C123.153 49.7189 122.255 50.0669 121.429 50.5508C120.605 50.9442 119.895 51.5424 119.367 52.2882C119.199 52.5564 119.086 52.8559 119.036 53.1687C118.986 53.4816 119 53.8013 119.076 54.1087C119.277 54.8115 119.665 55.4465 120.199 55.9458C120.84 56.585 121.558 57.1434 122.335 57.6084L119.367 59.3209L120.98 60.2602L123.973 58.5312C125.402 59.226 126.894 59.7828 128.429 60.1937C130.037 60.6403 131.681 60.949 133.342 61.1165L134.904 58.3067C134.468 58.2961 134.032 58.2628 133.599 58.207C132.94 58.1298 132.285 58.0188 131.637 57.8744C130.922 57.7165 130.158 57.5253 129.36 57.2925C128.581 57.0731 127.819 56.7952 127.082 56.4613L131.72 53.7762L132.327 53.9923L132.959 54.1835C134.131 54.5659 135.204 54.8652 136.176 55.0896C137.074 55.2982 137.99 55.4207 138.911 55.4554C139.721 55.4849 140.531 55.4094 141.322 55.2309C142.109 55.037 142.865 54.7319 143.567 54.3248C144.331 53.9235 144.996 53.3553 145.512 52.6623C145.883 52.1396 146.068 51.5071 146.036 50.8667C145.967 50.1984 145.697 49.5666 145.262 49.0545C144.728 48.3852 144.091 47.8045 143.375 47.3337L146.127 45.7459L144.506 44.8149L141.788 46.386C140.508 45.7549 139.165 45.2617 137.781 44.9146C136.464 44.58 135.125 44.3383 133.774 44.1914L132.377 46.8931ZM140.308 51.7894C139.695 52.1385 138.99 52.2895 138.288 52.2217C137.343 52.1142 136.412 51.9052 135.511 51.5982L139.876 49.1043C141.48 50.1268 141.621 51.0246 140.308 51.7894ZM124.987 53.0613C125.655 52.6994 126.421 52.5624 127.173 52.6706C128.205 52.807 129.223 53.0322 130.216 53.3439L125.876 55.8378C124.023 54.7155 123.723 53.7928 124.987 53.0613Z" fill="#F9CA06"></path><path fill-rule="evenodd" clip-rule="evenodd" d="M129.326 71.8069C106.907 71.8069 88.7334 61.3151 88.7334 48.3728C88.7334 48.3385 88.7336 48.3043 88.7338 48.2701V38.3307L91.6074 39.6952C97.5814 31.0488 112.218 24.9387 129.326 24.9387C146.805 24.9387 161.705 31.3168 167.421 40.2616L169.902 38.0482V47.7032C169.913 47.9256 169.918 48.1488 169.918 48.3728C169.918 61.3151 151.745 71.8069 129.326 71.8069Z" fill="#9DECE6"></path><path d="M129.326 61.7649C106.907 61.7649 88.7334 51.2731 88.7334 38.3308C88.7334 25.3885 106.907 14.8967 129.326 14.8967C151.745 14.8967 169.918 25.3885 169.918 38.3308C169.918 51.2731 151.745 61.7649 129.326 61.7649Z" fill="#D0FFFB"></path><path d="M100.313 39.0541C100.729 43.0028 103.539 46.8932 108.768 49.9191C120.123 56.4613 138.52 56.4613 149.876 49.9191C155.104 46.8932 157.914 43.0028 158.322 39.0541C158.812 34.4405 155.986 29.7187 149.876 26.1941C138.52 19.6352 120.123 19.6352 108.768 26.1941C102.658 29.7187 99.8311 34.4405 100.313 39.0541Z" fill="#CC8B09"></path><path d="M100.313 39.0541C100.729 43.0028 103.539 46.8932 108.768 49.9191C120.123 56.4613 138.52 56.4613 149.876 49.9191C155.105 46.8932 157.914 43.0028 158.322 39.0541C157.914 35.1138 155.105 31.2234 149.876 28.1975C138.52 21.6386 120.123 21.6386 108.768 28.1975C103.572 31.2234 100.729 35.1138 100.313 39.0541Z" fill="#E8A30A"></path><path d="M129.75 33.5674C130.106 33.5666 130.462 33.5944 130.814 33.6505C131.288 33.717 131.828 33.8168 132.418 33.9415C133.009 34.0662 133.632 34.2241 134.264 34.4153C134.889 34.6027 135.5 34.8332 136.093 35.1053L131.421 37.807L130.589 37.5077C129.409 37.117 128.287 36.7762 127.264 36.5018C126.277 36.2374 125.266 36.0703 124.247 36.0031C123.314 35.9443 122.378 36.0085 121.462 36.1943C120.528 36.3934 119.633 36.7414 118.81 37.2251C118 37.6349 117.307 38.2442 116.798 38.9957C116.63 39.2643 116.517 39.5635 116.466 39.876C116.415 40.1885 116.426 40.5081 116.499 40.8162C116.703 41.502 117.081 42.1233 117.596 42.6201C118.239 43.255 118.953 43.813 119.724 44.2827L116.757 45.9952L118.378 46.9345L121.37 45.2055C122.799 45.9003 124.291 46.4571 125.826 46.868C127.432 47.3153 129.072 47.624 130.731 47.7908L132.302 44.981C131.863 44.9702 131.424 44.9369 130.988 44.8813C130.332 44.8033 129.68 44.6924 129.035 44.5487C128.312 44.3908 127.555 44.1996 126.757 43.9668C125.977 43.7437 125.213 43.4659 124.471 43.1356L129.118 40.4588L129.725 40.6666L130.357 40.8661C131.529 41.2485 132.593 41.5478 133.565 41.7639C134.466 41.9745 135.385 42.0998 136.309 42.138C137.119 42.1676 137.93 42.0894 138.72 41.9052C139.508 41.7181 140.264 41.4156 140.964 41.0074C141.726 40.6058 142.388 40.0375 142.901 39.3449C143.28 38.8258 143.465 38.1906 143.425 37.5493C143.357 36.8799 143.09 36.246 142.66 35.7288C142.111 35.0552 141.461 34.4717 140.731 33.9997L143.475 32.4285L141.854 31.4975L139.127 33.0686C137.848 32.4349 136.505 31.9416 135.12 31.5972C133.803 31.2612 132.464 31.0195 131.113 30.874L129.75 33.5674ZM137.656 38.4554C137.045 38.81 136.338 38.964 135.635 38.896C134.688 38.7846 133.755 38.5757 132.851 38.2725L137.223 35.7786C138.841 36.8094 138.986 37.7017 137.656 38.4554ZM122.326 39.7356C122.995 39.3754 123.761 39.2385 124.513 39.3449C125.548 39.4771 126.569 39.7025 127.564 40.0182L123.224 42.5121C121.384 41.3871 121.093 40.4616 122.351 39.7356H122.326Z" fill="#CC8B09"></path><path d="M132.26 45.0145C132.21 44.8981 132.26 43.4434 132.26 43.4434L130.473 44.5905L131.246 45.7793L132.26 45.0145Z" fill="#CC8B09"></path><path d="M116.715 46.0118V44.4407L120.581 44.7316L118.361 46.2446L116.715 46.0118Z" fill="#CC8B09"></path><path d="M116.391 40.2345V38.6467L119.284 39.6942L116.391 40.2345Z" fill="#CC8B09"></path><path d="M128.362 40.1512L127.398 39.2285L124.006 41.5728L124.222 42.2627C124.222 42.2627 126.716 41.1987 126.832 41.1322L128.362 40.1512Z" fill="#CC8B09"></path><path d="M137.231 35.1885L132.734 37.7405L131.811 37.0755C131.811 37.0755 132.377 36.4271 132.418 36.3606C132.826 35.9023 133.299 35.5073 133.823 35.1885C134.156 35.1303 136.317 34.1743 136.317 34.1743L137.231 35.1885Z" fill="#CC8B09"></path><path d="M129.75 33.5675V31.9963L131.811 31.323L132.26 32.5533L132.152 33.1186L129.75 33.5675Z" fill="#CC8B09"></path><path d="M143.483 32.4286V30.8574L141.08 31.1151L141.862 32.6364L143.483 32.4286Z" fill="#CC8B09"></path><path d="M143.392 37.7739V36.1113H140.648L141.313 37.5744L142.51 38.8879L143.392 37.7739Z" fill="#CC8B09"></path><path d="M129.75 31.9964C130.106 31.9911 130.463 32.0189 130.814 32.0795C131.288 32.146 131.828 32.2458 132.418 32.3704C133.009 32.4951 133.632 32.6531 134.264 32.8443C134.889 33.0316 135.5 33.2622 136.093 33.5343L131.421 36.2276L130.589 35.9367C129.409 35.5377 128.287 35.2052 127.264 34.9308C126.277 34.6664 125.266 34.4993 124.247 34.4321C123.314 34.3705 122.378 34.432 121.462 34.6149C120.528 34.817 119.632 35.1679 118.81 35.6541C118 36.0639 117.307 36.6732 116.798 37.4247C116.63 37.6933 116.517 37.9925 116.466 38.305C116.415 38.6175 116.426 38.9371 116.499 39.2452C116.702 39.9289 117.081 40.5477 117.596 41.0408C118.237 41.6779 118.951 42.236 119.724 42.7034L116.757 44.4158L118.378 45.3469L121.37 43.6178C122.799 44.3127 124.291 44.8694 125.826 45.2804C127.433 45.721 129.073 46.0268 130.731 46.1948L132.302 43.3934C131.863 43.3826 131.424 43.3493 130.988 43.2936C130.407 43.2271 129.758 43.1107 129.035 42.9528C128.312 42.7948 127.555 42.6036 126.757 42.3709C125.975 42.1515 125.211 41.8736 124.471 41.5396L129.118 38.8628L129.725 39.0707L130.357 39.2619C131.41 39.6186 132.481 39.921 133.565 40.168C134.466 40.376 135.385 40.4985 136.309 40.5337C137.119 40.5624 137.929 40.4869 138.72 40.3093C139.509 40.1227 140.266 39.8172 140.964 39.4032C141.729 39.0046 142.391 38.4358 142.901 37.7406C143.281 37.219 143.466 36.5807 143.425 35.9367C143.358 35.2693 143.092 34.6376 142.66 34.1245C142.123 33.4601 141.486 32.8825 140.773 32.412L143.475 30.8575L141.854 29.9181L139.127 31.4976C137.851 30.8567 136.507 30.3631 135.12 30.0262C133.803 29.6917 132.464 29.4472 131.113 29.2947L129.75 31.9964ZM137.656 36.8844C137.045 37.2393 136.338 37.3907 135.635 37.3166C134.687 37.2134 133.753 37.0043 132.851 36.6932L137.223 34.1993C138.841 35.2301 138.986 36.1251 137.656 36.8844ZM122.351 38.1562C123.018 37.7921 123.786 37.6549 124.538 37.7655C125.572 37.8985 126.593 38.121 127.588 38.4306L123.249 40.9244C121.392 39.8105 121.093 38.8878 122.351 38.1562Z" fill="#F9CA06"></path><path fill-rule="evenodd" clip-rule="evenodd" d="M130.199 56.9101C107.781 56.9101 89.607 46.4184 89.607 33.4761C89.607 33.4432 89.6071 33.4104 89.6073 33.3776V23.434L92.483 24.7955C98.4582 16.1507 113.093 10.042 130.199 10.042C147.68 10.042 162.58 16.4208 168.296 25.3664L170.784 23.1515V33.0029C170.789 33.1602 170.792 33.318 170.792 33.4761C170.792 46.4184 152.618 56.9101 130.199 56.9101Z" fill="#9DECE6"></path><path d="M130.199 46.8681C107.781 46.8681 89.607 36.3763 89.607 23.4341C89.607 10.4918 107.781 0 130.199 0C152.618 0 170.792 10.4918 170.792 23.4341C170.792 36.3763 152.618 46.8681 130.199 46.8681Z" fill="#D0FFFB"></path><path fill-rule="evenodd" clip-rule="evenodd" d="M40.5925 137.396C18.1739 137.396 4.57764e-05 126.904 4.57764e-05 113.962L-0.000167847 113.962V103.92L2.87292 105.286C8.84615 96.6386 23.4832 90.5278 40.5925 90.5278C58.0718 90.5278 72.9707 96.9057 78.6874 105.85L81.168 103.637V113.276C81.1793 113.504 81.1851 113.732 81.1851 113.962C81.1851 126.904 63.0112 137.396 40.5925 137.396Z" fill="#9DECE6"></path><path d="M40.5925 127.354C18.1739 127.354 4.57764e-05 116.862 4.57764e-05 103.92C4.57764e-05 90.9776 18.1739 80.4858 40.5925 80.4858C63.0112 80.4858 81.1851 90.9776 81.1851 103.92C81.1851 116.862 63.0112 127.354 40.5925 127.354Z" fill="#D0FFFB"></path><path d="M11.5799 104.643C11.9872 108.592 14.8054 112.482 20.0343 115.508C31.3898 122.05 49.7865 122.05 61.1421 115.508C66.371 112.482 69.1808 108.592 69.5882 104.643C70.0786 100.03 67.2522 95.3078 61.1421 91.7832C49.7865 85.2243 31.3898 85.2243 20.0343 91.7832C13.9159 95.3078 11.0977 100.03 11.5799 104.643Z" fill="#CC8B09"></path><path d="M11.5801 104.643C11.9874 108.592 14.8056 112.482 20.0345 115.508C31.39 122.05 49.7868 122.05 61.1423 115.508C66.3712 112.482 69.181 108.592 69.5884 104.643C69.181 100.703 66.3712 96.8122 61.1423 93.7863C49.7868 87.2275 31.39 87.2275 20.0345 93.7863C14.8056 96.8039 11.9874 100.703 11.5801 104.643Z" fill="#E8A30A"></path><path d="M41.0163 99.1567C41.3727 99.1559 41.7285 99.1837 42.0804 99.2399C42.5543 99.3064 43.0946 99.4061 43.6848 99.5308C44.275 99.6555 44.8985 99.8135 45.5303 100.005C46.1552 100.192 46.7663 100.423 47.3592 100.695L42.6873 103.396L41.856 103.097C40.6755 102.706 39.5533 102.366 38.5308 102.091C37.5436 101.827 36.5329 101.66 35.5131 101.592C34.5805 101.534 33.6441 101.598 32.7283 101.784C31.7936 101.979 30.8976 102.327 30.0764 102.814C29.2663 103.224 28.574 103.834 28.0646 104.585C27.8968 104.854 27.784 105.153 27.7326 105.465C27.6812 105.778 27.6924 106.097 27.7654 106.406C27.9673 107.092 28.3457 107.714 28.8627 108.209C29.5035 108.846 30.2179 109.404 30.9908 109.872L27.9732 111.601L29.6358 112.541L32.6285 110.811C34.0568 111.508 35.5489 112.065 37.0843 112.474C38.6891 112.923 40.3303 113.229 41.989 113.388L43.5601 110.587C43.1209 110.576 42.6825 110.543 42.2467 110.487C41.5902 110.41 40.9382 110.299 40.2931 110.155C39.5699 109.997 38.8134 109.806 38.0153 109.565C37.2335 109.345 36.4694 109.067 35.7292 108.733L40.3763 106.056L40.9831 106.264L41.6149 106.464C42.787 106.846 43.8511 107.145 44.8237 107.362C45.7238 107.574 46.6428 107.696 47.567 107.727C48.3771 107.764 49.1884 107.689 49.9778 107.503C50.7639 107.317 51.5177 107.014 52.214 106.605C52.9803 106.206 53.6456 105.637 54.1592 104.943C54.5381 104.424 54.7234 103.788 54.683 103.147C54.6147 102.478 54.3484 101.844 53.9182 101.326C53.3809 100.662 52.7444 100.084 52.0311 99.614L54.7827 98.0262L53.1617 97.0951L50.435 98.6663C49.1564 98.0326 47.813 97.5392 46.4281 97.1949C45.1114 96.8588 43.7724 96.6172 42.4212 96.4717L41.0163 99.1567ZM48.947 104.045C48.3361 104.399 47.6297 104.553 46.9269 104.485C45.9796 104.374 45.0464 104.165 44.1421 103.862L48.5147 101.368C50.1163 102.393 50.2604 103.285 48.947 104.045ZM33.6178 105.325C34.2848 104.961 35.0522 104.824 35.8041 104.934C36.8392 105.066 37.8603 105.292 38.855 105.608L34.5156 108.101C32.659 106.976 32.3597 106.051 33.6178 105.325Z" fill="#CC8B09"></path><path d="M43.5269 110.604C43.477 110.487 43.5269 109.032 43.5269 109.032L41.7396 110.18L42.5127 111.368L43.5269 110.604Z" fill="#CC8B09"></path><path d="M27.9816 111.601V110.03L31.8472 110.321L29.6276 111.834L27.9816 111.601Z" fill="#CC8B09"></path><path d="M27.6574 105.824V104.236L30.5503 105.283L27.6574 105.824Z" fill="#CC8B09"></path><path d="M39.6113 105.74L38.647 104.818L35.2554 107.162L35.4715 107.852C35.4715 107.852 37.9654 106.788 38.0818 106.721L39.6113 105.74Z" fill="#CC8B09"></path><path d="M48.498 100.778L44.0007 103.33L43.0779 102.665C43.0779 102.665 43.6432 102.016 43.6848 101.95C44.0923 101.491 44.5658 101.096 45.0897 100.778C45.4222 100.719 47.5836 99.7634 47.5836 99.7634L48.498 100.778Z" fill="#CC8B09"></path><path d="M41.0163 99.1566V97.5855L43.078 96.9121L43.5269 98.1424L43.4188 98.7077L41.0163 99.1566Z" fill="#CC8B09"></path><path d="M54.7495 98.0177V96.4465L52.3471 96.7042L53.1285 98.2255L54.7495 98.0177Z" fill="#CC8B09"></path><path d="M54.6582 103.363V101.7H51.9149L52.5799 103.163L53.7438 104.494L54.6582 103.363Z" fill="#CC8B09"></path><path d="M41.0163 97.5855C41.3728 97.5803 41.7291 97.6081 42.0804 97.6687C42.5543 97.7352 43.0946 97.8266 43.6848 97.9513C44.275 98.076 44.8985 98.2422 45.5303 98.4334C46.1552 98.6208 46.7663 98.8514 47.3592 99.1234L42.6873 101.792L41.856 101.501C40.6755 101.102 39.5533 100.769 38.5308 100.495C37.5436 100.231 36.5329 100.064 35.5131 99.9963C34.5808 99.9347 33.6445 99.9962 32.7283 100.179C31.7944 100.381 30.899 100.732 30.0764 101.218C29.2647 101.626 28.5717 102.235 28.0646 102.989C27.8968 103.258 27.784 103.557 27.7326 103.869C27.6812 104.182 27.6924 104.501 27.7654 104.809C27.9657 105.495 28.3444 106.114 28.8627 106.605C29.5037 107.242 30.2181 107.8 30.9908 108.268L28.0231 109.98L29.6358 110.936L32.6285 109.207C34.0568 109.903 35.549 110.46 37.0843 110.87C38.6909 111.31 40.3315 111.616 41.989 111.784L43.5601 108.983C43.1209 108.972 42.6825 108.938 42.2467 108.883C41.5901 108.802 40.9381 108.689 40.2931 108.542C39.5699 108.392 38.8134 108.193 38.0153 107.96C37.2335 107.741 36.4694 107.463 35.7292 107.129L40.3763 104.452L40.9831 104.66L41.6149 104.851C42.6683 105.208 43.7393 105.51 44.8237 105.757C45.7246 105.965 46.6431 106.088 47.567 106.123C48.3769 106.152 49.1871 106.076 49.9778 105.898C50.7642 105.71 51.5179 105.404 52.214 104.992C52.9823 104.596 53.6482 104.027 54.1592 103.33C54.5381 102.808 54.7233 102.17 54.683 101.526C54.6166 100.858 54.35 100.227 53.9182 99.7136C53.3809 99.0492 52.7444 98.4716 52.0311 98.0012L54.7827 96.4134L53.1617 95.4741L50.435 97.0535C49.1582 96.4135 47.8144 95.9172 46.4281 95.5738C45.1097 95.2458 43.7712 95.0042 42.4212 94.8506L41.0163 97.5855ZM48.947 102.474C48.3352 102.825 47.6288 102.976 46.9269 102.906C45.9782 102.803 45.0442 102.593 44.1421 102.282L48.5147 99.7885C50.1163 100.819 50.2604 101.714 48.947 102.474ZM33.6178 103.754C34.2848 103.39 35.0522 103.252 35.8041 103.363C36.8384 103.496 37.8592 103.718 38.855 104.028L34.5156 106.522C32.659 105.402 32.3597 104.48 33.6178 103.754Z" fill="#F9CA06"></path><path fill-rule="evenodd" clip-rule="evenodd" d="M4.57764e-05 100.819C0.000350952 113.761 18.1741 124.253 40.5925 124.253C63.0112 124.253 81.1851 113.761 81.1851 100.819C81.1851 100.589 81.1793 100.361 81.168 100.133V90.4942L78.6863 92.7055C72.9689 83.7619 58.0707 77.3848 40.5925 77.3848C23.4872 77.3848 8.85302 83.4927 2.87713 92.1367L-0.000167847 90.7686V100.819L4.57764e-05 100.819Z" fill="#9DECE6"></path><path d="M40.5925 114.203C18.1739 114.203 4.57764e-05 103.711 4.57764e-05 90.7686C4.57764e-05 77.8263 18.1739 67.3345 40.5925 67.3345C63.0112 67.3345 81.1851 77.8263 81.1851 90.7686C81.1851 103.711 63.0112 114.203 40.5925 114.203Z" fill="#D0FFFB"></path><path d="M40.3271 180.814L41.9066 181.388L192.572 94.4014C194.658 93.196 198.308 93.3457 200.719 94.7339L285.004 143.398C285.35 143.595 285.673 143.829 285.969 144.096L286.991 143.265V146.025C286.967 146.462 286.823 146.885 286.575 147.247C286.328 147.609 285.986 147.896 285.586 148.078L134.755 235.189C132.668 236.394 129.019 236.236 126.608 234.848L42.3223 186.209C40.9589 185.378 40.2856 184.405 40.3271 183.458V180.814Z" fill="#255C8C"></path><path d="M134.755 232.529L285.586 145.476C287.681 144.27 287.415 142.151 285.004 140.779L200.71 92.082C198.3 90.6855 194.65 90.5358 192.564 91.7412L41.7404 178.827C39.6456 180.033 39.9116 182.152 42.3224 183.532L126.608 232.188C129.019 233.593 132.668 233.734 134.755 232.529Z" fill="url(#paint0_linear)"></path><path d="M235.375 159.666L264.321 142.965L257.621 139.1L228.683 155.801L235.375 159.666Z" fill="#9DECE6"></path><path d="M177.683 125.675L206.621 108.966L199.929 105.1L170.991 121.809L177.683 125.675Z" fill="#9DECE6"></path><path d="M200.32 179.916L229.249 163.207L222.557 159.342L193.619 176.051L200.32 179.916Z" fill="#9DECE6"></path><path d="M165.247 200.158L194.193 183.449L187.493 179.583L158.555 196.292L165.247 200.158Z" fill="#9DECE6"></path><path d="M130.182 220.4L159.12 203.691L152.428 199.825L123.49 216.534L130.182 220.4Z" fill="#9DECE6"></path><path opacity="0.5" d="M76.7295 186.625C69.9851 186.625 64.5177 183.469 64.5177 179.575C64.5177 175.682 69.9851 172.526 76.7295 172.526C83.474 172.526 88.9414 175.682 88.9414 179.575C88.9414 183.469 83.474 186.625 76.7295 186.625Z" fill="#9DECE6"></path><path opacity="0.5" d="M86.1895 181.155C79.4451 181.155 73.9777 177.999 73.9777 174.106C73.9777 170.212 79.4451 167.056 86.1895 167.056C92.934 167.056 98.4014 170.212 98.4014 174.106C98.4014 177.999 92.934 181.155 86.1895 181.155Z" fill="#D0FFFB"></path><defs><linearGradient id="paint0_linear" x1="277.607" y1="117.472" x2="216.353" y2="284.657" gradientUnits="userSpaceOnUse"><stop stop-color="#3874A4"></stop><stop offset="1" stop-color="#64DAEC"></stop></linearGradient></defs></svg>