<svg xmlns="http://www.w3.org/2000/svg" width="178" height="33" viewBox="0 0 178 33" fill="none"><path fill-rule="evenodd" clip-rule="evenodd" d="M144.793 0H178V33H144.793V0ZM149.433 4.54679V28.387H173.357V4.54679H149.433Z" fill="#393B8F"></path><path fill-rule="evenodd" clip-rule="evenodd" d="M152.245 24.9454L164.206 7.40492L170.679 7.27539L158.323 24.9454H152.245ZM0 32.8042V19.4238H5.75231C7.58285 19.4238 8.9548 20.1386 10.0004 21.5663C10.851 22.802 11.3086 24.2958 11.3086 26.1149C11.3086 27.8688 10.851 29.4279 9.87007 30.726C8.82446 32.0904 7.45155 32.8051 5.75231 32.8051H0V32.8042ZM2.81146 21.8263V30.4017H5.42597C6.47254 30.4017 7.19181 29.946 7.71415 29.1017C8.17273 28.3226 8.36873 27.3478 8.36873 26.114C8.36873 25.074 8.17273 24.0992 7.71415 23.3201C7.19181 22.2801 6.40689 21.8263 5.42597 21.8263H2.81146ZM19.4148 29.687H22.0293C21.8333 30.7913 21.2453 31.5703 20.33 32.2208C19.5451 32.7399 18.5651 32.9999 17.3892 32.9999C16.0163 32.9999 14.905 32.4789 14.0554 31.5061C13.1392 30.5313 12.6825 29.2955 12.6825 27.7374C12.6825 26.375 13.1392 25.2054 13.9897 24.2949C14.905 23.3844 16.0163 22.8653 17.3892 22.8653C19.3501 22.8653 20.6573 23.5801 21.3766 24.9444C21.6382 25.3983 21.8342 25.9826 21.9646 26.5678C22.0949 27.2183 22.1606 27.8679 22.1606 28.5826H15.3617C15.3617 29.1017 15.5586 29.5555 15.885 30.0103C16.3426 30.5313 16.8002 30.7913 17.3892 30.7913C17.8459 30.7913 18.3035 30.6598 18.6308 30.5313C19.0228 30.3374 19.2844 30.0765 19.4148 29.687ZM15.3617 26.8931H19.4148C19.4148 26.4392 19.2188 25.9826 18.8268 25.6592C18.3691 25.2697 17.9115 25.074 17.3892 25.074C16.8659 25.074 16.4083 25.2697 16.0163 25.6592C15.8138 25.7959 15.6482 25.9798 15.5341 26.195C15.4199 26.4101 15.3607 26.6499 15.3617 26.8931ZM23.7951 23.0611H26.4096V29.4912C26.4096 29.8165 26.6056 30.1417 26.8673 30.4017C27.1936 30.6598 27.5865 30.7913 27.9785 30.7913C28.5009 30.7913 28.9594 30.6598 29.3505 30.3374C29.7434 29.946 29.9394 29.5565 29.9394 29.1017V23.0611H32.4892V32.8042H29.9394V31.5703C29.1554 32.5432 28.1745 32.9999 26.9986 32.9999C26.2299 33.0033 25.478 32.7766 24.8407 32.3494C24.1862 31.8956 23.7951 31.2451 23.7951 30.466V23.0611ZM37.6526 20.2672V23.0611H39.1568V24.8801H37.6526V29.8808C37.6526 30.0765 37.783 30.2703 37.9142 30.4017C38.0455 30.5313 38.2406 30.5956 38.5022 30.5956H38.8952C39.0255 30.5313 39.0912 30.5313 39.1568 30.5313V32.8042C38.8295 32.8704 38.5022 32.9356 38.3062 32.9356C38.0455 32.9999 37.7183 32.9999 37.2606 32.9999C36.606 32.9999 36.1494 32.8042 35.6917 32.3494C35.2997 31.9599 35.1037 31.5051 35.1037 30.9199V24.8792H33.7955V23.0601H35.1037V21.7601L37.6526 20.2672ZM40.2681 29.4912H42.8826C42.8826 29.9451 43.0139 30.3374 43.4049 30.5956C43.7322 30.8556 44.1898 30.9851 44.7131 30.9851C45.1708 30.9851 45.5627 30.9208 45.8244 30.7913C46.1517 30.6599 46.3477 30.3374 46.3477 29.9451C46.3477 29.426 45.89 29.0365 44.8435 28.7765C43.1442 28.3226 42.1633 28.0617 42.033 27.9322C40.9874 27.4783 40.4641 26.8278 40.4641 25.9192C40.4641 25.0087 40.8561 24.294 41.5753 23.7087C42.2946 23.1253 43.2755 22.8644 44.4515 22.8644C45.6284 22.8644 46.5427 23.1244 47.3276 23.6435C48.1782 24.2287 48.6349 25.0078 48.6349 26.1121H46.2164C46.1507 25.7226 45.9547 25.3973 45.6274 25.2035C45.2728 24.9894 44.8655 24.8769 44.4505 24.8783C44.0585 24.8783 43.7322 25.0078 43.4696 25.1364C43.2089 25.3321 43.0776 25.5259 43.0776 25.8512C43.0776 26.2407 43.6009 26.5659 44.5818 26.7617C46.0851 27.0198 47.066 27.2155 47.3923 27.4102C48.4389 27.866 48.9612 28.646 48.9612 29.7503C48.9612 30.8546 48.5036 31.6989 47.5893 32.2189C46.8044 32.738 45.8891 32.998 44.7131 32.998C43.4049 32.998 42.3593 32.6728 41.5097 32.0232C40.6601 31.4399 40.2681 30.5956 40.2681 29.4912ZM55.0408 32.9999C53.6679 32.9999 52.5567 32.4789 51.6423 31.5061C50.7918 30.5313 50.3351 29.2955 50.3351 27.7374C50.3351 26.4392 50.7918 25.2706 51.707 24.2949C52.6223 23.3844 53.7336 22.8653 55.0408 22.8653C56.2177 22.8653 57.2634 23.2549 58.113 23.9697C59.0273 24.6201 59.4859 25.5278 59.4859 26.5678H56.8704C56.8704 26.114 56.6744 25.7888 56.3471 25.5278C55.9552 25.2045 55.5632 25.074 55.0399 25.074C54.3863 25.074 53.9286 25.334 53.5366 25.8531C53.2093 26.3069 53.0134 26.9574 53.0134 27.7364C53.0134 28.6469 53.2093 29.3617 53.5366 29.9451C53.9286 30.466 54.3863 30.7913 55.0399 30.7913C55.4975 30.7913 55.9552 30.5956 56.2815 30.2703C56.6744 29.9451 56.8704 29.6217 56.8704 29.166H59.4859C59.4859 30.2703 59.0283 31.2451 58.113 31.9599C57.1987 32.6104 56.2177 32.9999 55.0408 32.9999ZM61.1861 19.4238H63.8015V24.0992C64.1279 23.6454 64.5855 23.3201 65.1088 23.1263C65.6311 22.9949 66.2201 22.8663 66.808 22.8663C67.6586 22.8663 68.4426 23.1263 69.0962 23.6454C69.7498 24.0992 70.0762 24.814 70.0762 25.594V32.8051H67.5273V26.6983C67.5273 26.1792 67.3304 25.7897 67.0697 25.5297C66.809 25.2716 66.4161 25.1402 65.9594 25.1402C65.4361 25.1402 64.9128 25.2716 64.4552 25.594C64.0632 25.9211 63.8015 26.3088 63.8015 26.8297V32.8051H61.1861V19.4238ZM78.5087 29.687H81.0585C80.8625 30.7913 80.2745 31.5703 79.3583 32.2208C78.5743 32.7399 77.5934 32.9999 76.4821 32.9999C75.1102 32.9999 73.998 32.4789 73.0827 31.5061C72.1674 30.5313 71.7754 29.2955 71.7754 27.7374C71.7754 26.375 72.1674 25.2054 73.0827 24.2949C73.9323 23.3844 75.1092 22.8653 76.4821 22.8653C78.3783 22.8653 79.6856 23.5801 80.4048 24.9444C80.7312 25.3983 80.9272 25.9826 81.0585 26.5678C81.1888 27.2183 81.1888 27.8679 81.1888 28.5826H74.3909C74.3909 29.1017 74.5869 29.5555 74.9789 30.0103C75.3709 30.5313 75.8941 30.7913 76.4821 30.7913C76.9398 30.7913 77.3317 30.6598 77.7247 30.5313C78.051 30.3374 78.3127 30.0765 78.5087 29.687ZM74.3899 26.8931H78.5077C78.5077 26.4392 78.2461 25.9826 77.8541 25.6592C77.4621 25.2697 77.0045 25.074 76.4812 25.074C75.9588 25.074 75.4356 25.2697 75.0426 25.6592C74.6516 25.9826 74.3899 26.4392 74.3899 26.8931ZM87.6595 32.8042V19.4238H94.523C95.5039 19.4238 96.3536 19.7491 97.0072 20.4619C97.7265 21.1767 98.1185 22.022 98.1185 23.062C98.1185 23.6454 97.9862 24.1644 97.7265 24.6854C97.4082 25.1882 96.9552 25.5929 96.4183 25.854C97.0728 26.114 97.5942 26.5688 98.0538 27.0897C98.4457 27.6731 98.6408 28.2583 98.6408 28.9088C98.6408 30.0112 98.2488 30.9217 97.5295 31.6365C96.8103 32.4156 96.0263 32.8051 94.9797 32.8051H87.6595V32.8042ZM90.4053 21.8263V24.6844H93.7391C94.1957 24.6844 94.5887 24.5549 94.915 24.2949C95.2414 24.0349 95.3717 23.7097 95.3717 23.3201C95.3717 22.8663 95.2414 22.541 94.915 22.2158C94.605 21.9553 94.2096 21.8167 93.8038 21.8263H90.4053ZM90.4053 27.0888V30.4017H93.9341C94.4583 30.4017 94.8503 30.2703 95.2423 29.8808C95.5696 29.5555 95.7665 29.166 95.7665 28.7122C95.7665 28.2583 95.5696 27.8679 95.2423 27.5436C94.8503 27.2183 94.4583 27.0897 93.9341 27.0897H90.4053V27.0888ZM103.218 25.9826H100.602C100.602 24.9444 101.06 24.1635 101.91 23.5801C102.694 23.1263 103.61 22.8653 104.721 22.8653C106.225 22.8653 107.336 23.1253 108.055 23.5801C108.644 24.0339 108.969 24.5549 108.969 25.2697V31.2451C108.969 31.8303 109.166 32.3494 109.558 32.8032H106.877C106.747 32.6094 106.618 32.478 106.552 32.2842C106.466 32.0965 106.4 31.9004 106.355 31.6989C106.028 32.1528 105.571 32.478 105.047 32.6737C104.59 32.8694 104.002 32.999 103.283 32.999C102.367 32.999 101.647 32.6737 101.125 32.1528C100.536 31.5694 100.209 30.8546 100.209 30.0755C100.209 29.2946 100.47 28.5817 100.93 28.0607C101.387 27.5417 102.039 27.2164 102.891 27.0878C104.394 26.8278 105.113 26.6964 105.178 26.6964C105.962 26.5026 106.354 26.2426 106.354 25.9816C106.354 25.5921 106.224 25.2687 105.897 25.1373C105.636 24.9435 105.243 24.8792 104.721 24.8792C104.265 24.8792 103.937 25.0087 103.61 25.1373C103.348 25.3349 103.218 25.593 103.218 25.9826ZM106.355 29.4912V27.9974C105.505 28.1269 104.852 28.3226 104.329 28.4512C103.348 28.7112 102.891 29.166 102.891 29.7512C102.891 30.2051 102.955 30.466 103.218 30.6599C103.478 30.8556 103.805 30.9199 104.265 30.9199C104.721 30.9199 105.179 30.7903 105.571 30.5303C105.963 30.3374 106.225 29.946 106.355 29.4912ZM111.259 23.0611H113.873V24.1635C114.213 23.7558 114.636 23.4242 115.115 23.1906C115.704 22.9949 116.226 22.8653 116.683 22.8653C117.599 22.8653 118.318 23.1254 118.97 23.5158C119.624 24.0349 120.016 24.6844 120.016 25.4645V32.8051H117.402V26.3749C117.402 25.9835 117.272 25.6602 117.01 25.4645C116.683 25.2063 116.355 25.1392 115.963 25.1392C115.441 25.1392 115.049 25.2054 114.722 25.3992C114.374 25.6626 114.085 25.9944 113.872 26.374V32.8042H111.258V23.0611H111.259ZM122.11 19.4238H124.724V26.5688L127.731 23.062H130.869L127.666 26.7645L131.197 32.8051H128.124L125.901 28.6488L124.725 29.8827V32.8061H122.111V19.4238H122.11Z" fill="#393B8F"></path></svg>