<svg xmlns="http://www.w3.org/2000/svg" width="140" height="24" viewBox="0 0 140 24" fill="none"><g clip-path="url(#clip0)"><path d="M31.465 0.0112305L19.1956 9.35688C17.9336 4.68406 13.8444 1.25449 8.81028 1.25449H0V22.746H8.81028C13.8464 22.746 18.2506 19.3203 19.1936 14.6475L31.4631 23.9893L43.7383 14.6475V22.7441H57.5828V18.385H48.4594V1.25642H43.4233V9.35303L31.78 18.6987L29.2619 16.5239L34.9281 12.159L40.9053 7.49006L37.4442 4.68983L25.8028 13.7199L23.2847 11.5393L34.9281 2.81916L31.465 0.0170041V0.0112305ZM4.72111 5.61554H8.49528C9.28278 5.61554 10.0508 5.79068 10.7586 6.11208C11.4683 6.43348 12.1158 6.90114 12.6661 7.48429C13.2164 8.06743 13.6694 8.76604 13.9844 9.55511C14.2994 10.3442 14.4744 11.2218 14.4744 12.1571C14.4744 13.0135 14.315 13.8488 14.0272 14.6205C13.7431 15.3864 13.3215 16.0951 12.7828 16.7125C12.2566 17.3155 11.6123 17.8066 10.8889 18.156C10.1656 18.5024 9.3625 18.6929 8.49722 18.6929H4.71917L4.72111 5.61554ZM73.3153 18.385V22.746H59.4708V1.25642H64.505V18.385H73.3153Z" fill="#007DB8"></path><path d="M131.614 23.1402C135.872 23.1402 139.333 21.0328 140 16.4216L139.734 16.1579H138.536L138.27 16.4216C137.603 19.7145 135.474 21.5602 131.748 21.5602C127.089 21.5602 123.76 18.1344 123.76 12.0721C123.76 6.00974 127.221 2.58787 131.746 2.58787C135.474 2.58787 137.605 4.43352 138.27 7.46278L138.536 7.72644H139.734L140 7.46278C139.335 3.248 136.006 1.00781 131.614 1.00781C126.422 1.00781 121.763 4.69719 121.763 11.9431C121.763 19.4528 126.422 23.1402 131.614 23.1402ZM118.038 22.482V1.66601L117.771 1.40235H115.64L115.376 1.66601L107.388 20.2418H107.122L98.8693 1.66601L98.6029 1.40235H96.4738L96.2074 1.66601V22.482L96.4738 22.7457H97.6716L97.9379 22.482V4.82806H98.2043L105.924 22.482L106.19 22.7457H107.789L108.055 22.482L115.774 4.82806H116.173V22.482L116.439 22.7457H117.637L118.038 22.482ZM92.0832 22.482V21.5582L91.8168 21.2965H80.3699L80.1035 21.0328V13.1287L80.3699 12.865H91.1499L91.4163 12.6013V11.5467L91.1499 11.283H80.3699L80.1035 11.0194V3.24607L80.3699 2.98433H91.8168L92.0832 2.72067V1.66601L91.8168 1.40235H78.5052L78.2388 1.66601V22.482L78.5052 22.7457H91.8168L92.0832 22.482Z" fill="#808080"></path></g><defs><clipPath id="clip0"><rect width="140" height="24" fill="white"></rect></clipPath></defs></svg>