<svg xmlns="http://www.w3.org/2000/svg" width="92" height="37" viewBox="0 0 92 37" fill="none"><g clip-path="url(#clip0)"><path d="M11.8965 8.07568C5.40738 8.07568 0 10.8378 0 19.172C0 25.7745 3.63612 29.9321 12.0637 29.9321C21.9836 29.9321 22.6195 23.3752 22.6195 23.3752H17.813C17.813 23.3752 16.7825 26.9058 11.7707 26.9058C7.68866 26.9058 4.75282 24.1388 4.75282 20.2608H23.1224V17.827C23.1224 13.9903 20.6951 8.07568 11.8965 8.07568ZM11.7286 11.186C15.6142 11.186 18.2631 13.5746 18.2631 17.1545H4.859C4.859 13.3538 8.31682 11.186 11.7286 11.186Z" fill="#E53238"></path><path d="M23.1194 0.00537109V25.7468C23.1194 27.2079 23.0154 29.2596 23.0154 29.2596H27.5997C27.5997 29.2596 27.7645 27.7862 27.7645 26.4393C27.7645 26.4393 30.0295 29.9952 36.1884 29.9952C42.6739 29.9952 47.0793 25.4768 47.0793 19.0039C47.0793 12.9819 43.0329 8.13855 36.1989 8.13855C29.7994 8.13855 27.8109 11.6061 27.8109 11.6061V0.00537109H23.1194ZM35.0156 11.3225C39.4198 11.3225 42.2206 14.6025 42.2206 19.0039C42.2206 23.7238 38.9859 26.8113 35.0472 26.8113C30.3465 26.8113 27.8109 23.1282 27.8109 19.0458C27.8109 15.2417 30.086 11.3225 35.0156 11.3225Z" fill="#0064D2"></path><path d="M58.4733 8.07568C48.7111 8.07568 48.0851 13.4391 48.0851 14.2963H52.9441C52.9441 14.2963 53.1988 11.1651 58.1382 11.1651C61.3478 11.1651 63.835 12.6394 63.835 15.4732V16.482H58.1382C50.5754 16.482 46.5771 18.7021 46.5771 23.2073C46.5771 27.6408 50.2713 30.0531 55.2638 30.0531C62.0677 30.0531 64.2594 26.2807 64.2594 26.2807C64.2594 27.7812 64.3745 29.2599 64.3745 29.2599H68.694C68.694 29.2599 68.5267 27.4271 68.5267 26.2545V16.1196C68.5267 9.47396 63.1847 8.07568 58.4733 8.07568ZM63.835 19.5083V20.8533C63.835 22.6075 62.756 26.9689 56.405 26.9689C52.9272 26.9689 51.4361 25.2273 51.4361 23.207C51.4361 19.532 56.4575 19.5083 63.835 19.5083Z" fill="#F5AF02"></path><path d="M65.9094 8.91699H71.3757L79.2209 24.6882L87.0479 8.91699H91.9999L77.743 36.9947H72.5486L76.6625 29.1676L65.9094 8.91699Z" fill="#86B817"></path></g><defs><clipPath id="clip0"><path d="M0 0H92V37H0V0Z" fill="white"></path></clipPath></defs></svg>