<svg xmlns="http://www.w3.org/2000/svg" width="324" height="224" viewBox="0 0 324 224" fill="none"><path d="M58.4021 64.4963L56.6459 104.143C56.645 104.42 56.5957 104.693 56.5002 104.953C56.4481 105.118 56.3804 105.278 56.2979 105.43C56.0559 105.916 55.6868 106.327 55.2298 106.62L1.41659 137.694C1.26537 137.81 1.0828 137.878 0.892422 137.89C0.702041 137.901 0.512566 137.855 0.348416 137.758C0.255025 137.688 0.180043 137.597 0.129927 137.491C0.039324 137.299 -0.00501934 137.089 0.000451164 136.876V96.9008C0.00132501 96.626 0.0450072 96.353 0.129927 96.0916C0.188196 95.9196 0.258503 95.752 0.340324 95.5899C0.587831 95.1053 0.959155 94.6949 1.41659 94.4003L55.2136 63.3101C55.3672 63.1946 55.5522 63.1282 55.7442 63.1195C55.9362 63.1108 56.1264 63.1603 56.2898 63.2615C56.379 63.3326 56.8235 63.3807 56.8786 63.4806C57.8943 63.9884 58.4093 64.2725 58.4021 64.4963Z" fill="#2F83A7"></path><path d="M0.454102 137.792L2.52571 138.933L2.65518 135.259L0.454102 137.792Z" fill="#2F83A7"></path><path d="M58.7341 65.3178V105.293C58.7291 105.569 58.68 105.842 58.5885 106.103C58.5329 106.266 58.4653 106.426 58.3862 106.58C58.1442 107.066 57.775 107.477 57.318 107.77L3.50484 138.827C3.35196 138.941 3.16855 139.007 2.97819 139.015C2.78783 139.024 2.59924 138.975 2.43667 138.876C2.3453 138.807 2.27062 138.719 2.21818 138.617C2.12173 138.427 2.07444 138.215 2.08061 138.002V98.0265C2.08021 97.7509 2.12673 97.4773 2.21818 97.2173C2.44928 96.5337 2.90214 95.947 3.50484 95.5503L57.3018 64.4924C57.4543 64.3784 57.6372 64.3122 57.8273 64.3021C58.0174 64.2921 58.2063 64.3385 58.37 64.4358C58.4634 64.5058 58.5384 64.5974 58.5885 64.7028C58.6877 64.8924 58.7378 65.1038 58.7341 65.3178Z" fill="url(#paint0_linear)"></path><mask id="mask0" maskUnits="userSpaceOnUse" x="2" y="64" width="57" height="76"><path d="M58.7341 65.3178V105.293C58.7291 105.569 58.68 105.842 58.5885 106.103C58.5329 106.266 58.4653 106.426 58.3862 106.58C58.1442 107.066 57.775 107.477 57.318 107.77L3.50484 138.827C3.35196 138.941 3.16855 139.007 2.97819 139.015C2.78783 139.024 2.59924 138.975 2.43667 138.876C2.3453 138.807 2.27062 138.719 2.21818 138.617C2.12173 138.427 2.07444 138.215 2.08061 138.002V98.0265C2.08021 97.7509 2.12673 97.4773 2.21818 97.2173C2.44928 96.5337 2.90214 95.947 3.50484 95.5503L57.3018 64.4924C57.4543 64.3784 57.6372 64.3122 57.8273 64.3021C58.0174 64.2921 58.2063 64.3385 58.37 64.4358C58.4634 64.5058 58.5384 64.5974 58.5885 64.7028C58.6877 64.8924 58.7378 65.1038 58.7341 65.3178Z" fill="#FFD44D"></path></mask><g mask="url(#mask0)"><path opacity="0.12" d="M2.31475 139.022L30.4028 101.499L58.4423 106.451V110.416L2.08008 142.955L2.31475 139.022Z" fill="black"></path><path opacity="0.05" d="M30.4018 101.498L2.37036 96.8696L-0.21105 96.0442L-1.35205 141.636L2.4351 138.876L30.4018 101.498Z" fill="black"></path><path opacity="0.05" d="M30.4023 101.498L58.4418 64.4926L61.0232 60.6974L62.1642 104.962L58.4418 106.451L30.4023 101.498Z" fill="black"></path></g><path fill-rule="evenodd" clip-rule="evenodd" d="M321.245 70.3135V114.383C321.238 114.703 321.181 115.02 321.075 115.322C321.007 115.512 320.929 115.699 320.84 115.88C320.556 116.449 320.123 116.931 319.586 117.272L257.947 152.892L257.868 155.119L255.573 153.857C255.484 153.83 255.398 153.792 255.318 153.744C255.209 153.662 255.12 153.557 255.059 153.436C254.95 153.212 254.898 152.965 254.905 152.716V105.87C254.909 105.561 254.964 105.255 255.067 104.964C255.132 104.764 255.214 104.569 255.31 104.381C255.594 103.808 256.031 103.323 256.572 102.981L319.57 66.5825C319.748 66.4472 319.963 66.3686 320.187 66.3571C320.411 66.3455 320.633 66.4015 320.824 66.5177C320.852 66.5377 320.878 66.5592 320.903 66.5824L323.276 67.8859L321.245 70.3135Z" fill="#2F83A7"></path><path d="M323.689 68.9213V115.727C323.682 116.047 323.625 116.363 323.519 116.665C323.451 116.856 323.373 117.042 323.284 117.224C322.995 117.79 322.563 118.27 322.03 118.616L259.016 155.031C258.836 155.164 258.621 155.24 258.397 155.25C258.174 155.26 257.953 155.203 257.762 155.087C257.651 155.008 257.562 154.902 257.503 154.78C257.394 154.555 257.342 154.308 257.349 154.059V107.214C257.353 106.905 257.407 106.599 257.511 106.307C257.573 106.106 257.654 105.911 257.753 105.725C258.038 105.151 258.475 104.667 259.016 104.325L322.014 67.9503C322.194 67.8153 322.41 67.737 322.635 67.7255C322.86 67.714 323.083 67.7697 323.276 67.8855C323.385 67.967 323.473 68.0721 323.535 68.193C323.642 68.4206 323.695 68.6699 323.689 68.9213Z" fill="url(#paint1_linear)"></path><mask id="mask1" maskUnits="userSpaceOnUse" x="257" y="67" width="67" height="89"><path d="M323.689 68.9213V115.727C323.682 116.047 323.625 116.363 323.519 116.665C323.451 116.856 323.373 117.042 323.284 117.224C322.995 117.79 322.563 118.27 322.03 118.616L259.016 155.031C258.836 155.164 258.621 155.24 258.397 155.25C258.174 155.26 257.953 155.203 257.762 155.087C257.651 155.008 257.562 154.902 257.503 154.78C257.394 154.555 257.342 154.308 257.349 154.059V107.214C257.353 106.905 257.407 106.599 257.511 106.307C257.573 106.106 257.654 105.911 257.753 105.725C258.038 105.151 258.475 104.667 259.016 104.325L322.014 67.9503C322.194 67.8153 322.41 67.737 322.635 67.7255C322.86 67.714 323.083 67.7697 323.276 67.8855C323.385 67.967 323.473 68.0721 323.535 68.193C323.642 68.4206 323.695 68.6699 323.689 68.9213Z" fill="#FFD44D"></path></mask><g mask="url(#mask1)"><path opacity="0.12" d="M257.607 155.218L290.518 111.277L323.348 117.079V121.724L257.348 159.831L257.607 155.218Z" fill="black"></path><path opacity="0.05" d="M290.517 111.276L257.687 105.863L254.669 104.892L253.326 158.284L257.76 155.055L290.517 111.276Z" fill="black"></path><path opacity="0.05" d="M290.519 111.276L323.349 67.9505L326.367 63.4998L327.702 115.338L323.349 117.078L290.519 111.276Z" fill="black"></path></g><path d="M223.373 36.3755C223.279 36.1448 223.121 35.9454 222.918 35.8008C222.51 35.5892 222.07 35.4444 221.616 35.3718L152.931 15.7263L84.2455 114.31C83.7652 114.841 83.3552 115.431 83.0255 116.066C82.8157 116.464 82.6389 116.878 82.4969 117.305C82.2857 117.929 82.1732 118.581 82.1634 119.239V218.681C82.152 219.211 82.2633 219.738 82.4887 220.219C82.6209 220.474 82.8101 220.695 83.0418 220.866C83.4474 221.115 83.9187 221.236 84.3944 221.214C84.8701 221.192 85.3283 221.029 85.7095 220.745L220.16 143.491C221.651 142.496 222.769 141.039 223.34 139.346C223.571 138.704 223.691 138.028 223.698 137.347V37.9054C223.711 37.3772 223.599 36.8534 223.373 36.3755Z" fill="#2F83A7"></path><path d="M87.2904 223.313L83.2119 220.733L89.5024 215.974L87.2904 223.313Z" fill="#2E83A6"></path><path d="M152.861 15.7432L156.555 18.1479L226.846 37.7431L223.353 35.7344C222.004 35.1638 220.609 34.7017 219.182 34.3529L152.861 15.7432Z" fill="#2E83A6"></path><path d="M227.892 40.028V139.437C227.881 140.116 227.76 140.789 227.534 141.429C227.394 141.835 227.223 142.23 227.022 142.611C226.418 143.82 225.496 144.844 224.354 145.574L89.9053 222.835C89.5241 223.122 89.0648 223.288 88.5873 223.311C88.1099 223.334 87.6365 223.213 87.2292 222.964C86.9997 222.79 86.8133 222.565 86.6842 222.308C86.4551 221.831 86.3436 221.307 86.3588 220.778V121.361C86.3686 120.703 86.4811 120.05 86.6923 119.426C86.8358 119 87.0126 118.586 87.221 118.187C87.8291 116.971 88.7602 115.944 89.9134 115.217L224.329 37.9718L222.035 39.5423C223.109 38.9352 226.379 37.3485 227.03 37.8342C227.259 38.0086 227.446 38.2329 227.575 38.4899C227.802 38.9701 227.911 39.4975 227.892 40.028Z" fill="url(#paint2_linear)"></path><mask id="mask2" maskUnits="userSpaceOnUse" x="86" y="37" width="142" height="187"><path d="M227.391 40.2349V139.607C227.38 140.286 227.26 140.958 227.035 141.598C226.896 142.004 226.725 142.399 226.525 142.779C225.925 143.989 225.008 145.012 223.871 145.741L90.115 222.973C89.7358 223.26 89.2788 223.426 88.8039 223.449C88.3289 223.472 87.8579 223.351 87.4527 223.103C87.2244 222.928 87.0389 222.704 86.9105 222.447C86.6826 221.97 86.5717 221.446 86.5868 220.918V121.537C86.5966 120.879 86.7085 120.227 86.9186 119.603C87.0613 119.177 87.2372 118.764 87.4446 118.365C88.0495 117.149 88.9758 116.122 90.1231 115.395L223.847 38.1795L221.565 39.7494C222.633 39.1425 225.886 37.5564 226.533 38.042C226.762 38.2163 226.947 38.4405 227.076 38.6974C227.302 39.1774 227.41 39.7046 227.391 40.2349Z" fill="#FFD44D"></path></mask><g mask="url(#mask2)"><path opacity="0.12" d="M87.454 223.102L156.99 130.163L226.697 142.48V152.336L86.5801 233.226L87.454 223.102Z" fill="black"></path><path opacity="0.05" d="M156.992 130.163L87.2933 118.664L80.8924 116.609L78.0439 229.948L87.4552 223.102L156.992 130.163Z" fill="black"></path><path opacity="0.05" d="M156.845 130.033L226.543 38.0568L232.944 28.6132L235.793 138.659L226.543 142.349L156.845 130.033Z" fill="black"></path></g><path d="M87.4058 118.197L156.924 17.7745L226.846 37.817L157.13 130.004L87.4058 118.197Z" fill="#122E46"></path><path d="M211.121 0V58.8231L157.123 130.004L103.133 120.887V62.0479L211.121 0Z" fill="#E9EAF2"></path><path d="M138.778 88.4191L112.568 103.793V73.045L138.778 57.6627V88.4191Z" fill="white"></path><path d="M170.231 69.5421L144.021 84.9216V54.1707L170.231 38.7911V69.5421Z" fill="white"></path><path d="M201.684 51.7188L175.473 67.0984V36.3474L201.684 20.9679V51.7188Z" fill="white"></path><path d="M201.684 65.0835L112.568 116.375V111.059L201.684 59.76V65.0835Z" fill="white"></path><path d="M188.054 78.6316V83.9706L119.533 123.714L112.568 123.002V122.419L188.054 78.6316Z" fill="white"></path><path d="M175.473 96.4542V101.903L134.631 125.81L126.197 125.306L175.473 96.4542Z" fill="white"></path><path d="M168.134 112.181V115.498L165.382 119.243L149.037 128.955L141.924 127.754L168.134 112.181Z" fill="white"></path><defs><linearGradient id="paint0_linear" x1="4.23746" y1="78.2266" x2="53.2003" y2="136.732" gradientUnits="userSpaceOnUse"><stop stop-color="#3874A4"></stop><stop offset="1" stop-color="#64DAEC"></stop></linearGradient><linearGradient id="paint1_linear" x1="259.874" y1="84.0378" x2="317.237" y2="152.552" gradientUnits="userSpaceOnUse"><stop stop-color="#3874A4"></stop><stop offset="1" stop-color="#64DAEC"></stop></linearGradient><linearGradient id="paint2_linear" x1="91.7471" y1="72.3307" x2="213.229" y2="218.34" gradientUnits="userSpaceOnUse"><stop stop-color="#3874A4"></stop><stop offset="1" stop-color="#64DAEC"></stop></linearGradient></defs></svg>