<svg xmlns="http://www.w3.org/2000/svg" width="52" height="52" viewBox="0 0 52 52" fill="none"><path fill-rule="evenodd" clip-rule="evenodd" d="M0 52H52V0H0V52Z" fill="#7793C0"></path><path fill-rule="evenodd" clip-rule="evenodd" d="M45.4801 11.8736H43.6781V4.77052H45.3743V5.56556C45.586 5.08834 46.1161 4.66436 46.8053 4.61144C47.9717 4.55853 48.7668 5.24773 48.7668 6.73166V11.8733H46.9118V6.51999C46.9118 5.8837 46.9118 5.35388 46.4872 5.24773C46.3284 5.19481 46.0632 5.24773 45.8509 5.40649C45.5857 5.67171 45.4798 5.98954 45.4798 6.51999L45.4801 11.8736ZM14.842 5.24773C14.418 4.87667 13.8879 4.61144 13.2519 4.61144C12.616 4.61144 12.1387 4.87667 11.6618 5.24773C10.9197 5.8837 10.4425 7.04981 10.4425 8.32206C10.4425 9.64724 10.9197 10.7601 11.6618 11.3964C12.1387 11.7675 12.616 12.0324 13.2519 12.0324C13.8879 12.0324 14.418 11.7675 14.842 11.3964C15.6374 10.7601 16.0614 9.64692 16.0614 8.32206C16.061 7.04981 15.6371 5.8837 14.842 5.24773ZM14.1528 8.32206C14.1528 9.64724 14.1528 10.7075 13.9408 11.2373C13.7817 11.5022 13.6227 11.6613 13.2516 11.6613C12.9338 11.6613 12.7215 11.5022 12.6156 11.2373C12.3504 10.7072 12.3504 9.64692 12.3504 8.32206C12.3504 7.04981 12.3504 5.93662 12.6156 5.40649C12.7215 5.14158 12.9338 4.98251 13.2516 4.98251C13.6227 4.98251 13.7817 5.14126 13.9408 5.40649C14.206 5.93662 14.1528 7.04981 14.1528 8.32206ZM33.3419 14.5769V16.4851H32.9708C32.7585 15.6904 32.4404 15.0012 31.5921 14.9479C31.0623 14.8953 30.5851 15.2132 30.5321 15.6901C30.4792 16.167 30.6386 16.5909 31.5921 17.1211C32.8114 17.8103 33.7655 18.1284 33.7655 19.5594C33.7655 21.0966 32.4404 21.8387 31.3275 21.8387H29.207V19.1881H29.578C29.8432 20.5662 30.2672 21.4144 31.2749 21.4674C31.9105 21.4674 32.3878 21.0963 32.3878 20.4071C32.3878 19.7179 31.9632 19.2939 30.9561 18.7108C29.8432 18.0216 29.154 17.5977 29.154 16.6435C29.154 15.3713 30.0552 14.5763 31.4863 14.5763C31.9632 14.5769 33.3419 14.5769 33.3419 14.5769ZM35.6741 11.8736V6.73166C35.6741 5.24773 34.8787 4.55853 33.7126 4.61144C32.9173 4.66436 32.4404 5.19481 32.2281 5.61848C31.9628 4.87667 31.3804 4.55853 30.5318 4.61144C29.8426 4.66436 29.3131 5.08866 29.1008 5.56556V4.77052H27.4575V11.8736H29.2596V6.51999C29.2596 5.98954 29.3131 5.67171 29.6306 5.40649C29.8429 5.24773 30.0552 5.19481 30.214 5.24773C30.6386 5.35357 30.6386 5.8837 30.6386 6.51999V11.8736H32.4407V6.46707C32.4407 5.98954 32.5465 5.67171 32.8117 5.40649C33.024 5.24773 33.2357 5.19481 33.3951 5.24773C33.8191 5.35357 33.872 5.8837 33.872 6.51999V11.8736H35.6741ZM17.2804 3.28658H19.1357V11.8736H17.2804V3.28658ZM25.7086 11.8736V3.28658H23.8533V5.30065C23.6946 4.92959 23.3232 4.66468 22.7934 4.66468C21.4682 4.66468 20.4079 6.04277 20.355 8.16299C20.3021 9.59432 20.779 11.9794 22.6343 11.9794C23.3764 11.9794 23.8004 11.5555 23.9595 11.1847V11.8739H25.7086V11.8736ZM23.5352 5.35357C23.9063 5.8837 23.9063 7.15564 23.9063 8.16268C23.9063 9.22294 23.9592 10.601 23.5352 11.1841C23.3761 11.3961 23.2171 11.5019 22.9518 11.5019C22.5811 11.5019 22.3688 11.0779 22.2626 10.3887C22.2097 9.75245 22.2097 8.9574 22.2097 8.10944C22.2097 6.67843 22.3155 5.08803 23.0047 5.08803C23.27 5.08866 23.3761 5.19481 23.5352 5.35357ZM41.1865 4.98251C41.664 5.24773 41.9818 5.67171 41.9818 6.62583V11.8736H40.232V11.0786C40.0204 11.6616 39.4373 12.0327 38.6416 12.0327C38.0053 12.0327 36.8925 11.7149 36.8925 10.0715C36.8925 8.53437 37.9001 8.21623 39.013 7.73933C40.02 7.31535 40.1259 7.26211 40.1259 6.83813V5.67203C40.1259 5.19513 39.8607 4.98282 39.3312 4.98282C39.1189 5.03574 38.7478 5.14158 38.7478 5.4068C38.6949 5.72495 39.0659 5.72495 39.1189 6.20216C39.1718 6.94428 38.5884 7.20919 38.0589 7.15627C37.6878 7.15627 37.2635 6.94428 37.2106 6.36123C37.1577 5.4068 38.2177 4.61176 39.7022 4.61176C40.3914 4.61144 40.8154 4.77052 41.1865 4.98251ZM40.1265 7.63286L39.5431 8.00392C38.9604 8.37498 38.8539 8.85188 38.8013 9.38202C38.7484 9.806 38.7484 10.1771 38.8013 10.813C38.8543 11.3961 39.2253 11.5022 39.5431 11.3961C39.9148 11.237 40.1265 10.5481 40.1265 9.80568V7.63286ZM14.9482 14.895C15.4254 15.2129 15.6903 15.5839 15.6903 16.538V21.839H13.9941V21.044C13.7817 21.5741 13.199 21.9449 12.4037 21.9449C11.7144 21.9449 10.6545 21.68 10.6545 20.0367C10.6545 18.4995 11.6618 18.1813 12.7218 17.7044C13.7817 17.2272 13.8879 17.1743 13.8879 16.8033V15.6371C13.8879 15.107 13.623 14.8953 13.0929 14.9479C12.8806 14.9479 12.5098 15.0541 12.5098 15.319C12.4569 15.6901 12.8276 15.6901 12.8806 16.167C12.9338 16.8562 12.3507 17.1211 11.8209 17.1211C11.4499 17.0682 11.0256 16.8562 10.9726 16.2731C10.9197 15.3719 11.9797 14.5769 13.4639 14.5769C14.1528 14.5769 14.5771 14.683 14.9482 14.895ZM13.8879 17.5454L13.3048 17.9164C12.7218 18.2875 12.6156 18.7644 12.5627 19.2945C12.5098 19.7185 12.5098 20.1428 12.5627 20.7255C12.5627 21.3618 12.9338 21.4677 13.2519 21.3086C13.6759 21.1495 13.8879 20.5136 13.8879 19.7185V17.5454ZM27.7759 16.6971C27.7759 15.2129 26.9806 14.4707 25.8145 14.5769C25.2314 14.6298 24.7542 14.895 24.489 15.2661V13.1991H22.6869V18.0758C22.6869 19.8779 21.4147 21.5741 20.1427 21.5212C19.2415 21.5212 19.0295 20.832 18.9234 20.0899C18.7643 19.0296 18.7643 17.8106 18.8705 16.4854C18.9766 15.6375 19.1886 14.9483 19.8249 14.9483C20.3018 14.9483 20.355 15.2664 20.1427 15.4784C19.9304 15.7436 19.6126 16.0085 19.7717 16.5916C19.9304 17.2279 20.9378 17.3337 21.4147 16.8568C21.7857 16.4328 21.7328 15.7436 21.4676 15.3196C21.1494 14.7895 20.6196 14.5775 19.8246 14.5775C18.8172 14.5775 16.909 15.4784 16.909 18.341C16.909 21.4154 18.8701 21.9452 19.9833 21.9452C21.2556 21.9452 22.3688 20.8323 22.6866 19.9308V21.8394H24.4887V16.4848C24.4887 15.955 24.5948 15.6368 24.8597 15.3716C25.0717 15.2129 25.337 15.1596 25.496 15.2129C25.9203 15.3187 25.9203 15.8488 25.9203 16.4848V21.8387H27.7756V16.6971H27.7759ZM9.22317 3.1272V6.14861H8.85211C8.53396 4.66436 7.84507 3.55118 6.89065 3.49826C6.25467 3.44534 5.88361 3.81609 5.56547 4.34654C5.24764 4.98251 5.08857 6.30768 5.08857 7.89777C5.08857 9.38201 5.14149 10.4952 5.30056 11.2902C5.4064 11.6613 5.67162 12.2447 6.36083 12.2447C6.73189 12.2447 6.9968 12.1385 7.15587 11.9265C7.42078 11.6084 7.4737 10.9724 7.4737 10.5484V9.11742C7.4737 8.58729 7.31494 8.26914 7.04972 8.11039C6.83773 8.00423 6.51958 8.00424 6.36051 7.95132V7.58025H9.32869V15.1602H8.95763C8.79887 14.5772 8.69272 14.1532 8.4275 13.676C8.16259 13.1991 7.68537 12.669 6.89033 12.669C6.04237 12.616 5.40608 13.1462 5.40608 13.9409C5.40608 15.0012 6.04237 15.2661 7.20847 15.9024C8.32166 16.5383 9.75299 17.0685 9.75299 18.9238C9.75299 20.7262 8.21582 21.8394 6.46666 21.8394H3.65724V18.1813H4.0283C4.50552 20.9375 5.67162 21.4147 6.46698 21.4147C7.4737 21.4147 7.95091 20.7785 7.95091 19.8776C7.89799 18.7115 7.10295 18.2875 5.98945 17.7044C4.39968 16.8033 3.65724 16.379 3.65724 14.8953C3.71016 13.6228 4.71751 12.828 5.83038 12.5099C3.49817 12.245 2.80896 10.1248 2.8622 7.84516C2.8622 5.56587 4.18737 3.12751 6.78449 3.12751L9.22317 3.1272Z" fill="white"></path></svg>