<svg xmlns="http://www.w3.org/2000/svg" width="85" height="34" viewBox="0 0 85 34" fill="none"><path d="M0 0V2.3262H16.5451V0H0ZM18.8892 0V2.3262H42.4668C42.4668 2.3262 40.0585 0 36.8688 0H18.8892ZM47.092 0V2.3262H61.356L60.5094 0H47.092ZM71.5826 0L70.7359 2.3262H84.8705V0H71.5826ZM0 4.52387V6.85006H16.5451V4.52387H0ZM18.8892 4.52718V6.85015H45.2027C45.2027 6.85015 44.8954 5.0598 44.3593 4.52718H18.8892ZM47.092 4.52718V6.85015H62.9199L62.1363 4.52718H47.092ZM69.8892 4.52718L69.1056 6.85015H84.8705V4.52718H69.8892ZM4.75464 9.04774V11.3773H11.9199V9.04774H4.75464ZM23.6439 9.04774V11.3773H30.8092V9.04774H23.6439ZM37.7785 9.04774V11.3773H44.9438C44.9438 11.3773 45.3987 10.147 45.3987 9.04774H37.7785ZM51.8467 9.04774V11.3773H64.5502L63.7035 9.04774H51.8467ZM68.3287 9.04774L67.4787 11.3773H80.2453V9.04774H68.3287ZM4.75464 13.575V15.9012H11.9199V13.575H4.75464ZM23.6439 13.575V15.9012H41.9455C41.9455 15.9012 43.4765 14.7076 43.9642 13.575H23.6439ZM51.8467 13.575V15.9012H59.0119V14.6063L59.4669 15.9012H72.592L73.0801 14.6063V15.9012H80.2454V13.575H66.7947L66.0809 15.5453L65.3636 13.575H51.8467ZM4.75464 18.0989V20.4251H11.9199V18.0989H4.75464ZM23.6439 18.0989V20.4251H43.9642C43.4764 19.2962 41.9455 18.0989 41.9455 18.0989H23.6439ZM51.8467 18.0989V20.4251H59.0119V18.0989H51.8467ZM60.3134 18.0989L61.18 20.4251H71.0214L71.8449 18.0989H60.3134ZM73.08 18.0989V20.4251H80.2453V18.0989H73.08ZM4.75464 22.6227V24.9489H11.9199V22.6227H4.75464ZM23.6439 22.6227V24.9489H30.8092V22.6227H23.6439ZM37.7785 22.6227V24.9489H45.3986C45.3986 23.8511 44.9437 22.6227 44.9437 22.6227H37.7785ZM51.8467 22.6227V24.9489H59.0119V22.6227H51.8467ZM61.9404 22.6227L62.7805 24.9489H69.3779L70.2246 22.6227H61.9404ZM73.08 22.6227V24.9489H80.2453V22.6227H73.08ZM0.129455 27.1466V29.4761H16.6745V27.1466H0.129455ZM18.8892 27.1466V29.4761H44.3593C44.8954 28.9428 45.2027 27.1466 45.2027 27.1466H18.8892ZM47.2215 27.1466V29.4761H59.0119V27.1466H47.2215ZM63.5707 27.1466L64.4339 29.4761H67.7907L68.6009 27.1466H63.5707ZM73.08 27.1466V29.4761H85V27.1466H73.08ZM0.129455 31.6738V34H16.6745V31.6738H0.129455ZM18.8892 31.6738V33.9967H36.8688C40.0585 33.9967 42.4668 31.6738 42.4668 31.6738H18.8892ZM47.2215 31.6738V34H59.0119V31.6738H47.2215ZM65.2076 31.6738L66.0377 33.9935L66.1805 33.9967L67.0239 31.6738H65.2076ZM73.08 31.6738V34H85V31.6738H73.08Z" fill="#1F70C1"></path></svg>