<svg xmlns="http://www.w3.org/2000/svg" width="113" height="21" viewBox="0 0 113 21" fill="none"><path fill-rule="evenodd" clip-rule="evenodd" d="M112.523 1.70407C112.769 1.67206 112.957 1.53775 112.957 1.22894C112.957 0.888756 112.761 0.738116 112.366 0.738116H111.73V2.46416H111.983V1.716H112.274L112.716 2.46416H113L112.523 1.70407ZM111.983 1.49444V0.960308H112.328C112.504 0.960308 112.692 0.999222 112.692 1.21325C112.692 1.47812 112.501 1.49444 112.286 1.49444H111.983ZM52.169 5.73423H44.0056C43.862 5.73423 43.7243 5.67535 43.6227 5.57053C43.5212 5.46571 43.4641 5.32354 43.4641 5.17531C43.4641 5.02707 43.5212 4.88491 43.6227 4.78009C43.7243 4.67527 43.862 4.61638 44.0056 4.61638H54.682V0H42.4071C40.3422 0 38.6677 1.80262 38.6677 3.93475V6.49118C38.6677 7.51493 39.0617 8.49676 39.7629 9.22066C40.4642 9.94456 41.4153 10.3512 42.4071 10.3512H50.0658C50.2093 10.3512 50.347 10.4101 50.4485 10.5149C50.55 10.6196 50.607 10.7617 50.607 10.9099C50.607 11.058 50.55 11.2001 50.4485 11.3049C50.347 11.4096 50.2093 11.4685 50.0658 11.4685H39.4964V16.0855H52.169C52.6601 16.0855 53.1463 15.9856 53.6 15.7917C54.0537 15.5977 54.4659 15.3133 54.8131 14.9549C55.1604 14.5965 55.4358 14.1709 55.6237 13.7026C55.8117 13.2343 55.9084 12.7323 55.9084 12.2254V9.66961C55.909 7.53685 54.2345 5.73423 52.169 5.73423ZM31.4534 0H26.2231L18.7565 16.0849H24.7085L25.4297 14.2973L32.1946 14.281L32.9321 16.0849H38.8841L31.4534 0ZM30.2994 9.68091H27.3054L28.8206 6.03237L30.3425 9.75372L30.2994 9.68091ZM86.2795 0H81.0492L73.5832 16.0849H79.534L80.2564 14.2973L87.0207 14.281L87.7582 16.0849H93.7102L86.2795 0ZM85.1255 9.68091H82.1315L83.6467 6.03237L85.1741 9.76753L85.1255 9.68091ZM73.0773 1.19191C72.1404 0.0746872 70.3114 0.000627308 68.6053 0.000627308H57.2795V16.0434L57.2582 16.0635L68.6053 16.0855C70.312 16.0855 72.1404 16.0114 73.0773 14.8942C74.0155 13.7776 74.2314 13.1813 74.2314 8.04336C74.2314 2.9054 74.0155 2.3085 73.0773 1.19191ZM68.6764 9.80017C68.6764 10.3927 68.2119 10.8722 67.6385 10.8722H62.646V5.21328H67.6385C68.2119 5.21328 68.6764 5.69344 68.6764 6.28531V9.80017ZM12.7686 7.8193L5.0503 0H0V16.0849H5.33851V8.34088L12.7686 16.0849H18.1078V0H12.7686V7.8193ZM108.715 14.8936C109.653 13.777 109.869 13.1807 109.869 8.04274C109.869 2.90477 109.653 2.3085 108.715 1.19191C107.777 0.0746872 105.949 0.000627308 104.243 0.000627308H98.904C97.1973 0.000627308 95.3702 0.0753148 94.432 1.19191C93.495 2.3085 93.2779 2.90477 93.2779 8.04274C93.2779 13.1807 93.495 13.777 94.432 14.8936C95.3702 16.0108 97.1979 16.0849 98.904 16.0849H104.314V21H109.653V16.0849L105.752 16.0786C106.946 15.9888 108.052 15.6825 108.715 14.8936ZM104.314 9.27921C104.314 9.87109 103.85 10.3512 103.276 10.3512H99.8702C99.5949 10.3511 99.3309 10.2381 99.1362 10.037C98.9416 9.83601 98.8323 9.56343 98.8323 9.27921V6.28469C98.8323 5.69281 99.2968 5.21266 99.8702 5.21266H103.276C103.85 5.21266 104.314 5.69218 104.314 6.28469V9.27921Z" fill="#333333"></path></svg>