<svg xmlns="http://www.w3.org/2000/svg" width="208" height="317" viewBox="0 0 208 317" fill="none"><path d="M169.119 272.273L97.6756 230.841C91.6247 227.331 86.7148 217.919 86.7148 209.811V9.64452C86.7214 1.54277 91.6247 -2.1839 97.6756 1.31354L169.119 42.7588C175.17 46.2628 180.074 55.681 180.074 63.7828V263.949C180.074 272.057 175.17 275.784 169.119 272.273Z" fill="#122E46"></path><path d="M170.338 275.882L176.005 273.007L170.573 263.661L170.338 275.882Z" fill="#B1B4C4"></path><path d="M85.605 3.3242L90.8148 0.579956L89.765 8.28873L85.605 3.3242Z" fill="#122E46"></path><path d="M174.747 66.586V266.746C174.747 274.86 169.843 278.574 163.792 275.07L135.755 258.827L127.05 253.771L92.3356 233.644C86.2847 230.127 81.3813 220.716 81.3813 212.607V12.4478C81.3813 4.33294 86.2847 0.61282 92.3356 4.11681L163.805 45.549C169.856 49.0661 174.747 58.4712 174.747 66.586Z" fill="#255C8C"></path><path d="M169.602 64.5557V259.502C169.602 264.414 166.179 266.412 161.94 263.949L139.602 250.994L137.645 249.854L136.993 249.468L132.168 246.671L118.195 238.576L112.405 235.216L110.071 233.861L94.2197 224.652C89.988 222.196 86.5518 216.223 86.5518 211.311V16.3775C86.5518 11.4653 89.988 9.48083 94.2197 11.9303L122.107 28.1076V28.1666C122.107 31.9849 124.787 36.6351 128.08 38.5476C131.373 40.46 134.053 38.9143 134.053 35.0894C134.053 35.0894 134.053 35.0239 134.053 34.9977L161.947 51.1816C166.179 53.6573 169.602 59.637 169.602 64.5557Z" fill="url(#paint0_linear)"></path><path d="M157.897 110.389L98.5291 75.978C97.8526 75.4897 97.2992 74.8492 96.9131 74.1077C96.527 73.3663 96.319 72.5443 96.3057 71.7077V30.2427C96.3057 28.5923 97.3033 27.8391 98.5291 28.553L157.897 62.9772C158.574 63.4655 159.127 64.1059 159.513 64.8474C159.899 65.5889 160.107 66.4108 160.121 67.2475V108.726C160.121 110.343 159.097 111.103 157.897 110.389Z" fill="#5DCAE1"></path><path d="M159.227 129.37L97.1924 93.3932C96.9233 93.1993 96.703 92.945 96.549 92.6505C96.395 92.356 96.3117 92.0294 96.3057 91.6968V85.966C96.3057 85.3111 96.7034 85.0032 97.1924 85.3111L159.227 121.288C159.5 121.482 159.723 121.738 159.878 122.035C160.033 122.332 160.116 122.661 160.121 122.997V128.728C160.121 129.357 159.749 129.684 159.227 129.37Z" fill="#5DCAE1"></path><path d="M149.805 137.38L97.1924 106.872C96.9227 106.676 96.7021 106.419 96.5481 106.123C96.3942 105.826 96.3112 105.497 96.3057 105.163V99.4254C96.3057 98.7704 96.7034 98.4691 97.1924 98.7704L149.805 129.285C150.078 129.479 150.301 129.735 150.456 130.032C150.611 130.329 150.694 130.658 150.699 130.994V136.725C150.699 137.36 150.301 137.668 149.805 137.38Z" fill="#5DCAE1"></path><path d="M141.492 146.012L97.2256 120.344C96.9547 120.149 96.7333 119.893 96.5793 119.596C96.4252 119.299 96.3429 118.97 96.3389 118.635V112.904C96.3389 112.249 96.7366 111.941 97.2256 112.249L141.492 137.897C141.763 138.092 141.985 138.349 142.139 138.646C142.293 138.942 142.375 139.272 142.379 139.606V145.337C142.347 145.999 141.949 146.3 141.492 146.012Z" fill="#5DCAE1"></path><path d="M158.191 223.342L96.156 187.365C95.8839 187.171 95.6612 186.915 95.506 186.618C95.3508 186.321 95.2675 185.991 95.2627 185.656V179.925C95.2627 179.27 95.6604 178.962 96.156 179.27L158.191 215.247C158.463 215.442 158.685 215.698 158.84 215.995C158.995 216.292 159.079 216.621 159.084 216.956V222.687C159.097 223.342 158.686 223.63 158.191 223.342Z" fill="#5DCAE1"></path><path d="M148.769 231.352L96.156 200.838C95.884 200.645 95.6613 200.39 95.5061 200.094C95.3508 199.798 95.2674 199.47 95.2627 199.135V193.398C95.2627 192.743 95.6604 192.435 96.156 192.743L148.769 223.25C149.039 223.447 149.259 223.703 149.413 224C149.567 224.297 149.65 224.625 149.656 224.96V230.697C149.656 231.332 149.258 231.64 148.769 231.352Z" fill="#5DCAE1"></path><path d="M140.416 239.984L96.156 214.317C95.8839 214.122 95.6612 213.866 95.506 213.569C95.3508 213.272 95.2675 212.943 95.2627 212.607V206.877C95.2627 206.222 95.6604 205.914 96.156 206.222L140.416 231.856C140.689 232.05 140.912 232.306 141.067 232.603C141.222 232.901 141.305 233.23 141.31 233.566V239.297C141.31 239.971 140.912 240.272 140.416 239.984Z" fill="#5DCAE1"></path><path d="M169.601 69.4679V117.004L167.325 115.74C166.648 115.25 166.093 114.607 165.706 113.863C165.319 113.12 165.11 112.296 165.095 111.457V70.0181C165.095 68.3676 166.099 67.6079 167.325 68.3283L169.601 69.4679Z" fill="#5DCAE1"></path><path d="M101.203 171.326L96.7494 168.745C96.475 168.548 96.2505 168.289 96.0942 167.988C95.9379 167.688 95.8541 167.355 95.8496 167.016V145.58C95.8496 144.925 96.2539 144.617 96.7429 144.925L101.196 147.544C101.466 147.739 101.687 147.994 101.841 148.29C101.995 148.586 102.078 148.914 102.083 149.247V170.71C102.09 171.306 101.718 171.601 101.203 171.326Z" fill="#5DCAE1"></path><path d="M110.847 176.932L106.394 174.352C106.123 174.156 105.901 173.9 105.747 173.603C105.593 173.306 105.511 172.977 105.507 172.642V146.058C105.507 145.403 105.905 145.095 106.394 145.403L110.847 147.983C111.118 148.179 111.34 148.435 111.495 148.732C111.65 149.029 111.734 149.358 111.74 149.693V176.271C111.766 176.919 111.362 177.22 110.847 176.932Z" fill="#5DCAE1"></path><path d="M120.543 182.545L116.064 179.958C115.793 179.764 115.573 179.508 115.419 179.212C115.265 178.917 115.182 178.589 115.177 178.255V159.419C115.177 158.764 115.574 158.456 116.064 158.764L120.517 161.344C120.789 161.539 121.012 161.795 121.167 162.092C121.322 162.389 121.405 162.718 121.41 163.054V181.884C121.436 182.525 121.039 182.827 120.543 182.545Z" fill="#5DCAE1"></path><path d="M130.218 188.152L125.765 185.571C125.493 185.376 125.271 185.12 125.116 184.823C124.96 184.526 124.877 184.197 124.872 183.862V152.378C124.872 151.723 125.269 151.415 125.765 151.723L130.218 154.31C130.489 154.505 130.711 154.762 130.865 155.059C131.019 155.356 131.101 155.685 131.105 156.02V187.503C131.105 188.132 130.707 188.44 130.218 188.152Z" fill="#5DCAE1"></path><path d="M139.888 193.758L135.435 191.177C135.163 190.983 134.941 190.726 134.786 190.43C134.63 190.133 134.547 189.803 134.542 189.468V162.89C134.542 162.235 134.946 161.927 135.435 162.235L139.888 164.816C140.158 165.011 140.379 165.268 140.533 165.565C140.687 165.862 140.77 166.19 140.775 166.525V193.083C140.775 193.745 140.377 194.046 139.888 193.758Z" fill="#5DCAE1"></path><path d="M159.227 205.003L154.78 202.384C154.508 202.189 154.286 201.933 154.131 201.636C153.975 201.339 153.892 201.01 153.887 200.674V174.109C153.887 173.454 154.285 173.147 154.78 173.454L159.227 176.035C159.5 176.229 159.723 176.485 159.878 176.782C160.033 177.079 160.116 177.409 160.121 177.744V204.322C160.121 204.964 159.749 205.265 159.227 205.003Z" fill="#5DCAE1"></path><path d="M149.557 199.371L145.104 196.79C144.834 196.594 144.614 196.337 144.46 196.041C144.306 195.744 144.223 195.415 144.217 195.081V158.685C144.217 158.03 144.615 157.729 145.104 158.03L149.557 160.611C149.829 160.806 150.052 161.062 150.207 161.359C150.362 161.656 150.445 161.985 150.451 162.32V198.716C150.451 199.351 150.053 199.652 149.557 199.371Z" fill="#5DCAE1"></path><path d="M129.685 36.5626C130.57 36.049 130.572 34.3857 129.688 32.8476C128.803 31.3095 127.369 30.4791 126.483 30.9927C125.597 31.5063 125.596 33.1696 126.48 34.7077C127.364 36.2458 128.799 37.0763 129.685 36.5626Z" fill="#122E46"></path><path d="M177.654 92.9215C177.074 93.2621 176.598 92.9215 176.598 92.1225V83.6081C176.605 83.2115 176.704 82.822 176.887 82.4706C177.071 82.1192 177.333 81.8158 177.654 81.5843C178.234 81.2503 178.71 81.5843 178.71 82.3899V90.9043C178.702 91.2998 178.603 91.688 178.419 92.0382C178.236 92.3883 177.974 92.6907 177.654 92.9215Z" fill="#255C8C"></path><path d="M177.654 106.905C177.074 107.245 176.598 106.905 176.598 106.106V97.5915C176.605 97.1949 176.704 96.8054 176.887 96.454C177.071 96.1026 177.333 95.7992 177.654 95.5677C178.234 95.2337 178.71 95.5677 178.71 96.3733V104.888C178.702 105.283 178.603 105.671 178.419 106.022C178.236 106.372 177.974 106.674 177.654 106.905Z" fill="#255C8C"></path><path opacity="0.15" d="M130.936 176.565L119.303 169.63L119.381 100.572L131.014 107.507L130.936 176.565Z" fill="#333333"></path><path fill-rule="evenodd" clip-rule="evenodd" d="M121.978 105.189L128.876 109.145L123.288 121.065L121.983 119.933V166.12C118.102 168.195 114.436 169.169 111.163 169.145L112.49 171.935C112.393 171.891 108.292 169.533 105.62 167.996C104.829 167.643 104.08 167.212 103.377 166.705C103.367 166.698 103.361 166.695 103.361 166.695L103.363 166.694C99.2364 163.702 96.73 158.065 96.73 150.296C96.73 133.868 107.938 113.978 121.971 105.204L121.978 105.189Z" fill="#9DECE6"></path><path d="M128.875 109.145C114.843 117.921 103.628 137.818 103.628 154.251C103.628 170.684 114.843 177.574 128.875 170.075V109.145Z" fill="#D0FFFB"></path><path d="M144.1 289.142C144.1 284.503 147.249 279.962 153.447 276.409C165.942 269.402 186.158 269.402 198.653 276.409C204.851 279.962 208 284.503 208 289.142V299.012C208 303.651 204.851 308.191 198.653 311.744C186.158 318.752 165.942 318.752 153.447 311.744C147.249 308.191 144.1 303.651 144.1 299.012V289.142Z" fill="#9DECE6"></path><path d="M176.049 307.831C158.403 307.831 144.1 299.62 144.1 289.492C144.1 279.364 158.403 271.153 176.049 271.153C193.695 271.153 208 279.364 208 289.492C208 299.62 193.695 307.831 176.049 307.831Z" fill="#D0FFFB"></path><path d="M144.1 276.955C144.1 272.249 147.249 267.644 153.447 264.04C165.942 256.932 186.158 256.932 198.653 264.04C204.851 267.644 208 272.249 208 276.955V286.966C208 291.671 204.851 296.276 198.653 299.88C186.158 306.988 165.942 306.988 153.447 299.88C147.249 296.276 144.1 291.671 144.1 286.966V276.955Z" fill="#9DECE6"></path><path d="M176.049 295.387C158.403 295.387 144.1 287.176 144.1 277.048C144.1 266.92 158.403 258.709 176.049 258.709C193.695 258.709 208 266.92 208 277.048C208 287.176 193.695 295.387 176.049 295.387Z" fill="#D0FFFB"></path><path d="M0.00012207 169.881C0.00012207 164.796 3.35316 159.819 9.95109 155.924C23.2571 148.242 44.7854 148.242 58.0915 155.924C64.6914 159.819 68.0444 164.796 68.0444 169.881V180.701C68.0444 185.785 64.6914 190.762 58.0915 194.657C44.7854 202.339 23.2571 202.339 9.95109 194.657C3.35316 190.762 0.00012207 185.785 0.00012207 180.701V169.881Z" fill="#9DECE6"></path><path d="M34.0223 189.362C15.2324 189.362 0.00012207 180.587 0.00012207 169.762C0.00012207 158.938 15.2324 150.163 34.0223 150.163C52.8122 150.163 68.0444 158.938 68.0444 169.762C68.0444 180.587 52.8122 189.362 34.0223 189.362Z" fill="#D0FFFB"></path><path d="M0.00012207 157.425C0.00012207 152.442 3.35316 147.564 9.95109 143.747C23.2571 136.219 44.7854 136.219 58.0915 143.747C64.6914 147.564 68.0444 152.442 68.0444 157.425V168.028C68.0444 173.012 64.6914 177.889 58.0915 181.706C44.7854 189.234 23.2571 189.234 9.95109 181.706C3.35316 177.889 0.00012207 173.012 0.00012207 168.028V157.425Z" fill="#9DECE6"></path><path d="M34.0223 176.296C15.2324 176.296 0.00012207 167.746 0.00012207 157.199C0.00012207 146.651 15.2324 138.101 34.0223 138.101C52.8122 138.101 68.0444 146.651 68.0444 157.199C68.0444 167.746 52.8122 176.296 34.0223 176.296Z" fill="#D0FFFB"></path><path d="M4.00303 144.359C4.00303 139.375 7.35607 134.498 13.954 130.681C27.26 123.153 48.7884 123.153 62.0944 130.681C68.6943 134.498 72.0474 139.375 72.0474 144.359V154.962C72.0474 159.945 68.6943 164.822 62.0944 168.639C48.7884 176.168 27.26 176.168 13.954 168.639C7.35607 164.822 4.00303 159.945 4.00303 154.962V144.359Z" fill="#9DECE6"></path><path d="M38.0252 164.234C19.2353 164.234 4.00303 155.459 4.00303 144.635C4.00303 133.81 19.2353 125.035 38.0252 125.035C56.8151 125.035 72.0474 133.81 72.0474 144.635C72.0474 155.459 56.8151 164.234 38.0252 164.234Z" fill="#D0FFFB"></path><path d="M2.00108 131.686C2.00108 126.601 5.35413 121.624 11.952 117.729C25.2581 110.048 46.7864 110.048 60.0924 117.729C66.6923 121.624 70.0454 126.601 70.0454 131.686V142.506C70.0454 147.591 66.6923 152.568 60.0924 156.463C46.7864 164.145 25.2581 164.145 11.952 156.463C5.35413 152.568 2.00108 147.591 2.00108 142.506V131.686Z" fill="#9DECE6"></path><path d="M36.0232 151.168C17.2334 151.168 2.00108 142.393 2.00108 131.568C2.00108 120.743 17.2334 111.968 36.0232 111.968C54.8131 111.968 70.0454 120.743 70.0454 131.568C70.0454 142.393 54.8131 151.168 36.0232 151.168Z" fill="#D0FFFB"></path><path d="M2.00108 118.62C2.00108 113.534 5.35413 108.558 11.952 104.663C25.2581 96.9809 46.7864 96.9809 60.0924 104.663C66.6923 108.558 70.0454 113.534 70.0454 118.62V129.439C70.0454 134.524 66.6923 139.501 60.0924 143.396C46.7864 151.078 25.2581 151.078 11.952 143.396C5.35413 139.501 2.00108 134.524 2.00108 129.439V118.62Z" fill="#9DECE6"></path><path d="M36.0232 138.101C17.2334 138.101 2.00108 129.326 2.00108 118.501C2.00108 107.677 17.2334 98.9014 36.0232 98.9014C54.8131 98.9014 70.0454 107.677 70.0454 118.501C70.0454 129.326 54.8131 138.101 36.0232 138.101Z" fill="#D0FFFB"></path><defs><linearGradient id="paint0_linear" x1="89.7143" y1="58.2459" x2="227.44" y2="129.175" gradientUnits="userSpaceOnUse"><stop stop-color="#3874A4"></stop><stop offset="1" stop-color="#64DAEC"></stop></linearGradient></defs></svg>