<svg xmlns="http://www.w3.org/2000/svg" width="236" height="232" viewBox="0 0 236 232" fill="none"><g clip-path="url(#clip0)"><path d="M0.0531006 81.858C0.106201 80.5783 0.955795 79.352 2.7081 78.3389C28.5727 63.3562 40.7867 47.6271 41.2125 28.9122C41.4249 26.1396 45.1419 24.0069 49.9219 23.8469C82.1585 23.6336 109.297 16.5422 135.16 1.55958C138.719 -0.519861 144.083 -0.519861 147.588 1.55958C151.943 4.06557 156.298 6.62488 161.024 9.13088C194.376 27.6859 237.022 51.4128 235.96 86.1234V99.293C236.013 100.359 236.013 101.48 235.96 102.546V102.599C235.482 113.956 230.331 126.433 218.647 140.349L217.001 141.789L214.504 142.748C116.998 170.207 58.5781 135.177 15.7196 109.371C11.3654 106.598 7.01018 104.092 2.655 101.586C0.955795 100.572 0.0531006 99.3464 0 98.0669L0.0531006 81.858Z" fill="url(#paint0_linear)"></path><path d="M15.7197 93.3749C11.3645 90.6022 7.00929 88.0962 2.65509 85.5902C-0.850494 83.5641 -0.850494 80.4183 2.65509 78.3922C28.5187 63.4095 40.7337 47.6804 41.1585 28.9655C41.3709 26.1929 45.0879 24.0602 49.8679 23.9002C82.1576 23.6336 109.297 16.5422 135.16 1.55958C138.718 -0.519861 144.082 -0.519861 147.587 1.55958C151.942 4.06557 156.297 6.62488 161.024 9.13087C205.369 33.8175 266.231 67.6751 218.593 124.3L216.947 125.739L214.451 126.7C116.944 154.212 58.5782 119.181 15.7197 93.3749Z" fill="url(#paint1_linear)"></path><path d="M94.9052 55.1451C94.9052 52.6391 96.5513 50.1865 99.7914 48.267C106.324 44.4813 116.893 44.4813 123.425 48.267C126.664 50.1865 128.31 52.6391 128.31 55.1451V60.4771C128.31 62.9831 126.664 65.4358 123.425 67.3552C116.893 71.1409 106.324 71.1409 99.7914 67.3552C96.5513 65.4358 94.9052 62.9831 94.9052 60.4771V55.1451Z" fill="#9DECE6"></path><path d="M111.634 64.8493C102.395 64.8493 94.9054 60.5047 94.9054 55.1453C94.9054 49.7859 102.395 45.4413 111.634 45.4413C120.873 45.4413 128.363 49.7859 128.363 55.1453C128.363 60.5047 120.873 64.8493 111.634 64.8493Z" fill="#D0FFFB"></path><path d="M94.9052 48.7468C94.9052 46.2408 96.5513 43.7881 99.7914 41.8687C106.324 38.083 116.893 38.083 123.425 41.8687C126.664 43.7881 128.31 46.2408 128.31 48.7468V54.0788C128.31 56.5848 126.664 59.0373 123.425 60.9569C116.893 64.7426 106.324 64.7426 99.7914 60.9569C96.5513 59.0373 94.9052 56.5848 94.9052 54.0788V48.7468Z" fill="#9DECE6"></path><path d="M111.634 58.4511C102.395 58.4511 94.9054 54.1065 94.9054 48.7471C94.9054 43.3877 102.395 39.0431 111.634 39.0431C120.873 39.0431 128.363 43.3877 128.363 48.7471C128.363 54.1065 120.873 58.4511 111.634 58.4511Z" fill="#D0FFFB"></path><path d="M94.9052 42.3486C94.9052 39.8426 96.5513 37.3899 99.7914 35.4705C106.324 31.6848 116.893 31.6848 123.425 35.4705C126.664 37.3899 128.31 39.8426 128.31 42.3486V47.6805C128.31 50.1865 126.664 52.6392 123.425 54.5586C116.893 58.3443 106.324 58.3443 99.7914 54.5586C96.5513 52.6392 94.9052 50.1865 94.9052 47.6805V42.3486Z" fill="#9DECE6"></path><path d="M111.634 52.0532C102.395 52.0532 94.9054 47.7086 94.9054 42.3492C94.9054 36.9898 102.395 32.6451 111.634 32.6451C120.873 32.6451 128.363 36.9898 128.363 42.3492C128.363 47.7086 120.873 52.0532 111.634 52.0532Z" fill="#D0FFFB"></path><path d="M94.9052 35.9503C94.9052 33.4443 96.5513 30.9916 99.7914 29.0721C106.324 25.2865 116.893 25.2865 123.425 29.0721C126.664 30.9916 128.31 33.4443 128.31 35.9503V41.2822C128.31 43.7882 126.664 46.2408 123.425 48.1603C116.893 51.946 106.324 51.946 99.7914 48.1603C96.5513 46.2408 94.9052 43.7882 94.9052 41.2822V35.9503Z" fill="#9DECE6"></path><path d="M111.634 45.6546C102.395 45.6546 94.9054 41.31 94.9054 35.9506C94.9054 30.5911 102.395 26.2465 111.634 26.2465C120.873 26.2465 128.363 30.5911 128.363 35.9506C128.363 41.31 120.873 45.6546 111.634 45.6546Z" fill="#D0FFFB"></path><path d="M94.9052 29.5521C94.9052 27.0461 96.5513 24.5934 99.7914 22.674C106.324 18.8883 116.893 18.8883 123.425 22.674C126.664 24.5934 128.31 27.0461 128.31 29.5521V34.884C128.31 37.39 126.664 39.8426 123.425 41.7621C116.893 45.5478 106.324 45.5478 99.7914 41.7621C96.5513 39.8426 94.9052 37.39 94.9052 34.884V29.5521Z" fill="#9DECE6"></path><path d="M111.634 39.2563C102.395 39.2563 94.9054 34.9117 94.9054 29.5523C94.9054 24.1929 102.395 19.8483 111.634 19.8483C120.873 19.8483 128.363 24.1929 128.363 29.5523C128.363 34.9117 120.873 39.2563 111.634 39.2563Z" fill="#D0FFFB"></path><path d="M94.9052 23.1538C94.9052 20.6478 96.5513 18.1951 99.7914 16.2756C106.324 12.49 116.893 12.49 123.425 16.2756C126.664 18.1951 128.31 20.6478 128.31 23.1538V28.4857C128.31 30.9916 126.664 33.4443 123.425 35.3638C116.893 39.1495 106.324 39.1495 99.7914 35.3638C96.5513 33.4443 94.9052 30.9916 94.9052 28.4857V23.1538Z" fill="#9DECE6"></path><path d="M111.634 32.8584C102.395 32.8584 94.9054 28.5138 94.9054 23.1544C94.9054 17.795 102.395 13.4503 111.634 13.4503C120.873 13.4503 128.363 17.795 128.363 23.1544C128.363 28.5138 120.873 32.8584 111.634 32.8584Z" fill="#D0FFFB"></path><path d="M94.9052 16.7555C94.9052 14.2495 96.5513 11.7968 99.7914 9.87734C106.324 6.09167 116.893 6.09167 123.425 9.87734C126.664 11.7968 128.31 14.2495 128.31 16.7555V22.0874C128.31 24.5933 126.664 27.046 123.425 28.9655C116.893 32.7512 106.324 32.7512 99.7914 28.9655C96.5513 27.046 94.9052 24.5933 94.9052 22.0874V16.7555Z" fill="#9DECE6"></path><path d="M111.634 26.4598C102.395 26.4598 94.9054 22.1151 94.9054 16.7557C94.9054 11.3963 102.395 7.05164 111.634 7.05164C120.873 7.05164 128.363 11.3963 128.363 16.7557C128.363 22.1151 120.873 26.4598 111.634 26.4598Z" fill="#D0FFFB"></path><path d="M94.9052 10.3571C94.9052 7.85116 96.5513 5.39849 99.7914 3.479C106.324 -0.306641 116.893 -0.306641 123.425 3.479C126.664 5.39849 128.31 7.85116 128.31 10.3571V15.6891C128.31 18.1951 126.664 20.6477 123.425 22.5672C116.893 26.3529 106.324 26.3529 99.7914 22.5672C96.5513 20.6477 94.9052 18.1951 94.9052 15.6891V10.3571Z" fill="#9DECE6"></path><path d="M111.634 20.0616C102.395 20.0616 94.9054 15.7169 94.9054 10.3575C94.9054 4.9981 102.395 0.653442 111.634 0.653442C120.873 0.653442 128.363 4.9981 128.363 10.3575C128.363 15.7169 120.873 20.0616 111.634 20.0616Z" fill="#D0FFFB"></path><path d="M105.526 76.4728C105.526 73.9668 107.172 71.5141 110.412 69.5946C116.945 65.809 127.513 65.809 134.045 69.5946C137.285 71.5141 138.931 73.9668 138.931 76.4728V81.8047C138.931 84.3107 137.285 86.7634 134.045 88.6829C127.513 92.4685 116.945 92.4685 110.412 88.6829C107.172 86.7634 105.526 84.3107 105.526 81.8047V76.4728Z" fill="#9DECE6"></path><path d="M122.255 86.1766C113.016 86.1766 105.527 81.832 105.527 76.4726C105.527 71.1132 113.016 66.7686 122.255 66.7686C131.495 66.7686 138.984 71.1132 138.984 76.4726C138.984 81.832 131.495 86.1766 122.255 86.1766Z" fill="#D0FFFB"></path><path d="M105.526 70.0745C105.526 67.5685 107.172 65.1158 110.412 63.1963C116.945 59.4106 127.513 59.4106 134.045 63.1963C137.285 65.1158 138.931 67.5685 138.931 70.0745V75.4063C138.931 77.9123 137.285 80.365 134.045 82.2845C127.513 86.0701 116.945 86.0701 110.412 82.2845C107.172 80.365 105.526 77.9123 105.526 75.4063V70.0745Z" fill="#9DECE6"></path><path d="M122.255 79.7785C113.016 79.7785 105.527 75.4339 105.527 70.0745C105.527 64.7151 113.016 60.3704 122.255 60.3704C131.495 60.3704 138.984 64.7151 138.984 70.0745C138.984 75.4339 131.495 79.7785 122.255 79.7785Z" fill="#D0FFFB"></path><path d="M105.526 63.6763C105.526 61.1703 107.172 58.7176 110.412 56.7981C116.945 53.0125 127.513 53.0125 134.045 56.7981C137.285 58.7176 138.931 61.1703 138.931 63.6763V69.0081C138.931 71.5141 137.285 73.9668 134.045 75.8863C127.513 79.6719 116.945 79.6719 110.412 75.8863C107.172 73.9668 105.526 71.5141 105.526 69.0081V63.6763Z" fill="#9DECE6"></path><path d="M122.255 73.3802C113.016 73.3802 105.527 69.0356 105.527 63.6762C105.527 58.3168 113.016 53.972 122.255 53.972C131.495 53.972 138.984 58.3168 138.984 63.6762C138.984 69.0356 131.495 73.3802 122.255 73.3802Z" fill="#D0FFFB"></path><path d="M105.526 57.2778C105.526 54.7718 107.172 52.3191 110.412 50.3997C116.945 46.614 127.513 46.614 134.045 50.3997C137.285 52.3191 138.931 54.7718 138.931 57.2778V62.6098C138.931 65.1158 137.285 67.5683 134.045 69.4878C127.513 73.2735 116.945 73.2735 110.412 69.4878C107.172 67.5683 105.526 65.1158 105.526 62.6098V57.2778Z" fill="#9DECE6"></path><path d="M122.255 66.9817C113.016 66.9817 105.527 62.6371 105.527 57.2777C105.527 51.9183 113.016 47.5736 122.255 47.5736C131.495 47.5736 138.984 51.9183 138.984 57.2777C138.984 62.6371 131.495 66.9817 122.255 66.9817Z" fill="#D0FFFB"></path><path d="M105.526 50.8796C105.526 48.3736 107.172 45.9209 110.412 44.0015C116.945 40.2158 127.513 40.2158 134.045 44.0015C137.285 45.9209 138.931 48.3736 138.931 50.8796V56.2116C138.931 58.7176 137.285 61.1703 134.045 63.0897C127.513 66.8754 116.945 66.8754 110.412 63.0897C107.172 61.1703 105.526 58.7176 105.526 56.2116V50.8796Z" fill="#9DECE6"></path><path d="M122.255 60.5837C113.016 60.5837 105.527 56.2389 105.527 50.8795C105.527 45.5202 113.016 41.1755 122.255 41.1755C131.495 41.1755 138.984 45.5202 138.984 50.8795C138.984 56.2389 131.495 60.5837 122.255 60.5837Z" fill="#D0FFFB"></path><path d="M105.527 44.4813C105.527 41.9753 107.173 39.5228 110.413 37.6033C116.946 33.8176 127.514 33.8176 134.046 37.6033C137.286 39.5228 138.932 41.9753 138.932 44.4813V49.8133C138.932 52.3193 137.286 54.772 134.046 56.6914C127.514 60.4771 116.946 60.4771 110.413 56.6914C107.173 54.772 105.527 52.3193 105.527 49.8133V44.4813Z" fill="#9DECE6"></path><path d="M122.255 54.1859C113.016 54.1859 105.527 49.8412 105.527 44.4818C105.527 39.1224 113.016 34.7778 122.255 34.7778C131.495 34.7778 138.984 39.1224 138.984 44.4818C138.984 49.8412 131.495 54.1859 122.255 54.1859Z" fill="#D0FFFB"></path><path d="M73.1303 71.1409C73.1303 68.6349 74.7764 66.1822 78.0155 64.2627C84.5478 60.477 95.1167 60.477 101.649 64.2627C104.889 66.1822 106.535 68.6349 106.535 71.1409V76.4728C106.535 78.9787 104.889 81.4314 101.649 83.3509C95.1167 87.1365 84.5478 87.1365 78.0155 83.3509C74.7764 81.4314 73.1303 78.9787 73.1303 76.4728V71.1409Z" fill="#9DECE6"></path><path d="M89.8589 80.8455C80.6195 80.8455 73.1295 76.5009 73.1295 71.1415C73.1295 65.7821 80.6195 61.4375 89.8589 61.4375C99.0983 61.4375 106.588 65.7821 106.588 71.1415C106.588 76.5009 99.0983 80.8455 89.8589 80.8455Z" fill="#D0FFFB"></path><path d="M73.1303 64.7427C73.1303 62.2367 74.7764 59.784 78.0155 57.8645C84.5478 54.0789 95.1167 54.0789 101.649 57.8645C104.889 59.784 106.535 62.2367 106.535 64.7427V70.0745C106.535 72.5805 104.889 75.0332 101.649 76.9527C95.1167 80.7383 84.5478 80.7383 78.0155 76.9527C74.7764 75.0332 73.1303 72.5805 73.1303 70.0745V64.7427Z" fill="#9DECE6"></path><path d="M89.8589 74.4465C80.6195 74.4465 73.1295 70.1019 73.1295 64.7425C73.1295 59.3831 80.6195 55.0385 89.8589 55.0385C99.0983 55.0385 106.588 59.3831 106.588 64.7425C106.588 70.1019 99.0983 74.4465 89.8589 74.4465Z" fill="#D0FFFB"></path><path d="M73.1303 58.3443C73.1303 55.8384 74.7764 53.3857 78.0155 51.4662C84.5478 47.6805 95.1167 47.6805 101.649 51.4662C104.889 53.3857 106.535 55.8384 106.535 58.3443V63.6762C106.535 66.1822 104.889 68.6349 101.649 70.5543C95.1167 74.34 84.5478 74.34 78.0155 70.5543C74.7764 68.6349 73.1303 66.1822 73.1303 63.6762V58.3443Z" fill="#9DECE6"></path><path d="M89.8589 68.0481C80.6195 68.0481 73.1295 63.7035 73.1295 58.3441C73.1295 52.9847 80.6195 48.64 89.8589 48.64C99.0983 48.64 106.588 52.9847 106.588 58.3441C106.588 63.7035 99.0983 68.0481 89.8589 68.0481Z" fill="#D0FFFB"></path><path d="M73.1303 51.946C73.1303 49.44 74.7764 46.9874 78.0155 45.0679C84.5478 41.2822 95.1167 41.2822 101.649 45.0679C104.889 46.9874 106.535 49.44 106.535 51.946V57.2779C106.535 59.7839 104.889 62.2366 101.649 64.156C95.1167 67.9417 84.5478 67.9417 78.0155 64.156C74.7764 62.2366 73.1303 59.7839 73.1303 57.2779V51.946Z" fill="#9DECE6"></path><path d="M89.8589 61.6507C80.6195 61.6507 73.1295 57.306 73.1295 51.9466C73.1295 46.5872 80.6195 42.2426 89.8589 42.2426C99.0983 42.2426 106.588 46.5872 106.588 51.9466C106.588 57.306 99.0983 61.6507 89.8589 61.6507Z" fill="#D0FFFB"></path><path d="M73.1303 45.5477C73.1303 43.0417 74.7764 40.5892 78.0155 38.6697C84.5478 34.884 95.1167 34.884 101.649 38.6697C104.889 40.5892 106.535 43.0417 106.535 45.5477V50.8797C106.535 53.3857 104.889 55.8384 101.649 57.7578C95.1167 61.5435 84.5478 61.5435 78.0155 57.7578C74.7764 55.8384 73.1303 53.3857 73.1303 50.8797V45.5477Z" fill="#9DECE6"></path><path d="M89.8589 55.2514C80.6195 55.2514 73.1295 50.9068 73.1295 45.5474C73.1295 40.188 80.6195 35.8433 89.8589 35.8433C99.0983 35.8433 106.588 40.188 106.588 45.5474C106.588 50.9068 99.0983 55.2514 89.8589 55.2514Z" fill="#D0FFFB"></path><path d="M142.17 55.1451C142.17 52.6391 143.817 50.1865 147.056 48.267C153.589 44.4813 164.157 44.4813 170.69 48.267C173.929 50.1865 175.576 52.6391 175.576 55.1451V60.4771C175.576 62.9831 173.929 65.4358 170.69 67.3552C164.157 71.1409 153.589 71.1409 147.056 67.3552C143.817 65.4358 142.17 62.9831 142.17 60.4771V55.1451Z" fill="#9DECE6"></path><path d="M158.9 64.8491C149.661 64.8491 142.171 60.5045 142.171 55.1451C142.171 49.7857 149.661 45.441 158.9 45.441C168.139 45.441 175.629 49.7857 175.629 55.1451C175.629 60.5045 168.139 64.8491 158.9 64.8491Z" fill="#D0FFFB"></path><g opacity="0.25"><path opacity="0.25" d="M95.9141 229.712L156.936 194.361C162.141 191.322 161.503 186.043 155.449 182.577L121.194 162.743C115.193 159.277 106.058 158.851 100.853 161.89L39.8326 197.24C34.6279 200.279 35.2651 205.558 41.3195 209.024L75.5739 228.859C81.5751 232.377 90.7103 232.75 95.9141 229.712Z" fill="black"></path></g><path d="M36.3264 199.48C36.3795 197.614 37.5486 195.853 39.8319 194.521L100.854 159.171C106.058 156.131 115.193 156.504 121.194 160.024L155.449 179.858C158.741 181.777 160.441 184.231 160.441 186.576V189.402C160.388 191.269 159.219 193.028 156.936 194.361L95.9144 229.712C90.7096 232.75 81.5754 232.377 75.5741 228.859L41.3187 209.024C38.0265 207.104 36.3264 204.652 36.3264 202.305V199.48Z" fill="url(#paint2_linear)"></path><path d="M95.9141 227.045L156.936 191.695C162.141 188.655 161.503 183.378 155.449 179.912L121.194 160.077C115.193 156.611 106.058 156.184 100.853 159.224L39.8326 194.574C34.6279 197.614 35.2651 202.892 41.3195 206.358L75.5739 226.192C81.5751 229.712 90.7103 230.085 95.9141 227.045Z" fill="url(#paint3_linear)"></path><path opacity="0.25" d="M54.1176 213.769L134.045 167.488L124.061 161.676L44.1328 208.01L54.1176 213.769Z" fill="black"></path><path opacity="0.5" d="M54.1177 213.769V216.435L44.1339 210.677V208.01L54.1177 213.769Z" fill="black"></path></g><defs><linearGradient id="paint0_linear" x1="0.19863" y1="47.2463" x2="74.749" y2="-62.3949" gradientUnits="userSpaceOnUse"><stop stop-color="#255C8C"></stop><stop offset="1" stop-color="#3CB6C9"></stop></linearGradient><linearGradient id="paint1_linear" x1="0.198726" y1="68.2483" x2="235.999" y2="68.2483" gradientUnits="userSpaceOnUse"><stop stop-color="#366FA1"></stop><stop offset="1" stop-color="#65DCEE"></stop></linearGradient><linearGradient id="paint2_linear" x1="36.3136" y1="180.205" x2="71.7693" y2="124.088" gradientUnits="userSpaceOnUse"><stop stop-color="#255C8C"></stop><stop offset="1" stop-color="#3CB6C9"></stop></linearGradient><linearGradient id="paint3_linear" x1="36.3133" y1="193.08" x2="160.587" y2="193.08" gradientUnits="userSpaceOnUse"><stop stop-color="#366FA1"></stop><stop offset="1" stop-color="#65DCEE"></stop></linearGradient><clipPath id="clip0"><rect width="236" height="232" transform="matrix(-1 0 0 1 236 0)" fill="white"></rect></clipPath></defs></svg>