<svg xmlns="http://www.w3.org/2000/svg" width="216" height="264" viewBox="0 0 216 264" fill="none"><g clip-path="url(#clip0)"><path d="M214.881 41.2474C170.493 41.2474 136.487 28.377 107.731 0C78.9785 28.377 44.9741 41.2474 0.589564 41.2474C0.589564 115.147 -14.4779 221.008 107.731 264C229.948 221.009 214.881 115.148 214.881 41.2474Z" fill="url(#paint0_linear)"></path><mask id="mask0" maskUnits="userSpaceOnUse" x="0" y="2" width="216" height="262"><path d="M214.902 46.2291C214.88 43.4678 212.638 41.2537 209.877 41.1917C169.712 40.2893 138.189 28.3838 111.298 3.41525C109.293 1.55382 106.169 1.55392 104.164 3.41546C77.277 28.3838 45.7559 40.2892 5.59405 41.1917C2.83332 41.2537 0.590683 43.4678 0.568844 46.2291C-0.0132458 119.829 -11.7574 221.965 107.731 264C227.227 221.966 215.484 119.83 214.902 46.2291Z" fill="url(#paint1_linear)"></path></mask><g mask="url(#mask0)"><path d="M180.292 184.8C180.292 174.472 171.954 166.1 161.668 166.1H53.8031C43.5177 166.1 35.1792 174.472 35.1792 184.8V264.664C35.1792 303.178 66.274 334.4 104.631 334.4H110.84C149.197 334.4 180.292 303.178 180.292 264.664V184.8Z" fill="url(#paint2_linear)"></path><path d="M161.603 184.8C161.603 174.472 153.269 166.1 142.988 166.1H53.7941C43.5131 166.1 35.179 174.472 35.179 184.8V270.898C35.179 305.969 63.4804 334.4 98.391 334.4C133.302 334.4 161.603 305.969 161.603 270.898V184.8Z" fill="url(#paint3_linear)"></path><path fill-rule="evenodd" clip-rule="evenodd" d="M127.524 192L83.5753 236.5L60.4639 213.098L68.8041 204.798L83.5753 219.756L119.183 183.7L127.524 192Z" fill="#ADD6D4"></path><path d="M82.5155 61.6H126.748C145.177 61.6 160.116 76.5627 160.116 95.02V126.885C160.116 145.343 145.177 160.305 126.748 160.305H82.5155C64.0873 160.305 49.1472 145.343 49.1472 126.885V95.02C49.1472 76.5627 64.0873 61.6 82.5155 61.6Z" fill="url(#paint4_linear)"></path><path d="M81.7397 65.486H108.9C124.757 65.486 137.612 78.3609 137.612 94.2428V127.663C137.612 143.545 124.757 156.419 108.9 156.419H81.7397C65.8828 156.419 53.0282 143.545 53.0282 127.663V94.2428C53.0282 78.3609 65.8828 65.486 81.7397 65.486Z" fill="#CCFBF6"></path><path d="M81.7396 74.0352H104.243C116.672 74.0352 126.748 84.1263 126.748 96.5742V125.331C126.748 137.778 116.672 147.87 104.243 147.87H81.7396C69.3105 147.87 59.235 137.778 59.235 125.331V96.5742C59.235 84.1263 69.3105 74.0352 81.7396 74.0352Z" fill="black"></path><path d="M104.243 103.569C104.243 100.994 106.328 98.9061 108.899 98.9061C111.471 98.9061 113.555 100.994 113.555 103.569V116.005C113.555 118.58 111.471 120.668 108.899 120.668C106.328 120.668 104.243 118.58 104.243 116.005V103.569Z" fill="#28BEB2"></path><path d="M64.6665 103.569C64.6665 100.994 66.7519 98.9061 69.3233 98.9061C71.8947 98.9061 73.979 100.994 73.979 103.569V116.005C73.979 118.58 71.8947 120.668 69.3233 120.668C66.7519 120.668 64.6665 118.58 64.6665 116.005V103.569Z" fill="#28BEB2"></path><path d="M149.252 126.885C145.823 126.885 143.044 119.753 143.044 110.953C143.044 102.153 145.823 95.02 149.252 95.02C152.681 95.02 155.46 102.153 155.46 110.953C155.46 119.753 152.681 126.885 149.252 126.885Z" fill="#ADD6D4"></path><path d="M150.027 126.885C146.599 126.885 143.819 119.753 143.819 110.953C143.819 102.153 146.599 95.02 150.027 95.02C153.456 95.02 156.235 102.153 156.235 110.953C156.235 119.753 153.456 126.885 150.027 126.885Z" fill="#C4C4C4"></path><path d="M150.027 126.885C146.599 126.885 143.819 119.753 143.819 110.953C143.819 102.153 146.599 95.02 150.027 95.02C153.456 95.02 156.235 102.153 156.235 110.953C156.235 119.753 153.456 126.885 150.027 126.885Z" fill="url(#paint5_linear)"></path><path d="M81.7398 74.8123H104.243C116.244 74.8123 125.972 84.5555 125.972 96.5742V125.331C125.972 137.349 116.244 147.093 104.243 147.093H81.7398C69.7394 147.093 60.0114 137.349 60.0114 125.331V96.5742C60.0114 84.5555 69.7394 74.8123 81.7398 74.8123Z" fill="url(#paint6_linear)" fill-opacity="0.35"></path></g></g><defs><linearGradient id="paint0_linear" x1="8.20506" y1="49.2057" x2="178.538" y2="268.281" gradientUnits="userSpaceOnUse"><stop stop-color="#3874A4"></stop><stop offset="1" stop-color="#64DAEC"></stop></linearGradient><linearGradient id="paint1_linear" x1="8.20506" y1="49.2057" x2="178.538" y2="268.281" gradientUnits="userSpaceOnUse"><stop stop-color="#3874A4"></stop><stop offset="1" stop-color="#64DAEC"></stop></linearGradient><linearGradient id="paint2_linear" x1="20.0446" y1="250.25" x2="86.5798" y2="339.989" gradientUnits="userSpaceOnUse"><stop stop-color="#D1F9F9"></stop><stop offset="1" stop-color="#ADD6D4"></stop></linearGradient><linearGradient id="paint3_linear" x1="35.179" y1="166.1" x2="22.812" y2="323.495" gradientUnits="userSpaceOnUse"><stop stop-color="#DBFFFF"></stop><stop offset="1" stop-color="#9BDCD9"></stop></linearGradient><linearGradient id="paint4_linear" x1="49.1472" y1="61.6" x2="147.18" y2="171.812" gradientUnits="userSpaceOnUse"><stop stop-color="#CFFFFA"></stop><stop offset="1" stop-color="#ADD6D4"></stop></linearGradient><linearGradient id="paint5_linear" x1="143.819" y1="103.181" x2="167.076" y2="107.794" gradientUnits="userSpaceOnUse"><stop stop-color="#CFFFFA"></stop><stop offset="1" stop-color="#ADD6D4"></stop></linearGradient><linearGradient id="paint6_linear" x1="60.0114" y1="74.8123" x2="131.99" y2="140.497" gradientUnits="userSpaceOnUse"><stop stop-color="white"></stop><stop offset="1" stop-color="white" stop-opacity="0"></stop></linearGradient><clipPath id="clip0"><path d="M0 0H215.471V264H0V0Z" fill="white"></path></clipPath></defs></svg>