<svg xmlns="http://www.w3.org/2000/svg" width="162" height="27" viewBox="0 0 162 27" fill="none"><path fill-rule="evenodd" clip-rule="evenodd" d="M5.40989 13.4153C4.54343 12.0399 4.35538 10.2114 4.35538 8.8084C4.35538 4.03204 8.62504 0 13.0744 0H27.0144L21.6036 5.45435H12.9786C9.51087 5.45435 5.31587 8.96776 5.40989 13.4153ZM10.7267 9.50481C11.0843 8.35517 12.2071 6.88588 13.2625 6.113C11.2447 6.113 8.97347 7.07472 7.23869 9.50481H10.7267ZM13.5169 6.79284C12.7251 7.49018 11.8577 8.54494 11.4143 9.50481H15.6001C15.1577 8.54494 14.2903 7.49018 13.5169 6.79284ZM6.89026 10.2123C6.37223 11.1445 6.11782 12.2002 6.0238 13.2559H9.93488C9.93488 12.2002 10.1238 11.1445 10.4723 10.2123H6.89026ZM11.1507 10.2123C10.8032 11.1445 10.6419 12.2002 10.5479 13.2559H16.4675C16.3735 12.2002 16.2131 11.1445 15.8647 10.2123H11.1507ZM19.7002 9.50481C18.041 7.07472 15.7688 6.113 13.7805 6.113C14.8074 6.88588 15.8637 8.35517 16.3071 9.50481H19.7002ZM16.5624 10.2123C16.9201 11.1445 17.0796 12.2002 17.0796 13.2559H20.9925C20.9261 12.2002 20.6625 11.1445 20.1251 10.2123H16.5624ZM7.23962 17.5136C8.97347 20.0469 11.2447 20.9119 13.2634 20.9119C12.2071 20.1114 11.0853 18.643 10.7276 17.5136H7.23962ZM13.5169 20.3011C14.2893 19.6047 15.1567 18.4735 15.6001 17.5145H11.4143C11.8577 18.4726 12.7251 19.6047 13.5169 20.3011ZM10.4714 16.9093C10.1238 15.8546 9.93396 14.8182 9.93396 13.8666H6.02287C6.11689 14.8938 6.3713 15.9485 6.88934 16.9093H10.4714ZM15.8637 16.9093C16.2122 15.9485 16.3726 14.8938 16.4666 13.8666H10.5469C10.6419 14.8938 10.8023 15.9485 11.1498 16.9093H15.8637ZM16.3071 17.5136C15.8637 18.6439 14.8083 20.1114 13.7805 20.9119C15.7688 20.9119 18.041 20.0469 19.7002 17.5136H16.3071ZM20.1242 16.9093C20.6616 15.9485 20.9261 14.8938 20.9916 13.8666H17.0786C17.0786 14.8182 16.9192 15.8546 16.5615 16.9093H20.1242ZM21.6036 13.5092C21.6986 18.1244 17.5239 21.6092 14.0349 21.6092H5.40989L0 27H13.9418C18.3912 27 22.6609 22.9965 22.6609 18.222C22.6609 16.8172 22.4913 14.9886 21.6045 13.6041V13.5092H21.6036ZM153.908 5.72518H157.382V6.23828H155.933V10.0041H155.357V6.23828H153.908V5.72518ZM161.439 10.0041V7.47635C161.439 7.35199 161.452 6.8085 161.452 6.41054H161.439L160.236 10.0041H159.663L158.459 6.41607H158.446C158.446 6.8085 158.459 7.35199 158.459 7.47543V10.0032H157.897V5.72333H158.727L159.947 9.34084H159.962L161.177 5.72333H162V10.0032H161.439V10.0041ZM62.3608 20.8962C58.7382 20.8962 56.1444 18.7213 56.1444 15.3184C56.1444 11.9579 58.8322 9.72221 62.3608 9.72221C65.8894 9.72221 68.5763 11.9432 68.5763 15.3184C68.5754 18.7213 65.9603 20.8962 62.3608 20.8962ZM124.298 9.98291V20.6724H120.682L120.628 19.5946H120.549C120.149 19.9548 119.315 20.9082 116.984 20.9082C114.4 20.9082 112.138 18.6623 112.138 15.3166C112.138 12.2131 114.143 9.73511 117.224 9.73511C119.317 9.73511 120.173 10.6563 120.493 10.9511H120.589L120.625 9.98383H124.298V9.98291ZM96.4047 9.9866V20.6761H92.7895L92.7351 19.5964H92.6577C92.2558 19.9584 91.4225 20.91 89.0913 20.91C86.5076 20.91 84.2428 18.666 84.2428 15.3221C84.2428 12.2168 86.2504 9.73879 89.331 9.73879C91.4243 9.73879 92.2797 10.6609 92.6005 10.9548H92.6964L92.7323 9.9866H96.4047ZM78.8486 9.99488H82.5753V20.6908H78.8486V9.99488ZM98.8022 20.6678V5.59437H102.516V10.7595H102.558C102.818 10.5964 104.021 9.73419 105.787 9.73419C108.679 9.73419 110.805 12.0565 110.805 15.1314C110.805 18.9709 108.448 20.9054 105.763 20.9054C103.735 20.9054 102.703 19.9631 102.449 19.6876H102.39L102.335 20.6678H98.8022ZM62.3608 18.2211C63.8725 18.2211 64.7611 16.8964 64.7611 15.3193C64.7611 13.7202 63.9149 12.3964 62.3608 12.3964C60.7376 12.3964 59.9605 13.7202 59.9605 15.3193C59.9605 16.8964 60.8509 18.2211 62.3608 18.2211ZM77.0437 17.7623C76.8612 17.8148 76.3598 17.942 76.015 17.942C75.261 17.942 74.437 17.591 74.437 16.2829V12.67H76.7764V9.98291H74.437V6.54135H70.7167V9.98291H69.0898V12.67H70.7167V16.8983C70.7167 19.2224 71.7961 20.8907 74.5485 20.8907C75.3468 20.8907 76.0814 20.7829 76.5847 20.6871L77.0437 17.7623ZM34.7361 20.279C35.7768 20.5941 37.3567 20.8833 39.0353 20.8833C42.2099 20.8833 45.379 19.7585 45.379 16.2755C45.379 11.4946 38.7818 12.1569 38.7818 10.2501C38.7818 9.27451 39.7958 9.06449 40.7894 9.06449C42.1684 9.06449 43.9124 9.72498 44.2995 9.88342L44.5991 6.59017C43.6368 6.26223 42.1749 6.07707 40.8023 6.07707C37.6674 6.07707 34.5748 7.29949 34.5748 10.403C34.5748 15.101 41.1545 14.12 41.1545 16.5851C41.1545 17.533 40.2069 17.8931 38.9984 17.8931C37.3374 17.8931 35.7768 17.0641 35.1002 16.7628L34.7361 20.279ZM116.075 15.218C116.075 16.9849 117.064 18.0894 118.342 18.0894C119.5 18.0894 120.627 17.006 120.627 15.3636C120.627 13.7063 119.628 12.5742 118.342 12.5742C117.009 12.5742 116.075 13.7607 116.075 15.218ZM88.1825 15.2235C88.1825 16.9904 89.1706 18.0949 90.4491 18.0949C91.6069 18.0949 92.7351 17.0116 92.7351 15.3691C92.7351 13.7137 91.7341 12.5807 90.4491 12.5807C89.1171 12.5807 88.1825 13.7662 88.1825 15.2235ZM55.1959 10.1524C54.9184 10.075 53.8961 9.72405 52.5421 9.72405C49.1905 9.72405 46.6786 11.8198 46.6786 15.312C46.6786 18.4836 48.9342 20.8999 52.3937 20.8999C53.8667 20.8999 54.9497 20.5056 55.1968 20.4319L55.0152 17.3156C54.7294 17.4455 53.9865 17.8701 53.1311 17.8701C51.6304 17.8701 50.5335 16.8071 50.5335 15.312C50.5335 13.7414 51.7069 12.7308 53.1753 12.7308C54.0022 12.7308 54.7396 13.1159 55.0152 13.2522L55.1959 10.1524ZM140.149 20.677H143.859V15.7311H143.899L147.195 20.677H151.324L147.347 15.0117L151.224 10.0032H147.099L143.899 14.4092H143.859V5.60819H140.149V20.677ZM126.702 20.677H130.323V15.1554C130.323 13.8602 131.182 12.9758 132.278 12.9758C133.533 12.9758 134.244 13.7902 134.244 15.1554V20.677H137.865V14.2416C137.865 11.8188 136.303 9.74524 133.44 9.74524C131.528 9.74524 130.532 10.7834 130.079 11.1924H130.003L129.966 10.0087H126.703V20.677H126.702ZM80.7124 4.58106C80.1588 4.58349 79.6285 4.80442 79.2371 5.19573C78.8458 5.58704 78.6249 6.11704 78.6227 6.67032C78.6252 7.22334 78.8461 7.75302 79.2375 8.14399C79.6289 8.53496 80.159 8.75555 80.7124 8.75773C81.2659 8.75579 81.7963 8.53531 82.1879 8.14431C82.5795 7.75332 82.8006 7.2235 82.803 6.67032C82.8008 6.11688 82.5798 5.58674 82.1883 5.19541C81.7967 4.80407 81.2662 4.58325 80.7124 4.58106ZM106.953 15.3221C106.953 13.8934 106.137 12.6221 104.716 12.6221C103.465 12.6221 102.461 13.6898 102.461 15.3221C102.461 16.9056 103.284 18.0295 104.716 18.0295C106.01 18.0304 106.953 16.9581 106.953 15.3221Z" fill="#CC2229"></path></svg>