<svg xmlns="http://www.w3.org/2000/svg" width="259" height="259" viewBox="0 0 259 259" fill="none"><g clip-path="url(#clip0)"><path d="M253.114 237.472L81.3652 138.757V3.38257L253.114 102.098V237.472Z" fill="url(#paint0_linear)"></path><path fill-rule="evenodd" clip-rule="evenodd" d="M81.3652 3.38254L253.114 102.098L253.115 102.098V237.462L259 234.074V98.6997L258.991 98.705L87.2503 0L81.3652 3.38254Z" fill="url(#paint1_linear)"></path><path opacity="0.02" d="M258.999 115.457L253.114 118.84V102.087L258.999 98.6997V115.457Z" fill="black"></path><path d="M253.114 118.85L81.3652 20.1399V3.38257L253.114 102.098V118.85Z" fill="#2D5D80"></path><path d="M162.003 85.5909C151.503 79.5411 142.999 84.4473 142.999 96.5469C142.999 108.646 151.54 123.358 162.003 129.408C172.465 135.457 180.999 130.559 180.999 118.459C180.999 106.359 172.495 91.6407 162.003 85.5909ZM158.515 116.747L150.144 102.272L152.937 100.671L158.515 110.314L171.076 103.076L173.869 107.901L158.515 116.747Z" fill="#D0FFFB"></path><path d="M139.958 130.148C139.906 130.063 139.814 129.926 139.676 129.743C139.518 129.537 139.349 129.341 139.169 129.154C138.972 128.944 138.762 128.735 138.512 128.532C138.293 128.343 138.057 128.175 137.808 128.028C137.534 127.824 137.195 127.726 136.855 127.753C136.651 127.812 136.546 128.002 136.546 128.329C136.545 128.514 136.585 128.698 136.664 128.866C136.755 129.052 136.867 129.228 136.999 129.389C137.177 129.593 137.366 129.788 137.565 129.972L138.354 130.665C138.742 131.006 139.09 131.32 139.406 131.653C139.704 131.954 139.975 132.28 140.215 132.629C140.428 132.95 140.598 133.297 140.721 133.663C140.843 134.037 140.903 134.428 140.899 134.821C140.923 135.207 140.839 135.592 140.655 135.933C140.586 136.054 140.491 136.158 140.377 136.239C140.264 136.321 140.135 136.377 139.998 136.405C139.683 136.457 139.36 136.432 139.057 136.333C138.671 136.213 138.3 136.048 137.953 135.842C137.317 135.47 136.724 135.032 136.184 134.533C135.608 133.994 135.086 133.4 134.625 132.759L135.283 131.627C135.393 131.805 135.514 131.975 135.645 132.138C135.822 132.36 136.026 132.602 136.269 132.864C136.518 133.136 136.781 133.394 137.058 133.636C137.335 133.883 137.634 134.102 137.953 134.291C138.801 134.775 139.222 134.71 139.222 134.081C139.222 133.878 139.172 133.679 139.077 133.499C138.968 133.283 138.831 133.083 138.67 132.903C138.462 132.674 138.243 132.455 138.012 132.249L137.223 131.457C136.877 131.157 136.548 130.838 136.237 130.502C135.974 130.225 135.74 129.923 135.539 129.599C135.361 129.314 135.219 129.009 135.119 128.689C135.024 128.37 134.978 128.039 134.981 127.707C134.963 127.326 135.039 126.946 135.204 126.601C135.333 126.35 135.554 126.157 135.822 126.065C136.123 125.978 136.442 125.978 136.743 126.065C137.14 126.165 137.521 126.321 137.874 126.529C138.436 126.856 138.953 127.255 139.413 127.714C139.855 128.156 140.264 128.631 140.636 129.134L139.958 130.148Z" fill="#9DECE6"></path><path d="M143.719 139.134C143.126 138.796 142.647 138.291 142.345 137.681C142.018 136.978 141.858 136.21 141.878 135.436V131.228L143.371 132.085V135.92C143.322 136.328 143.387 136.74 143.559 137.113C143.731 137.486 144.002 137.805 144.344 138.034C144.594 138.191 144.892 138.256 145.186 138.217C145.33 138.186 145.465 138.121 145.579 138.028C145.694 137.935 145.784 137.816 145.843 137.681V133.512L147.342 134.369V139.12C147.337 139.268 147.364 139.416 147.421 139.552C147.489 139.667 147.584 139.764 147.698 139.834V141.273C147.57 141.23 147.445 141.179 147.323 141.123L147.053 140.979C146.795 140.831 146.571 140.63 146.396 140.39C146.237 140.167 146.135 139.908 146.1 139.637V139.075C145.981 139.226 145.828 139.348 145.653 139.428C145.478 139.509 145.286 139.547 145.094 139.539C144.608 139.523 144.135 139.383 143.719 139.134Z" fill="#9DECE6"></path><path d="M148.474 138.375C148.463 137.959 148.537 137.545 148.691 137.157C148.808 136.849 149.022 136.587 149.302 136.411C149.596 136.242 149.938 136.173 150.275 136.215C150.731 136.269 151.169 136.423 151.558 136.667C152.19 137.028 152.746 137.508 153.195 138.08C153.628 138.63 153.968 139.247 154.201 139.906L152.741 139.579C152.621 139.269 152.452 138.979 152.241 138.722C152.049 138.481 151.812 138.279 151.544 138.126C151.364 138.011 151.159 137.941 150.946 137.923C150.774 137.913 150.603 137.959 150.459 138.054C150.308 138.169 150.193 138.326 150.131 138.506C150.051 138.748 150.013 139.003 150.019 139.258C150.019 139.559 150.059 139.858 150.137 140.148C150.217 140.436 150.327 140.715 150.466 140.979C150.598 141.23 150.762 141.463 150.953 141.673C151.123 141.866 151.323 142.031 151.544 142.164C151.767 142.301 152.026 142.37 152.287 142.36C152.385 142.357 152.481 142.328 152.564 142.276C152.647 142.224 152.715 142.152 152.761 142.066L154.227 143.42C154.136 143.611 153.996 143.774 153.822 143.895C153.648 144.015 153.445 144.088 153.234 144.107C152.643 144.134 152.059 143.968 151.571 143.636C151.082 143.369 150.638 143.026 150.256 142.622C149.883 142.225 149.559 141.785 149.289 141.313C149.026 140.847 148.817 140.353 148.664 139.841C148.533 139.363 148.469 138.87 148.474 138.375Z" fill="#9DECE6"></path><path d="M154.76 141.987C154.752 141.574 154.823 141.163 154.97 140.776C155.09 140.469 155.304 140.208 155.582 140.03C155.877 139.862 156.217 139.791 156.555 139.827C157.011 139.885 157.449 140.041 157.837 140.285C158.472 140.644 159.029 141.124 159.475 141.699C159.91 142.249 160.252 142.865 160.487 143.525L159.021 143.198C158.902 142.885 158.733 142.593 158.521 142.334C158.338 142.1 158.115 141.898 157.864 141.738C157.681 141.624 157.473 141.557 157.259 141.542C157.086 141.53 156.915 141.576 156.772 141.673C156.622 141.788 156.51 141.945 156.45 142.124C156.364 142.366 156.324 142.621 156.332 142.877C156.331 143.178 156.373 143.478 156.456 143.767C156.534 144.055 156.645 144.334 156.785 144.598C156.917 144.849 157.08 145.082 157.272 145.292C157.441 145.486 157.641 145.652 157.864 145.783C158.083 145.922 158.34 145.99 158.6 145.979C158.699 145.975 158.795 145.945 158.879 145.894C158.963 145.842 159.032 145.77 159.08 145.684L160.54 147.039C160.447 147.229 160.308 147.391 160.134 147.512C159.96 147.632 159.758 147.706 159.547 147.726C158.956 147.752 158.372 147.587 157.883 147.255C157.408 146.979 156.976 146.635 156.601 146.234C156.225 145.838 155.898 145.399 155.628 144.925C155.364 144.463 155.156 143.971 155.01 143.459C154.858 142.983 154.774 142.487 154.76 141.987Z" fill="#9DECE6"></path><path d="M164.137 150.867C163.664 150.596 163.234 150.256 162.861 149.86C162.485 149.466 162.16 149.026 161.895 148.551C161.617 148.093 161.396 147.603 161.237 147.091C161.097 146.622 161.024 146.135 161.02 145.645C161.01 145.225 161.082 144.808 161.23 144.415C161.341 144.095 161.561 143.823 161.851 143.646C162.142 143.47 162.485 143.399 162.822 143.446C163.289 143.501 163.739 143.66 164.137 143.911C164.615 144.179 165.048 144.522 165.419 144.925C165.79 145.322 166.112 145.761 166.379 146.234C166.637 146.69 166.838 147.176 166.977 147.68C167.112 148.144 167.182 148.624 167.188 149.107C167.188 149.218 167.188 149.323 167.188 149.428C167.193 149.508 167.193 149.589 167.188 149.67L162.664 147.052C162.687 147.324 162.745 147.593 162.835 147.851C162.922 148.104 163.036 148.348 163.177 148.577C163.313 148.797 163.474 149.001 163.657 149.186C163.824 149.355 164.012 149.502 164.216 149.624C164.467 149.783 164.76 149.863 165.057 149.853C165.173 149.855 165.286 149.823 165.383 149.762C165.48 149.7 165.557 149.611 165.603 149.506L166.885 150.651C166.78 150.836 166.63 150.992 166.45 151.106C166.271 151.22 166.066 151.288 165.853 151.306C165.248 151.347 164.647 151.194 164.137 150.867ZM165.656 147.687C165.615 147.158 165.448 146.647 165.169 146.195C164.916 145.761 164.556 145.399 164.124 145.141C163.951 145.035 163.759 144.966 163.558 144.938C163.401 144.917 163.241 144.942 163.098 145.01C162.957 145.089 162.843 145.208 162.769 145.351C162.675 145.533 162.623 145.734 162.618 145.94L165.656 147.687Z" fill="#9DECE6"></path><path d="M170.318 154.421C169.793 154.116 169.309 153.747 168.878 153.322C168.419 152.885 168.015 152.395 167.674 151.862L168.233 151.103C168.548 151.549 168.895 151.971 169.272 152.366C169.574 152.676 169.915 152.946 170.285 153.171C170.489 153.317 170.737 153.391 170.988 153.381C171.159 153.348 171.245 153.217 171.245 152.975C171.235 152.712 171.128 152.462 170.942 152.275C170.633 151.941 170.306 151.625 169.963 151.326C169.581 150.992 169.259 150.671 168.989 150.423C168.747 150.195 168.526 149.946 168.332 149.677C168.181 149.462 168.059 149.229 167.97 148.983C167.896 148.748 167.858 148.503 167.858 148.256C167.846 147.971 167.907 147.687 168.036 147.432C168.137 147.234 168.311 147.084 168.523 147.013C168.762 146.949 169.013 146.949 169.252 147.013C169.573 147.09 169.879 147.216 170.16 147.386C170.607 147.644 171.022 147.954 171.396 148.309C171.799 148.701 172.152 149.141 172.448 149.618L171.843 150.311C171.59 149.932 171.301 149.577 170.982 149.251C170.734 148.998 170.453 148.777 170.147 148.597C169.955 148.462 169.723 148.398 169.489 148.413C169.312 148.413 169.233 148.577 169.233 148.839C169.231 148.953 169.252 149.066 169.292 149.173C169.341 149.287 169.408 149.393 169.489 149.487C169.597 149.62 169.714 149.747 169.838 149.866C169.982 150.004 170.166 150.167 170.377 150.351C170.778 150.697 171.127 151.005 171.409 151.3C171.669 151.55 171.905 151.823 172.113 152.118C172.283 152.35 172.418 152.605 172.514 152.877C172.602 153.134 172.646 153.404 172.645 153.675C172.645 154.33 172.435 154.735 171.988 154.873C171.393 154.943 170.795 154.782 170.318 154.421Z" fill="#9DECE6"></path><path d="M175.867 157.634C175.343 157.329 174.859 156.96 174.427 156.535C173.965 156.1 173.559 155.61 173.217 155.075L173.776 154.316C174.095 154.761 174.444 155.183 174.822 155.579C175.124 155.889 175.464 156.16 175.834 156.384C176.039 156.53 176.287 156.604 176.538 156.594C176.709 156.594 176.794 156.43 176.794 156.188C176.783 155.928 176.675 155.681 176.492 155.494C176.18 155.161 175.851 154.845 175.506 154.545C175.131 154.205 174.809 153.891 174.539 153.636C174.297 153.408 174.076 153.158 173.881 152.89C173.728 152.678 173.609 152.444 173.526 152.196C173.452 151.961 173.414 151.716 173.415 151.47C173.403 151.185 173.462 150.902 173.586 150.645C173.688 150.448 173.862 150.299 174.072 150.226C174.311 150.16 174.563 150.16 174.802 150.226C175.125 150.296 175.434 150.42 175.716 150.593C176.161 150.851 176.574 151.161 176.946 151.515C177.35 151.908 177.706 152.347 178.004 152.824L177.399 153.518C177.146 153.137 176.855 152.782 176.531 152.458C176.287 152.203 176.008 151.983 175.703 151.803C175.511 151.67 175.279 151.606 175.045 151.62C174.874 151.62 174.789 151.784 174.789 152.045C174.786 152.16 174.809 152.274 174.855 152.379C174.904 152.492 174.968 152.598 175.045 152.693C175.137 152.805 175.256 152.929 175.4 153.073C175.545 153.217 175.723 153.374 175.94 153.557C176.341 153.904 176.683 154.212 176.972 154.506C177.23 154.758 177.465 155.032 177.676 155.324C177.846 155.556 177.981 155.812 178.077 156.083C178.164 156.34 178.209 156.61 178.208 156.882C178.208 157.536 177.991 157.942 177.551 158.079C177.254 158.119 176.953 158.1 176.664 158.024C176.375 157.948 176.105 157.815 175.867 157.634Z" fill="#9DECE6"></path><path d="M124.696 138.656V141.038L123.999 140.632V134.552L125.972 135.678C126.531 135.991 127 136.442 127.333 136.987C127.648 137.473 127.819 138.038 127.826 138.616C127.826 139.205 127.668 139.572 127.346 139.703C127.107 139.757 126.859 139.756 126.62 139.702C126.381 139.648 126.157 139.541 125.965 139.389L124.696 138.656ZM124.696 138.001L125.945 138.721C126.066 138.815 126.205 138.881 126.354 138.914C126.504 138.947 126.658 138.946 126.807 138.911C127.004 138.819 127.103 138.584 127.103 138.204C127.101 137.837 126.999 137.477 126.807 137.164C126.607 136.83 126.326 136.551 125.991 136.352L124.676 135.613L124.696 138.001Z" fill="#D0FFFB"></path><path d="M130.976 144.663C130.924 144.491 130.891 144.313 130.877 144.133C130.702 144.226 130.504 144.268 130.306 144.253C130.108 144.238 129.918 144.167 129.759 144.048C129.37 143.823 129.043 143.507 128.806 143.126C128.571 142.776 128.441 142.368 128.431 141.948C128.431 141.483 128.589 141.202 128.898 141.123C129.367 141.079 129.835 141.21 130.213 141.49L130.871 141.863V141.509C130.87 141.24 130.798 140.975 130.66 140.743C130.5 140.487 130.273 140.279 130.003 140.141C129.916 140.08 129.818 140.036 129.714 140.012C129.61 139.989 129.503 139.986 129.398 140.004C129.32 140.027 129.253 140.076 129.209 140.143C129.164 140.21 129.145 140.291 129.154 140.37L128.497 139.984C128.491 139.886 128.506 139.787 128.541 139.694C128.576 139.602 128.631 139.518 128.701 139.448C128.779 139.382 128.87 139.332 128.969 139.303C129.067 139.274 129.171 139.265 129.273 139.278C129.551 139.305 129.819 139.397 130.055 139.546C130.488 139.787 130.854 140.131 131.121 140.547C131.372 140.939 131.51 141.392 131.522 141.856V143.937C131.515 144.3 131.561 144.661 131.66 145.01V145.076L130.976 144.663ZM129.858 143.433C130.038 143.543 130.246 143.597 130.456 143.59C130.542 143.586 130.624 143.56 130.696 143.515C130.769 143.471 130.829 143.409 130.871 143.335V142.412L130.345 142.105C129.516 141.633 129.108 141.673 129.108 142.229C129.107 142.474 129.18 142.714 129.319 142.916C129.452 143.131 129.638 143.309 129.858 143.433Z" fill="#D0FFFB"></path><path d="M133.823 145.2L134.744 142.34L135.46 142.752L133.882 147.065C133.639 147.674 133.225 147.824 132.712 147.517L132.587 147.432L132.337 147.235V146.581L132.521 146.705C132.672 146.817 132.86 146.869 133.047 146.849C133.179 146.816 133.284 146.686 133.363 146.45L133.514 146.077L132.113 140.802L132.843 141.228L133.823 145.2Z" fill="#D0FFFB"></path><path d="M136.69 143.433V143.944C136.98 143.721 137.348 143.748 137.861 144.029C138.394 144.327 138.794 144.816 138.979 145.397C139.113 145.257 139.297 145.175 139.492 145.168C139.756 145.169 140.014 145.246 140.235 145.39C140.65 145.62 140.993 145.96 141.225 146.373C141.457 146.785 141.57 147.254 141.55 147.726V150.75L140.892 150.364V147.386C140.9 147.095 140.832 146.806 140.695 146.548C140.538 146.286 140.31 146.073 140.037 145.933C139.951 145.867 139.849 145.824 139.741 145.806C139.633 145.789 139.522 145.799 139.419 145.835C139.328 145.89 139.253 145.968 139.202 146.061C139.151 146.154 139.126 146.259 139.13 146.365V149.363L138.472 148.97V146.012C138.486 145.714 138.415 145.419 138.267 145.159C138.119 144.9 137.901 144.687 137.637 144.546C137.197 144.291 136.894 144.33 136.73 144.67V147.942L136.072 147.556V143.041L136.69 143.433Z" fill="#D0FFFB"></path><path d="M144.212 152.353C143.658 152.032 143.203 151.566 142.897 151.005C142.571 150.423 142.399 149.767 142.397 149.101V148.957C142.382 148.588 142.459 148.222 142.621 147.89C142.681 147.769 142.769 147.663 142.878 147.581C142.986 147.5 143.112 147.444 143.246 147.419C143.552 147.382 143.862 147.454 144.12 147.622C144.632 147.918 145.046 148.357 145.31 148.885C145.602 149.477 145.746 150.13 145.731 150.789V151.116L143.068 149.585C143.079 150.031 143.196 150.469 143.41 150.861C143.598 151.227 143.885 151.533 144.239 151.745C144.414 151.865 144.624 151.927 144.837 151.921C144.999 151.909 145.152 151.842 145.271 151.731L145.685 152.333C145.37 152.726 144.87 152.733 144.212 152.353ZM144.133 148.256C144.04 148.186 143.929 148.144 143.812 148.134C143.696 148.125 143.579 148.149 143.476 148.204C143.366 148.298 143.279 148.414 143.219 148.546C143.16 148.677 143.131 148.819 143.134 148.963L145.107 150.095V150.036C145.095 149.663 145.001 149.296 144.83 148.963C144.67 148.667 144.428 148.421 144.133 148.256Z" fill="#D0FFFB"></path><path d="M147.158 149.448V150.023C147.454 149.762 147.816 149.775 148.335 150.023C148.743 150.259 149.077 150.603 149.298 151.017C149.52 151.431 149.622 151.898 149.591 152.366V155.351L148.934 154.964V151.974C148.936 151.683 148.868 151.396 148.736 151.136C148.596 150.895 148.391 150.698 148.144 150.567C148.062 150.508 147.968 150.466 147.868 150.443C147.769 150.421 147.666 150.418 147.566 150.436C147.484 150.455 147.408 150.492 147.342 150.544C147.276 150.596 147.222 150.662 147.184 150.737V153.957L146.527 153.57V149.055L147.158 149.448Z" fill="#D0FFFB"></path><path d="M151.545 150.867V151.96L152.275 152.386V152.981L151.545 152.562V155.363C151.539 155.524 151.573 155.683 151.643 155.828C151.717 155.967 151.832 156.081 151.972 156.155C152.075 156.21 152.183 156.256 152.294 156.293V156.914C152.114 156.867 151.941 156.794 151.781 156.698C151.5 156.532 151.271 156.289 151.124 155.998C150.969 155.68 150.892 155.33 150.9 154.977V152.176L150.184 151.764V151.168L150.9 151.574V150.481L151.545 150.867Z" fill="#D0FFFB"></path><path d="M156.482 158.773C156.572 158.836 156.674 158.88 156.782 158.899C156.89 158.918 157.001 158.913 157.107 158.884C157.199 158.849 157.278 158.785 157.332 158.703C157.386 158.621 157.413 158.524 157.409 158.426L158.067 158.792C158.067 159.016 157.985 159.233 157.837 159.401C157.763 159.477 157.674 159.537 157.575 159.576C157.477 159.616 157.371 159.634 157.265 159.63C156.996 159.624 156.735 159.545 156.509 159.401C155.962 159.081 155.517 158.614 155.226 158.053C154.907 157.448 154.745 156.773 154.753 156.09V155.959C154.738 155.596 154.81 155.235 154.963 154.905C155.02 154.786 155.104 154.683 155.21 154.605C155.315 154.526 155.438 154.474 155.568 154.454C155.899 154.434 156.228 154.524 156.502 154.709C156.954 154.973 157.332 155.347 157.6 155.795C157.882 156.23 158.043 156.731 158.067 157.248L157.409 156.881C157.387 156.566 157.287 156.261 157.12 155.991C156.962 155.72 156.736 155.494 156.463 155.337C156.121 155.141 155.858 155.128 155.667 155.304C155.443 155.612 155.344 155.993 155.391 156.371V156.515C155.38 156.984 155.475 157.448 155.667 157.876C155.837 158.253 156.123 158.567 156.482 158.773Z" fill="#D0FFFB"></path><path d="M158.62 158.249C158.604 157.88 158.683 157.513 158.85 157.183C158.912 157.058 159.005 156.951 159.12 156.872C159.235 156.793 159.368 156.744 159.507 156.731C159.835 156.705 160.162 156.79 160.435 156.973C160.998 157.3 161.455 157.782 161.75 158.361C162.074 158.965 162.243 159.639 162.243 160.324V160.376C162.258 160.742 162.184 161.106 162.026 161.436C161.963 161.561 161.87 161.667 161.755 161.746C161.64 161.825 161.507 161.874 161.368 161.888C161.038 161.912 160.709 161.824 160.435 161.639C159.871 161.315 159.414 160.836 159.119 160.258C158.79 159.656 158.618 158.981 158.62 158.295V158.249ZM159.277 158.727C159.27 159.204 159.374 159.677 159.58 160.108C159.751 160.491 160.035 160.813 160.395 161.031C160.73 161.227 161.007 161.227 161.204 161.031C161.448 160.711 161.556 160.31 161.506 159.912C161.512 159.434 161.408 158.962 161.204 158.531C161.031 158.147 160.747 157.824 160.389 157.601C160.053 157.412 159.784 157.405 159.58 157.601C159.341 157.926 159.24 158.33 159.297 158.727H159.277Z" fill="#D0FFFB"></path><path d="M163.676 158.943V159.453C163.959 159.231 164.334 159.257 164.84 159.539C165.379 159.836 165.781 160.328 165.965 160.913C166.029 160.842 166.106 160.784 166.193 160.743C166.28 160.703 166.375 160.68 166.471 160.677C166.736 160.677 166.995 160.757 167.214 160.906C167.631 161.133 167.975 161.471 168.207 161.883C168.44 162.295 168.551 162.764 168.529 163.236V166.26L167.871 165.873V162.87C167.878 162.579 167.813 162.291 167.681 162.032C167.524 161.771 167.296 161.56 167.023 161.423C166.935 161.358 166.832 161.314 166.723 161.296C166.615 161.278 166.504 161.286 166.398 161.319C166.307 161.373 166.232 161.451 166.181 161.544C166.131 161.638 166.106 161.743 166.109 161.849V164.846L165.452 164.453V161.495C165.465 161.197 165.392 160.901 165.243 160.641C165.094 160.382 164.875 160.17 164.61 160.029C164.169 159.774 163.867 159.82 163.702 160.154V163.426L163.045 163.04V158.524L163.676 158.943Z" fill="#D0FFFB"></path><path d="M172.889 166.535C172.944 167.046 172.795 167.558 172.475 167.961C172.205 168.223 171.817 168.223 171.364 167.961C170.885 167.687 170.495 167.283 170.239 166.796V168.976L169.582 168.59V162.333L170.193 162.687L170.226 163.204C170.502 162.975 170.884 162.994 171.364 163.276C171.857 163.572 172.249 164.01 172.488 164.532C172.776 165.146 172.917 165.818 172.902 166.495L172.889 166.535ZM172.232 166.063C172.241 165.592 172.145 165.125 171.949 164.696C171.792 164.324 171.52 164.013 171.173 163.806C170.765 163.57 170.463 163.603 170.259 163.897V166.057C170.419 166.537 170.745 166.946 171.179 167.209C171.504 167.392 171.76 167.392 171.949 167.209C172.175 166.872 172.268 166.464 172.212 166.063H172.232Z" fill="#D0FFFB"></path><path d="M174.467 169.656L173.81 169.27V162.87L174.467 163.256V169.656Z" fill="#D0FFFB"></path><path d="M177.176 171.292C176.62 170.973 176.165 170.506 175.861 169.944C175.535 169.362 175.363 168.706 175.361 168.04V167.902C175.343 167.531 175.419 167.162 175.585 166.829C175.644 166.707 175.732 166.601 175.841 166.519C175.949 166.437 176.075 166.382 176.209 166.358C176.514 166.323 176.821 166.395 177.077 166.561C177.592 166.855 178.009 167.295 178.274 167.824C178.565 168.418 178.71 169.073 178.695 169.735V170.068L176.032 168.537C176.042 168.983 176.16 169.421 176.374 169.813C176.56 170.18 176.847 170.486 177.202 170.697C177.379 170.816 177.587 170.88 177.801 170.88C177.962 170.861 178.114 170.793 178.235 170.684L178.649 171.286C178.333 171.665 177.834 171.672 177.176 171.292ZM177.09 167.195C176.997 167.126 176.886 167.084 176.769 167.075C176.653 167.065 176.536 167.089 176.433 167.143C176.324 167.237 176.237 167.354 176.178 167.485C176.119 167.616 176.089 167.759 176.091 167.902L178.064 169.034V168.975C178.052 168.602 177.957 168.236 177.788 167.902C177.629 167.604 177.387 167.359 177.09 167.195Z" fill="#D0FFFB"></path><path d="M180.398 167.451V168.544L181.134 168.969V169.564L180.398 169.139V171.947C180.393 172.107 180.427 172.266 180.497 172.411C180.573 172.551 180.69 172.665 180.832 172.738C180.934 172.795 181.042 172.841 181.154 172.876V173.498C180.972 173.449 180.797 173.377 180.635 173.282C180.351 173.118 180.122 172.874 179.977 172.581C179.821 172.264 179.742 171.914 179.747 171.56V168.759L179.03 168.354V167.752L179.747 168.164V167.071L180.398 167.451Z" fill="#D0FFFB"></path><path d="M183.548 174.957C182.991 174.636 182.536 174.167 182.233 173.602C181.9 173.025 181.725 172.37 181.726 171.704V171.56C181.712 171.19 181.789 170.821 181.95 170.487C182.012 170.368 182.1 170.263 182.208 170.183C182.316 170.102 182.442 170.048 182.575 170.023C182.881 169.986 183.191 170.058 183.449 170.225C183.961 170.522 184.374 170.961 184.639 171.488C184.933 172.08 185.079 172.733 185.067 173.393V173.713L182.397 172.189C182.408 172.633 182.526 173.068 182.739 173.458C182.927 173.826 183.214 174.134 183.567 174.348C183.745 174.469 183.957 174.531 184.172 174.525C184.333 174.513 184.484 174.446 184.6 174.335L185.014 174.937C184.705 175.304 184.212 175.336 183.548 174.957ZM183.469 170.86C183.376 170.79 183.264 170.747 183.148 170.738C183.031 170.729 182.914 170.753 182.811 170.808C182.702 170.901 182.615 171.016 182.556 171.146C182.497 171.276 182.468 171.418 182.469 171.56L184.442 172.693V172.634C184.43 172.262 184.336 171.898 184.166 171.567C184.01 171.267 183.767 171.021 183.469 170.86Z" fill="#D0FFFB"></path><path d="M185.698 173.812C185.668 173.557 185.691 173.3 185.765 173.055C185.838 172.809 185.961 172.582 186.125 172.385C186.284 172.257 186.483 172.187 186.687 172.187C186.892 172.187 187.091 172.257 187.25 172.385C187.721 172.66 188.101 173.068 188.341 173.556V171.2L188.999 171.587V178L188.387 177.647L188.354 177.143C188.083 177.365 187.708 177.339 187.23 177.064C186.73 176.754 186.339 176.297 186.112 175.755C185.827 175.154 185.681 174.496 185.685 173.831L185.698 173.812ZM186.355 174.283C186.346 174.751 186.44 175.216 186.632 175.644C186.788 176.008 187.055 176.315 187.394 176.521C187.822 176.763 188.131 176.724 188.328 176.397V174.322C188.174 173.832 187.844 173.415 187.401 173.151C187.072 172.961 186.816 172.954 186.632 173.151C186.411 173.485 186.318 173.886 186.369 174.283H186.355Z" fill="#D0FFFB"></path><path d="M89.7844 18.1971C90.5833 17.7379 90.5833 16.249 89.7844 14.8715C88.9855 13.494 87.6902 12.7495 86.8913 13.2086C86.0925 13.6678 86.0925 15.1567 86.8914 16.5343C87.6903 17.9118 88.9856 18.6563 89.7844 18.1971Z" fill="#D0FFFB"></path><path d="M95.9192 21.7215C96.7181 21.2623 96.7181 19.7734 95.9192 18.3959C95.1203 17.0184 93.825 16.2739 93.0261 16.7331C92.2272 17.1922 92.2272 18.6812 93.0261 20.0587C93.8251 21.4362 95.1203 22.1807 95.9192 21.7215Z" fill="#D0FFFB"></path><path d="M102.053 25.2476C102.851 24.7885 102.851 23.2995 102.052 21.922C101.254 20.5445 99.9583 19.8 99.1594 20.2592C98.3605 20.7184 98.3605 22.2073 99.1594 23.5848C99.9583 24.9623 101.254 25.7068 102.053 25.2476Z" fill="#D0FFFB"></path><path d="M31.3455 210.225C43.2487 210.225 52.8981 204.68 52.8981 197.84C52.8981 191 43.2487 185.455 31.3455 185.455C19.4424 185.455 9.79297 191 9.79297 197.84C9.79297 204.68 19.4424 210.225 31.3455 210.225Z" fill="#9DECE6"></path><path d="M9.79834 198.031V192.385L14.0547 196.161L9.79834 198.031Z" fill="#9DECE6"></path><path d="M52.8978 192.535V197.84L50.7176 200.145L49.6509 194.064L52.8978 192.535Z" fill="#9DECE6"></path><path d="M31.3455 204.921C43.2487 204.921 52.8981 199.376 52.8981 192.536C52.8981 185.695 43.2487 180.15 31.3455 180.15C19.4424 180.15 9.79297 185.695 9.79297 192.536C9.79297 199.376 19.4424 204.921 31.3455 204.921Z" fill="#D0FFFB"></path><path d="M46.7478 192.919C46.5293 194.991 45.0359 197.063 42.2573 198.658C36.2317 202.119 26.4597 202.119 20.4341 198.658C17.6555 197.058 16.1621 195.001 15.9488 192.919C15.6886 190.474 17.1872 187.982 20.4341 186.118C26.4597 182.652 36.2317 182.652 42.2573 186.118C45.5042 187.982 47.0028 190.474 46.7478 192.919Z" fill="#CC8B09"></path><path d="M46.7477 192.919C46.5292 194.991 45.0358 197.063 42.2572 198.658C36.2316 202.119 26.4596 202.119 20.4341 198.658C17.6555 197.058 16.1621 195.001 15.9487 192.919C16.1621 190.847 17.6555 188.775 20.4341 187.179C26.4596 183.714 36.2316 183.714 42.2572 187.179C45.0358 188.775 46.5292 190.831 46.7477 192.919Z" fill="#E8A30A"></path><path d="M31.1163 190.013C30.928 190.013 30.74 190.028 30.5543 190.06C30.2993 190.096 30.034 190.148 29.701 190.215C29.369 190.281 29.0408 190.364 28.7175 190.464C28.3864 190.563 28.0629 190.686 27.7497 190.831L30.2317 192.256L30.674 192.1C31.3036 191.888 31.8968 191.712 32.4588 191.582C32.9831 191.443 33.5198 191.354 34.0614 191.318C34.5562 191.288 35.0529 191.321 35.5392 191.417C36.0327 191.52 36.5068 191.7 36.9441 191.95C37.3643 192.169 37.7223 192.49 37.9848 192.883C38.0747 193.024 38.1349 193.183 38.1618 193.349C38.1886 193.514 38.1815 193.683 38.1409 193.846C38.0353 194.209 37.8362 194.537 37.5633 194.799C37.2208 195.137 36.8402 195.434 36.429 195.685L37.99 196.592L37.1314 197.11L35.5392 196.193C34.7826 196.565 33.9914 196.864 33.1768 197.084C32.3252 197.32 31.4548 197.483 30.5751 197.571L29.7426 196.089C29.9758 196.082 30.2086 196.063 30.4398 196.032C30.7468 195.996 31.0955 195.939 31.4805 195.856C31.8656 195.773 32.2662 195.67 32.6929 195.55C33.1076 195.43 33.5128 195.279 33.9053 195.1L31.4389 193.686L31.1163 193.794L30.7781 193.898C30.1589 194.1 29.5917 194.261 29.0765 194.374C28.5983 194.485 28.1104 194.55 27.6196 194.566C27.1895 194.583 26.7591 194.543 26.3395 194.447C25.9222 194.349 25.5221 194.188 25.1532 193.97C24.7452 193.757 24.3898 193.456 24.1125 193.09C23.9129 192.813 23.8155 192.477 23.8367 192.137C23.8723 191.784 24.0137 191.45 24.2426 191.178C24.5301 190.828 24.8686 190.523 25.2468 190.272L23.7847 189.433L24.6432 188.915L26.0898 189.749C26.7692 189.413 27.4827 189.151 28.218 188.967C28.918 188.792 29.629 188.664 30.3462 188.583L31.1163 190.013ZM26.9067 192.603C27.2315 192.788 27.6062 192.868 27.9786 192.831C28.4819 192.774 28.9774 192.663 29.4564 192.499L27.1357 191.168C26.2892 191.724 26.2129 192.202 26.9067 192.603ZM35.0449 193.276C34.6903 193.085 34.2836 193.013 33.8845 193.069C33.3359 193.14 32.7945 193.258 32.2662 193.421L34.5713 194.768C35.5565 194.16 35.7144 193.663 35.0449 193.276Z" fill="#CC8B09"></path><path d="M29.7847 196.068C29.7847 196.006 29.7847 195.234 29.7847 195.234L30.7317 195.84L30.3206 196.472L29.7847 196.068Z" fill="#CC8B09"></path><path d="M38.037 196.592V195.763L35.9868 195.918L37.1628 196.716L38.037 196.592Z" fill="#CC8B09"></path><path d="M38.2088 193.54V192.696L36.6738 193.25L38.2088 193.54Z" fill="#CC8B09"></path><path d="M31.8555 193.494L32.3758 193.007L34.1658 194.25L34.0513 194.618C34.0513 194.618 32.7088 194.053 32.6672 194.022C32.6256 193.991 31.8555 193.494 31.8555 193.494Z" fill="#CC8B09"></path><path d="M27.1411 190.873L29.5295 192.22L30.0186 191.867C30.0186 191.867 29.722 191.525 29.7012 191.494C29.4852 191.25 29.2324 191.04 28.9519 190.873C28.775 190.842 27.6458 190.355 27.6458 190.355L27.1411 190.873Z" fill="#CC8B09"></path><path d="M31.1167 190.013V189.184L30.0188 188.827L29.7847 189.479L29.8419 189.78L31.1167 190.013Z" fill="#CC8B09"></path><path d="M23.8267 189.412V188.583L25.1015 188.718L24.6904 189.526L23.8267 189.412Z" fill="#CC8B09"></path><path d="M23.873 192.235V191.37H25.33L24.9762 192.147L24.3414 192.836L23.873 192.235Z" fill="#CC8B09"></path><path d="M31.1163 189.184C30.9282 189.184 30.7403 189.198 30.5543 189.225C30.2993 189.262 30.034 189.313 29.701 189.381C29.3679 189.448 29.0557 189.531 28.7175 189.629C28.3872 189.731 28.0639 189.854 27.7497 189.997L30.2317 191.422L30.674 191.266C31.3036 191.059 31.8968 190.883 32.4588 190.748C32.9831 190.609 33.5198 190.52 34.0614 190.484C34.5564 190.455 35.0531 190.49 35.5392 190.588C36.0347 190.695 36.5093 190.882 36.9441 191.142C37.3638 191.364 37.7214 191.686 37.9848 192.08C38.0747 192.221 38.1349 192.38 38.1618 192.545C38.1886 192.711 38.1815 192.88 38.1409 193.043C38.0363 193.404 37.8369 193.732 37.5633 193.991C37.2224 194.332 36.8416 194.631 36.429 194.882L37.99 195.788L37.1314 196.281L35.5392 195.369C34.7834 195.742 33.992 196.039 33.1768 196.255C32.3252 196.491 31.4548 196.654 30.5751 196.742L29.7426 195.26C29.9758 195.255 30.2085 195.238 30.4398 195.208C30.7468 195.172 31.0955 195.11 31.4805 195.032C31.8656 194.954 32.2662 194.846 32.6929 194.721C33.1076 194.601 33.5128 194.45 33.9053 194.271L31.4389 192.857L31.1163 192.965C31.007 193.002 30.8977 193.038 30.7781 193.069C30.1589 193.271 29.5917 193.432 29.0765 193.546C28.5985 193.658 28.1105 193.724 27.6196 193.742C27.1896 193.757 26.7595 193.717 26.3395 193.623C25.9229 193.523 25.5232 193.362 25.1532 193.147C24.7433 192.934 24.3874 192.631 24.1125 192.261C23.9137 191.986 23.8162 191.651 23.8367 191.313C23.8704 190.96 24.012 190.625 24.2426 190.355C24.5273 190.002 24.8662 189.696 25.2468 189.448L23.7847 188.609L24.6432 188.091L26.0898 188.925C26.7684 188.589 27.4821 188.328 28.218 188.148C28.9175 187.971 29.6286 187.843 30.3462 187.765L31.1163 189.184ZM26.9067 191.774C27.2306 191.961 27.6061 192.041 27.9786 192.002C28.4817 191.947 28.9773 191.838 29.4564 191.676L27.1357 190.339C26.2875 190.888 26.2095 191.37 26.9067 191.769V191.774ZM35.0449 192.447C34.6903 192.256 34.2836 192.184 33.8845 192.24C33.3358 192.313 32.7944 192.433 32.2662 192.598L34.5713 193.924C35.5565 193.319 35.7144 192.825 35.0449 192.442V192.447Z" fill="#F9CA06"></path><path d="M33.1038 203.621C45.007 203.621 54.6564 198.075 54.6564 191.235C54.6564 184.395 45.007 178.85 33.1038 178.85C21.2007 178.85 11.5513 184.395 11.5513 191.235C11.5513 198.075 21.2007 203.621 33.1038 203.621Z" fill="#9DECE6"></path><path d="M11.5566 191.422V185.781L15.8182 189.557L11.5566 191.422Z" fill="#9DECE6"></path><path d="M54.6563 185.926V191.235L52.4813 193.535L51.4146 187.459L54.6563 185.926Z" fill="#9DECE6"></path><path d="M33.1038 198.311C45.007 198.311 54.6564 192.766 54.6564 185.926C54.6564 179.085 45.007 173.54 33.1038 173.54C21.2007 173.54 11.5513 179.085 11.5513 185.926C11.5513 192.766 21.2007 198.311 33.1038 198.311Z" fill="#D0FFFB"></path><path d="M48.5059 186.309C48.2873 188.381 46.794 190.453 44.0153 192.048C37.9898 195.514 28.223 195.514 22.1922 192.048C19.4136 190.453 17.9254 188.397 17.7121 186.309C17.4467 183.869 18.9453 181.372 22.1922 179.513C28.223 176.042 37.9898 176.042 44.0153 179.513C47.2623 181.372 48.7609 183.89 48.5059 186.309Z" fill="#CC8B09"></path><path d="M48.5062 186.309C48.2877 188.381 46.7943 190.453 44.0157 192.048C37.9901 195.514 28.2233 195.514 22.1925 192.048C19.4139 190.453 17.9257 188.396 17.7124 186.309C17.9257 184.237 19.4139 182.165 22.1925 180.575C28.2233 177.104 37.9901 177.104 44.0157 180.575C46.7943 182.17 48.2877 184.227 48.5062 186.309Z" fill="#E8A30A"></path><path d="M32.88 183.408C32.69 183.408 32.5002 183.424 32.3128 183.455C32.0579 183.491 31.7925 183.543 31.4595 183.605C31.1264 183.667 30.8194 183.755 30.4812 183.859C30.1487 183.954 29.825 184.077 29.5134 184.227L31.9902 185.651L32.4325 185.491C33.0673 185.283 33.6605 185.107 34.2173 184.973C34.7416 184.833 35.2784 184.744 35.8199 184.708C36.3147 184.675 36.8118 184.708 37.2977 184.807C37.7942 184.914 38.2703 185.099 38.7078 185.356C39.1291 185.573 39.4874 185.894 39.7485 186.288C39.838 186.43 39.8983 186.589 39.926 186.754C39.9537 186.919 39.9482 187.088 39.9098 187.252C39.8021 187.614 39.6012 187.943 39.327 188.205C38.9935 188.534 38.6234 188.824 38.2239 189.07L39.7849 189.976L38.9264 190.494L37.3653 189.578C36.6069 189.95 35.814 190.248 34.9978 190.469C34.1456 190.702 33.2754 190.865 32.3961 190.955L31.5687 189.469C31.8002 189.464 32.0312 189.447 32.2608 189.417C32.573 189.381 32.9164 189.324 33.3015 189.241C33.6865 189.158 34.0872 189.054 34.5087 188.93C34.9235 188.812 35.3288 188.663 35.7211 188.485L33.2598 187.065L32.9372 187.179L32.599 187.283C31.9798 187.485 31.4074 187.645 30.8923 187.759C30.4158 187.87 29.9296 187.934 29.4405 187.951C29.0087 187.968 28.5766 187.928 28.1553 187.832C27.7386 187.731 27.339 187.571 26.9689 187.355C26.5591 187.145 26.2031 186.843 25.9282 186.475C25.7264 186.199 25.6271 185.862 25.6473 185.522C25.6865 185.17 25.8275 184.837 26.0531 184.563C26.3397 184.209 26.6783 183.9 27.0574 183.646L25.5952 182.807L26.459 182.289L27.9055 183.118C28.5854 182.785 29.2988 182.525 30.0337 182.341C30.732 182.166 31.4413 182.038 32.1567 181.958L32.88 183.408ZM28.6652 185.998C28.9916 186.184 29.3678 186.266 29.7423 186.231C30.2434 186.172 30.7369 186.061 31.2149 185.9L28.8942 184.568C28.0443 185.121 27.968 185.596 28.6652 185.993V185.998ZM36.8034 186.677C36.4498 186.483 36.0422 186.41 35.643 186.47C35.0941 186.538 34.5525 186.656 34.0247 186.822L36.3299 188.148C37.3133 187.547 37.4642 187.055 36.8034 186.672V186.677Z" fill="#CC8B09"></path><path d="M31.5483 189.458C31.5483 189.401 31.5483 188.63 31.5483 188.63L32.4954 189.236L32.0843 189.862L31.5483 189.458Z" fill="#CC8B09"></path><path d="M39.7953 189.987V189.158L37.7451 189.313L38.9263 190.111L39.7953 189.987Z" fill="#CC8B09"></path><path d="M39.9725 186.936V186.092L38.4375 186.646L39.9725 186.936Z" fill="#CC8B09"></path><path d="M33.6138 186.889L34.1341 186.402L35.9033 187.64L35.794 188.008C35.794 188.008 34.4515 187.444 34.4047 187.407L33.6138 186.889Z" fill="#CC8B09"></path><path d="M28.9048 184.268L31.2932 185.615L31.7823 185.263C31.7823 185.263 31.4805 184.921 31.4597 184.89C31.247 184.644 30.9957 184.434 30.7156 184.268C30.5387 184.237 29.4043 183.75 29.4043 183.75L28.9048 184.268Z" fill="#CC8B09"></path><path d="M32.8804 183.408V182.579L31.7825 182.222L31.5483 182.875L31.6056 183.175L32.8804 183.408Z" fill="#CC8B09"></path><path d="M25.585 182.807V181.979L26.8598 182.113L26.4487 182.921L25.585 182.807Z" fill="#CC8B09"></path><path d="M25.6318 185.63V184.765H27.0888L26.735 185.542L26.1001 186.231L25.6318 185.63Z" fill="#CC8B09"></path><path d="M32.88 182.579C32.6901 182.577 32.5003 182.591 32.3128 182.621C32.0579 182.657 31.7925 182.709 31.4595 182.776C31.1264 182.843 30.8194 182.926 30.4812 183.025C30.1495 183.122 29.8259 183.245 29.5134 183.393L31.9902 184.817L32.4325 184.662C33.0673 184.449 33.6605 184.273 34.2173 184.144C34.7416 184.004 35.2784 183.916 35.8199 183.879C36.3147 183.849 36.8114 183.882 37.2977 183.978C37.7942 184.085 38.2703 184.27 38.7078 184.527C39.1291 184.744 39.4874 185.065 39.7485 185.459C39.838 185.601 39.8983 185.76 39.926 185.925C39.9537 186.09 39.9482 186.26 39.9098 186.423C39.8032 186.786 39.6022 187.115 39.327 187.376C38.9867 187.716 38.6078 188.015 38.1979 188.267L39.7589 189.173L38.9003 189.666L37.3393 188.754C36.5807 189.125 35.7878 189.421 34.9718 189.64C34.1201 189.876 33.2497 190.039 32.3701 190.127L31.5427 188.645C31.6936 188.645 31.9278 188.645 32.2348 188.593C32.5418 188.541 32.8904 188.495 33.2755 188.412C33.6605 188.329 34.0612 188.231 34.4826 188.106C34.8976 187.987 35.3029 187.836 35.695 187.656L33.2338 186.242L32.9112 186.35L32.573 186.454C31.9538 186.656 31.3814 186.817 30.8663 186.93C30.3899 187.043 29.9037 187.109 29.4145 187.127C28.9828 187.141 28.551 187.101 28.1293 187.008C27.7117 186.908 27.3117 186.746 26.9429 186.526C26.5319 186.318 26.1756 186.016 25.9022 185.646C25.6996 185.373 25.6001 185.037 25.6212 184.698C25.6596 184.346 25.8007 184.013 26.0271 183.74C26.3197 183.38 26.6674 183.069 27.0574 182.818L25.5952 181.978L26.459 181.46L27.8951 182.336C28.573 181.998 29.2869 181.738 30.0233 181.559C30.7205 181.379 31.4301 181.251 32.1463 181.176L32.88 182.579ZM28.6652 185.169C28.9912 185.356 29.3681 185.436 29.7423 185.397C30.2437 185.343 30.7376 185.233 31.2149 185.071L28.8942 183.734C28.0443 184.284 27.968 184.76 28.6652 185.164V185.169ZM36.8034 185.843C36.4489 185.651 36.0421 185.579 35.643 185.635C35.0944 185.709 34.5531 185.829 34.0247 185.993L36.3299 187.314C37.3133 186.713 37.4642 186.221 36.8034 185.838V185.843Z" fill="#F9CA06"></path><path d="M32.9686 197.741C44.8717 197.741 54.5211 192.196 54.5211 185.356C54.5211 178.516 44.8717 172.971 32.9686 172.971C21.0654 172.971 11.416 178.516 11.416 185.356C11.416 192.196 21.0654 197.741 32.9686 197.741Z" fill="#9DECE6"></path><path d="M11.4268 185.542V179.896L15.6831 183.672L11.4268 185.542Z" fill="#9DECE6"></path><path d="M54.521 180.046V185.356L52.346 187.656L51.2793 181.58L54.521 180.046Z" fill="#9DECE6"></path><path d="M32.9686 192.432C44.8717 192.432 54.5211 186.887 54.5211 180.047C54.5211 173.206 44.8717 167.661 32.9686 167.661C21.0654 167.661 11.416 173.206 11.416 180.047C11.416 186.887 21.0654 192.432 32.9686 192.432Z" fill="#D0FFFB"></path><path d="M48.3915 180.43C48.173 182.502 46.6796 184.574 43.9062 186.169C37.8754 189.63 28.1086 189.63 22.0831 186.169C19.3044 184.569 17.8111 182.543 17.5977 180.43C17.3375 177.99 18.8361 175.493 22.0831 173.629C28.1086 170.163 37.8754 170.163 43.9062 173.629C47.1323 175.493 48.6309 177.99 48.3915 180.43Z" fill="#CC8B09"></path><path d="M48.3915 180.43C48.1729 182.502 46.6795 184.574 43.9061 186.169C37.8754 189.629 28.1086 189.629 22.083 186.169C19.3044 184.569 17.811 182.543 17.5977 180.43C17.811 178.358 19.3044 176.286 22.083 174.69C28.1086 171.225 37.8754 171.225 43.9061 174.69C46.6587 176.291 48.1521 178.342 48.3915 180.43Z" fill="#E8A30A"></path><path d="M32.7447 177.529C32.5549 177.529 32.3653 177.543 32.1776 177.57C31.9278 177.607 31.6572 177.659 31.3294 177.726C31.0016 177.793 30.6842 177.876 30.346 177.975C30.0148 178.074 29.6914 178.197 29.3781 178.342L31.8549 179.746L32.3024 179.591C32.932 179.383 33.5252 179.202 34.0872 179.073C34.6116 178.933 35.1483 178.845 35.6899 178.809C36.1829 178.78 36.6776 178.814 37.1624 178.907C37.6606 179.014 38.1384 179.199 38.5778 179.456C38.9985 179.676 39.3565 179.999 39.6184 180.394C39.7084 180.535 39.7686 180.694 39.7954 180.859C39.8223 181.025 39.8151 181.194 39.7745 181.357C39.6802 181.727 39.488 182.065 39.2178 182.336C38.8799 182.678 38.5006 182.978 38.0886 183.227L39.6497 184.134L38.7911 184.626L37.1988 183.714C36.4491 184.073 35.6668 184.361 34.8625 184.574C34.0109 184.81 33.1404 184.973 32.2608 185.061L31.4283 183.579C31.5792 183.579 31.8133 183.579 32.1255 183.527C32.4377 183.476 32.7811 183.429 33.1662 183.346C33.5513 183.263 33.9519 183.165 34.3786 183.041C34.7919 182.921 35.1954 182.77 35.5858 182.59L33.1246 181.176L32.7811 181.3L32.4429 181.404C31.8237 181.606 31.2565 181.766 30.7414 181.88C30.2633 181.993 29.7753 182.058 29.2845 182.077C28.8544 182.091 28.4243 182.051 28.0044 181.958C27.5854 181.857 27.1839 181.695 26.8128 181.476C26.4029 181.266 26.0469 180.964 25.7721 180.596C25.5733 180.321 25.4759 179.986 25.4964 179.648C25.5301 179.294 25.6717 178.96 25.9022 178.689C26.187 178.336 26.5259 178.031 26.9065 177.783L25.4443 176.944L26.3029 176.426L27.7494 177.26C28.4277 176.923 29.1415 176.662 29.8776 176.483C30.5765 176.302 31.2878 176.174 32.0058 176.099L32.7447 177.529ZM28.5352 180.119C28.8591 180.306 29.2345 180.386 29.6071 180.347C30.1101 180.292 30.6056 180.182 31.0848 180.021L28.7641 178.684C27.9108 179.228 27.8379 179.71 28.5352 180.114V180.119ZM36.6681 180.782C36.3139 180.59 35.9068 180.517 35.5077 180.575C34.9593 180.649 34.4179 180.768 33.8895 180.932L36.1998 182.258C37.185 181.661 37.3411 181.169 36.6681 180.782Z" fill="#CC8B09"></path><path d="M31.4131 183.579C31.4391 183.517 31.4131 182.745 31.4131 182.745L32.3601 183.372L31.949 184.004L31.4131 183.579Z" fill="#CC8B09"></path><path d="M39.6654 184.108V183.274L37.6152 183.429L38.7912 184.227L39.6654 184.108Z" fill="#CC8B09"></path><path d="M39.8372 181.052V180.212L38.3022 180.767L39.8372 181.052Z" fill="#CC8B09"></path><path d="M33.4834 181.01L34.0037 180.523L35.8041 181.761L35.6896 182.124C35.6896 182.124 34.342 181.559 34.2899 181.528L33.4834 181.01Z" fill="#CC8B09"></path><path d="M28.7695 178.389L31.1579 179.736L31.647 179.383C31.647 179.383 31.3504 179.042 31.3244 179.005C31.1101 178.763 30.859 178.555 30.5803 178.389C30.4034 178.353 29.2691 177.871 29.2691 177.871L28.7695 178.389Z" fill="#CC8B09"></path><path d="M32.7452 177.529V176.695L31.6472 176.343L31.4131 176.996L31.4703 177.291L32.7452 177.529Z" fill="#CC8B09"></path><path d="M25.4546 176.928V176.094L26.7242 176.229L26.3132 177.037L25.4546 176.928Z" fill="#CC8B09"></path><path d="M25.4966 179.746V178.881H26.9535L26.5997 179.653L25.9649 180.347L25.4966 179.746Z" fill="#CC8B09"></path><path d="M32.7446 176.695C32.5545 176.695 32.3648 176.71 32.1774 176.742C31.9276 176.778 31.6571 176.83 31.3292 176.892C31.0014 176.954 30.684 177.042 30.3458 177.146C30.0148 177.243 29.6914 177.364 29.378 177.508L31.8548 178.933L32.3023 178.777C32.9319 178.57 33.5251 178.394 34.0871 178.259C34.6114 178.12 35.1481 178.031 35.6897 177.995C36.1828 177.962 36.6781 177.995 37.1623 178.094C37.6611 178.198 38.1393 178.384 38.5776 178.643C38.9978 178.861 39.3558 179.182 39.6183 179.575C39.7082 179.717 39.7685 179.875 39.7953 180.041C39.8221 180.207 39.815 180.376 39.7744 180.539C39.6667 180.901 39.4658 181.23 39.1916 181.492C38.8522 181.831 38.4731 182.128 38.0625 182.377L39.6235 183.284L38.7649 183.776L37.2143 182.854C36.4607 183.225 35.6731 183.523 34.8624 183.745C34.0106 183.979 33.1402 184.141 32.2607 184.227L31.4281 182.745C31.6613 182.74 31.8941 182.723 32.1254 182.693C32.4324 182.657 32.781 182.6 33.1661 182.517C33.5511 182.434 33.9518 182.331 34.3784 182.207C34.7916 182.089 35.1951 181.94 35.5856 181.761L33.1244 180.342L32.8018 180.456L32.4636 180.559C31.8444 180.761 31.2772 180.917 30.7621 181.036C30.2833 181.144 29.7956 181.208 29.3051 181.227C28.875 181.244 28.4446 181.204 28.0251 181.108C27.607 181.007 27.2058 180.847 26.8335 180.632C26.4247 180.42 26.069 180.119 25.7928 179.751C25.5944 179.474 25.4971 179.138 25.517 178.798C25.5507 178.445 25.6924 178.11 25.9229 177.84C26.209 177.488 26.5477 177.182 26.9272 176.933L25.4546 176.12L26.3132 175.628L27.7597 176.457C28.4399 176.124 29.1532 175.864 29.8879 175.68C30.5878 175.504 31.2988 175.376 32.0161 175.296L32.7446 176.695ZM28.535 179.285C28.8592 179.472 29.234 179.553 29.6069 179.518C30.1096 179.458 30.6048 179.347 31.0847 179.187L28.764 177.855C27.9106 178.404 27.8378 178.881 28.535 179.28V179.285ZM36.668 179.958C36.3139 179.766 35.9062 179.695 35.5076 179.756C34.9588 179.826 34.4172 179.944 33.8893 180.109L36.1996 181.435C37.1848 180.837 37.3409 180.343 36.668 179.953V179.958Z" fill="#F9CA06"></path><path d="M33.6141 191.126C45.5172 191.126 55.1666 185.581 55.1666 178.741C55.1666 171.901 45.5172 166.356 33.6141 166.356C21.7109 166.356 12.0615 171.901 12.0615 178.741C12.0615 185.581 21.7109 191.126 33.6141 191.126Z" fill="#9DECE6"></path><path d="M12.0723 178.933V173.287L16.3287 177.063L12.0723 178.933Z" fill="#9DECE6"></path><path d="M55.1665 173.431V178.741L52.9915 181.041L51.9248 174.965L55.1665 173.431Z" fill="#9DECE6"></path><path d="M33.6141 185.817C45.5172 185.817 55.1666 180.272 55.1666 173.432C55.1666 166.591 45.5172 161.046 33.6141 161.046C21.7109 161.046 12.0615 166.591 12.0615 173.432C12.0615 180.272 21.7109 185.817 33.6141 185.817Z" fill="#D0FFFB"></path><path d="M49.0161 173.82C48.7976 175.892 47.3042 177.964 44.5256 179.554C38.5 183.02 28.7332 183.02 22.7077 179.554C19.929 177.959 18.4356 175.902 18.2223 173.82C17.9621 171.375 19.4555 168.878 22.7077 167.019C28.7332 163.553 38.5 163.553 44.5256 167.019C47.7725 168.868 49.2711 171.375 49.0161 173.82Z" fill="#CC8B09"></path><path d="M49.0165 173.82C48.7979 175.892 47.3046 177.964 44.5259 179.554C38.5004 183.02 28.7336 183.02 22.708 179.554C19.9294 177.959 18.436 175.902 18.2227 173.82C18.436 171.748 19.9294 169.676 22.708 168.08C28.7336 164.61 38.5004 164.61 44.5259 168.08C47.3046 169.676 48.7979 171.732 49.0165 173.82Z" fill="#E8A30A"></path><path d="M33.3903 170.94C33.2002 170.94 33.0105 170.955 32.8231 170.987C32.5733 171.023 32.3027 171.075 31.9697 171.137C31.6367 171.199 31.3297 171.287 30.9915 171.391C30.6604 171.49 30.3369 171.613 30.0237 171.758L32.5005 173.183L32.948 173.022C33.5793 172.815 34.1725 172.642 34.7275 172.504C35.2536 172.365 35.7921 172.276 36.3354 172.24C36.8285 172.21 37.3234 172.243 37.808 172.339C38.3048 172.444 38.7811 172.63 39.2181 172.888C39.6492 173.103 40.0181 173.424 40.29 173.82C40.4668 174.108 40.5228 174.454 40.4461 174.783C40.3384 175.146 40.1375 175.475 39.8633 175.737C39.5228 176.075 39.1438 176.372 38.7342 176.622L40.2952 177.529L39.4314 178.047L37.8704 177.13C37.1134 177.502 36.3223 177.8 35.508 178.021C34.6556 178.254 33.7855 178.417 32.9063 178.508L32.0738 177.026C32.3053 177.019 32.5363 177 32.7659 176.969C33.0781 176.933 33.4267 176.876 33.8065 176.793C34.1864 176.71 34.5923 176.607 35.0189 176.483C35.4325 176.366 35.8362 176.217 36.2261 176.037L33.7493 174.566L33.4267 174.68L33.0885 174.783C32.4693 174.986 31.9021 175.146 31.3817 175.26C30.9052 175.371 30.419 175.435 29.93 175.452C29.4999 175.469 29.0695 175.428 28.65 175.333C28.2309 175.234 27.8291 175.074 27.4584 174.856C27.0485 174.645 26.6926 174.344 26.4177 173.975C26.2174 173.699 26.1182 173.363 26.1367 173.022C26.1757 172.669 26.3187 172.336 26.5478 172.064C26.8438 171.711 27.191 171.404 27.578 171.152L26.1211 170.313L26.9797 169.795L28.4262 170.624C29.1061 170.291 29.8194 170.03 30.5544 169.847C31.2543 169.672 31.9653 169.544 32.6826 169.464L33.3903 170.94ZM29.1807 173.53C29.5049 173.717 29.8796 173.798 30.2526 173.763C30.7558 173.706 31.2512 173.595 31.7304 173.432L29.4097 172.1C28.5563 172.623 28.4834 173.1 29.1807 173.499V173.53ZM37.3136 174.209C36.9602 174.014 36.5524 173.942 36.1533 174.001C35.6048 174.073 35.0634 174.191 34.535 174.354L36.8401 175.68C37.8236 175.053 37.9849 174.566 37.3136 174.177V174.209Z" fill="#CC8B09"></path><path d="M32.0586 176.969C32.0586 176.907 32.0586 176.135 32.0586 176.135L33.0056 176.742L32.5945 177.374L32.0586 176.969Z" fill="#CC8B09"></path><path d="M40.3109 177.493V176.664L38.2607 176.819L39.4367 177.617L40.3109 177.493Z" fill="#CC8B09"></path><path d="M40.4828 174.442V173.597L38.9478 174.152L40.4828 174.442Z" fill="#CC8B09"></path><path d="M34.124 174.395L34.6444 173.908L36.4239 175.146L36.3147 175.514C36.3147 175.514 34.9722 174.949 34.9253 174.918C34.8785 174.887 34.124 174.395 34.124 174.395Z" fill="#CC8B09"></path><path d="M29.415 171.774L31.8034 173.121L32.2925 172.768C32.2925 172.768 31.9907 172.427 31.9699 172.395C31.756 172.151 31.5049 171.941 31.2258 171.774C31.0489 171.743 29.9146 171.256 29.9146 171.256L29.415 171.774Z" fill="#CC8B09"></path><path d="M33.3907 170.914V170.085L32.2927 169.728L32.0586 170.38L32.1158 170.681L33.3907 170.914Z" fill="#CC8B09"></path><path d="M26.1001 170.313V169.484L27.3697 169.619L26.9587 170.427L26.1001 170.313Z" fill="#CC8B09"></path><path d="M26.147 173.136V172.271H27.6039L27.2501 173.048L26.6153 173.737L26.147 173.136Z" fill="#CC8B09"></path><path d="M33.3903 170.085C33.2004 170.085 33.0109 170.099 32.8231 170.127C32.5733 170.163 32.3027 170.215 31.9697 170.282C31.6367 170.349 31.3297 170.432 30.9915 170.531C30.6612 170.632 30.3379 170.755 30.0237 170.898L32.5005 172.323L32.948 172.167C33.5776 171.96 34.1708 171.779 34.7275 171.649C35.2536 171.51 35.7921 171.421 36.3354 171.385C36.8287 171.356 37.3237 171.391 37.808 171.489C38.3052 171.591 38.7818 171.774 39.2181 172.033C39.6485 172.251 40.0171 172.574 40.29 172.97C40.4668 173.259 40.5228 173.605 40.4461 173.934C40.3393 174.296 40.1383 174.623 39.8633 174.882C39.5243 175.223 39.1452 175.522 38.7342 175.773L40.2952 176.679L39.4314 177.171L37.8704 176.26C37.1103 176.634 36.3157 176.934 35.4976 177.156C34.6458 177.391 33.7754 177.554 32.8959 177.643L32.0582 176.12C32.2897 176.115 32.5207 176.098 32.7502 176.068C33.0624 176.032 33.4111 175.97 33.7909 175.887C34.1708 175.804 34.5766 175.705 35.0033 175.581C35.4163 175.461 35.8198 175.31 36.2105 175.13L33.7493 173.716L33.4267 173.825L33.0885 173.929C32.4693 174.131 31.9021 174.291 31.3817 174.405C30.9054 174.517 30.4192 174.583 29.93 174.602C29.5 174.616 29.0699 174.576 28.65 174.483C28.2316 174.382 27.8302 174.222 27.4584 174.006C27.047 173.796 26.6907 173.492 26.4177 173.121C26.2174 172.846 26.1182 172.511 26.1367 172.173C26.1748 171.82 26.3179 171.486 26.5478 171.214C26.8425 170.866 27.1901 170.565 27.578 170.323L26.1211 169.484L26.9797 168.966L28.4262 169.8C29.1041 169.463 29.818 169.202 30.5544 169.023C31.2538 168.845 31.965 168.717 32.6826 168.64L33.3903 170.085ZM29.1807 172.675C29.5046 172.862 29.8801 172.942 30.2526 172.903C30.7556 172.848 31.2511 172.739 31.7304 172.577L29.4097 171.24C28.5563 171.789 28.4834 172.266 29.1807 172.67V172.675ZM37.3136 173.349C36.9595 173.157 36.5524 173.084 36.1533 173.141C35.6047 173.215 35.0634 173.334 34.535 173.499L36.8401 174.825C37.8236 174.219 37.9849 173.727 37.3136 173.343V173.349Z" fill="#F9CA06"></path><path d="M32.2923 184.771C44.1954 184.771 53.8448 179.226 53.8448 172.385C53.8448 165.545 44.1954 160 32.2923 160C20.3892 160 10.7397 165.545 10.7397 172.385C10.7397 179.226 20.3892 184.771 32.2923 184.771Z" fill="#9DECE6"></path><path d="M10.7505 172.572V166.926L15.0069 170.702L10.7505 172.572Z" fill="#9DECE6"></path><path d="M53.8448 167.076V172.385L51.6697 174.685L50.603 168.609L53.8448 167.076Z" fill="#9DECE6"></path><path d="M32.2923 179.461C44.1954 179.461 53.8448 173.916 53.8448 167.076C53.8448 160.236 44.1954 154.69 32.2923 154.69C20.3892 154.69 10.7397 160.236 10.7397 167.076C10.7397 173.916 20.3892 179.461 32.2923 179.461Z" fill="#D0FFFB"></path><path d="M47.6944 167.459C47.4758 169.531 45.9824 171.603 43.2038 173.199C37.1783 176.659 27.4115 176.659 21.3859 173.199C18.6073 171.598 17.1139 169.547 16.9006 167.459C16.6352 165.014 18.1338 162.523 21.3859 160.658C27.4115 157.192 37.1783 157.192 43.2038 160.658C46.4507 162.523 47.9493 165.014 47.6944 167.459Z" fill="#CC8B09"></path><path d="M47.6947 167.459C47.4762 169.531 45.9828 171.603 43.2041 173.199C37.1786 176.659 27.4118 176.659 21.3862 173.199C18.6076 171.598 17.1142 169.547 16.9009 167.459C17.1142 165.387 18.6076 163.315 21.3862 161.72C27.4118 158.254 37.1786 158.254 43.2041 161.72C45.9828 163.32 47.4762 165.372 47.6947 167.459Z" fill="#E8A30A"></path><path d="M32.0686 164.558C31.8787 164.556 31.6889 164.57 31.5014 164.6C31.2465 164.636 30.9811 164.688 30.6481 164.755C30.3151 164.823 30.0081 164.905 29.6698 165.004C29.3387 165.103 29.0153 165.226 28.702 165.372L31.1788 166.796L31.6263 166.641C32.2559 166.434 32.8491 166.252 33.4059 166.123C33.932 165.983 34.4705 165.895 35.0137 165.859C35.5068 165.831 36.0014 165.864 36.4863 165.957C36.9828 166.064 37.4589 166.249 37.8964 166.506C38.3182 166.725 38.6765 167.048 38.9371 167.444C39.0266 167.586 39.0869 167.744 39.1146 167.909C39.1423 168.075 39.1368 168.244 39.0984 168.407C38.9905 168.768 38.7896 169.095 38.5156 169.355C38.1753 169.695 37.7964 169.994 37.3865 170.246L38.9475 171.152L38.0838 171.645L36.5227 170.733C35.7641 171.104 34.9713 171.4 34.1552 171.619C33.3035 171.855 32.4331 172.018 31.5535 172.106L30.7261 170.624C30.877 170.624 31.1112 170.624 31.4182 170.572C31.7252 170.521 32.079 170.474 32.4589 170.391C32.8387 170.308 33.2446 170.21 33.6713 170.085C34.0842 169.965 34.4877 169.814 34.8785 169.635L32.4172 168.221L32.0946 168.329L31.7564 168.433C31.1372 168.635 30.57 168.796 30.0497 168.91C29.5733 169.022 29.0871 169.088 28.5979 169.106C28.1679 169.121 27.7378 169.081 27.3179 168.987C26.8983 168.888 26.4965 168.726 26.1263 168.505C25.7153 168.297 25.359 167.995 25.0856 167.625C24.8853 167.35 24.7861 167.016 24.8046 166.677C24.8427 166.324 24.9858 165.99 25.2157 165.719C25.4984 165.366 25.8356 165.06 26.2148 164.812L24.7578 163.973L25.6164 163.455L27.0629 164.289C27.7408 163.951 28.4547 163.691 29.1911 163.512C29.8883 163.332 30.5979 163.204 31.3141 163.129L32.0686 164.558ZM27.8538 167.148C28.1798 167.335 28.5568 167.415 28.931 167.376C29.4324 167.322 29.9262 167.212 30.4035 167.05L28.0984 165.708C27.2416 166.264 27.1601 166.743 27.8538 167.143V167.148ZM35.992 167.832C35.6376 167.641 35.2307 167.568 34.8316 167.625C34.283 167.698 33.7417 167.818 33.2134 167.982L35.5185 169.308C36.5019 168.692 36.6632 168.2 35.992 167.832Z" fill="#CC8B09"></path><path d="M30.7368 170.608C30.7368 170.546 30.7368 169.774 30.7368 169.774L31.6838 170.38L31.2728 171.012L30.7368 170.608Z" fill="#CC8B09"></path><path d="M38.9837 171.137V170.303L36.9336 170.458L38.1148 171.256L38.9837 171.137Z" fill="#CC8B09"></path><path d="M39.161 168.081V167.241L37.626 167.796L39.161 168.081Z" fill="#CC8B09"></path><path d="M32.7812 168.039L33.3016 167.552L35.102 168.79L34.9927 169.153C34.9927 169.153 33.6502 168.588 33.6034 168.557C33.5566 168.526 32.7812 168.039 32.7812 168.039Z" fill="#CC8B09"></path><path d="M28.0981 165.413L30.4865 166.765L30.9756 166.413C30.9756 166.413 30.6738 166.066 30.653 166.035C30.4377 165.792 30.1868 165.582 29.9089 165.413C29.732 165.382 28.5977 164.895 28.5977 164.895L28.0981 165.413Z" fill="#CC8B09"></path><path d="M32.0689 164.558V163.724L30.971 163.367L30.7368 164.02L30.7941 164.32L32.0689 164.558Z" fill="#CC8B09"></path><path d="M24.7783 163.957V163.124L26.048 163.258L25.6369 164.066L24.7783 163.957Z" fill="#CC8B09"></path><path d="M24.8252 166.796V165.916H26.2822L25.9283 166.687L25.2935 167.381L24.8252 166.796Z" fill="#CC8B09"></path><path d="M32.0685 163.724C31.8784 163.724 31.6887 163.74 31.5013 163.771C31.2463 163.807 30.981 163.854 30.6479 163.921C30.3149 163.989 30.0079 164.071 29.6697 164.175C29.3387 164.273 29.0153 164.394 28.7019 164.538L31.1787 165.962L31.6262 165.807C32.2541 165.6 32.8473 165.427 33.4058 165.289C33.9319 165.149 34.4703 165.061 35.0136 165.025C35.5067 164.992 36.002 165.025 36.4862 165.123C36.9834 165.228 37.4598 165.413 37.8963 165.672C38.3176 165.889 38.6759 166.21 38.937 166.604C39.0265 166.747 39.0868 166.905 39.1145 167.07C39.1422 167.236 39.1367 167.405 39.0983 167.568C38.9915 167.93 38.7905 168.257 38.5155 168.516C38.1835 168.848 37.8132 169.14 37.4124 169.386L38.9734 170.293L38.1096 170.811L36.5486 169.899C35.7902 170.271 34.9973 170.57 34.1811 170.79C33.3287 171.022 32.4585 171.183 31.5794 171.272L30.752 169.79C30.9835 169.786 31.2145 169.768 31.4441 169.738C31.7563 169.702 32.1049 169.645 32.4847 169.562C32.8646 169.479 33.2705 169.376 33.6971 169.251C34.1092 169.13 34.5126 168.982 34.9043 168.806L32.4431 167.387L32.1205 167.501L31.7823 167.599C31.1631 167.806 30.5959 167.962 30.0756 168.081C29.5986 168.189 29.1126 168.253 28.6238 168.272C28.1937 168.289 27.7633 168.249 27.3438 168.153C26.9252 168.054 26.5236 167.893 26.1522 167.677C25.7424 167.466 25.3864 167.165 25.1115 166.796C24.912 166.519 24.8129 166.183 24.8305 165.843C24.8686 165.49 25.0117 165.156 25.2416 164.885C25.5257 164.533 25.8627 164.227 26.2406 163.978L24.7837 163.139L25.6423 162.621L27.0888 163.45C27.7677 163.115 28.4813 162.854 29.217 162.673C29.9147 162.496 30.6242 162.367 31.34 162.29L32.0685 163.724ZM27.8537 166.314C28.1801 166.501 28.5562 166.582 28.9308 166.548C29.4319 166.488 29.9254 166.377 30.4034 166.216L28.0983 164.88C27.2414 165.432 27.1599 165.909 27.8537 166.309V166.314ZM35.9919 166.988C35.6377 166.796 35.2301 166.725 34.8315 166.786C34.2826 166.855 33.741 166.973 33.2132 167.138L35.5183 168.464C36.5018 167.858 36.6631 167.371 35.9919 166.983V166.988Z" fill="#F9CA06"></path><path d="M34.1028 178.979C46.006 178.979 55.6554 173.434 55.6554 166.594C55.6554 159.754 46.006 154.208 34.1028 154.208C22.1997 154.208 12.5503 159.754 12.5503 166.594C12.5503 173.434 22.1997 178.979 34.1028 178.979Z" fill="#9DECE6"></path><path d="M12.5557 166.786V161.139L16.8121 164.916L12.5557 166.786Z" fill="#9DECE6"></path><path d="M55.6556 161.29V166.594L53.4754 168.899L52.4087 162.818L55.6556 161.29Z" fill="#9DECE6"></path><path d="M34.1028 173.675C46.006 173.675 55.6554 168.13 55.6554 161.29C55.6554 154.449 46.006 148.904 34.1028 148.904C22.1997 148.904 12.5503 154.449 12.5503 161.29C12.5503 168.13 22.1997 173.675 34.1028 173.675Z" fill="#D0FFFB"></path><path d="M49.5051 161.673C49.2866 163.745 47.7932 165.817 45.0146 167.413C38.989 170.873 29.217 170.873 23.1915 167.413C20.4128 165.812 18.9195 163.755 18.7061 161.673C18.4459 159.228 19.9445 156.737 23.1915 154.872C29.217 151.406 38.989 151.406 45.0146 154.872C48.2615 156.737 49.7601 159.228 49.5051 161.673Z" fill="#CC8B09"></path><path d="M49.5051 161.673C49.2865 163.745 47.7931 165.817 45.0145 167.412C38.989 170.873 29.217 170.873 23.1914 167.412C20.4128 165.812 18.9194 163.755 18.7061 161.673C18.9194 159.601 20.4128 157.529 23.1914 155.934C29.217 152.468 38.989 152.468 45.0145 155.934C47.7931 157.529 49.2865 159.585 49.5051 161.673Z" fill="#E8A30A"></path><path d="M33.874 158.767C33.6857 158.767 33.4977 158.782 33.312 158.814C33.057 158.85 32.7917 158.902 32.4586 158.969C32.1267 159.035 31.7985 159.118 31.4752 159.218C31.1441 159.317 30.8206 159.44 30.5074 159.585L32.9894 161.01L33.4317 160.855C34.0613 160.642 34.6545 160.466 35.2165 160.337C35.7408 160.197 36.2775 160.108 36.8191 160.072C37.3139 160.042 37.8106 160.075 38.2969 160.171C38.7931 160.278 39.2691 160.464 39.707 160.72C40.1272 160.938 40.4852 161.259 40.7477 161.652C40.8376 161.794 40.8978 161.953 40.9247 162.118C40.9515 162.284 40.9444 162.453 40.9038 162.616C40.7982 162.978 40.5991 163.307 40.3262 163.569C39.984 163.909 39.6033 164.208 39.1919 164.46L40.7529 165.361L39.8943 165.879L38.3021 164.962C37.5455 165.335 36.7543 165.633 35.9397 165.853C35.0881 166.089 34.2177 166.252 33.338 166.34L32.5055 164.859C32.7387 164.852 32.9715 164.833 33.2027 164.802C33.5097 164.765 33.8584 164.708 34.2434 164.626C34.6285 164.543 35.0291 164.439 35.4558 164.32C35.8705 164.199 36.2757 164.049 36.6682 163.869L34.2018 162.455L33.8792 162.564C33.7699 162.6 33.6606 162.636 33.541 162.668C32.9217 162.87 32.3546 163.03 31.8394 163.144C31.3612 163.255 30.8732 163.319 30.3825 163.336C29.9625 163.334 29.5445 163.278 29.1389 163.17C28.7215 163.072 28.3215 162.911 27.9525 162.693C27.543 162.482 27.1871 162.181 26.9118 161.813C26.713 161.538 26.6156 161.203 26.636 160.865C26.6706 160.51 26.8121 160.175 27.0419 159.901C27.3302 159.561 27.6688 159.266 28.0461 159.026L26.584 158.182L27.4425 157.69L28.8891 158.508C29.5685 158.173 30.282 157.91 31.0173 157.726C31.7173 157.551 32.4283 157.423 33.1455 157.343L33.874 158.767ZM29.6644 161.357C29.9892 161.542 30.3639 161.622 30.7363 161.585C31.2395 161.528 31.7351 161.417 32.2141 161.253L29.8934 159.922C29.0435 160.478 28.9654 160.956 29.6592 161.357H29.6644ZM37.8026 162.03C37.448 161.84 37.0413 161.767 36.6422 161.823C36.0936 161.894 35.5522 162.012 35.0239 162.175L37.329 163.502C38.3107 162.908 38.4686 162.417 37.8026 162.03Z" fill="#CC8B09"></path><path d="M32.542 164.822C32.568 164.76 32.542 163.988 32.542 163.988L33.489 164.594L33.0779 165.242L32.542 164.822Z" fill="#CC8B09"></path><path d="M40.7943 165.346V164.517L38.7441 164.672L39.9201 165.47L40.7943 165.346Z" fill="#CC8B09"></path><path d="M40.9662 162.295V161.455L39.4312 162.004L40.9662 162.295Z" fill="#CC8B09"></path><path d="M34.6128 162.248L35.1331 161.761L36.9335 163.004L36.819 163.367C36.819 163.367 35.4766 162.802 35.4349 162.771C35.3933 162.74 34.6128 162.248 34.6128 162.248Z" fill="#CC8B09"></path><path d="M29.8984 159.627L32.2868 160.974L32.7759 160.621C32.7759 160.621 32.4793 160.28 32.4585 160.248C32.2425 160.004 31.9898 159.794 31.7092 159.627C31.5323 159.596 30.4032 159.109 30.4032 159.109L29.8984 159.627Z" fill="#CC8B09"></path><path d="M33.8741 158.767V157.938L32.7761 157.581L32.542 158.233L32.5992 158.534L33.8741 158.767Z" fill="#CC8B09"></path><path d="M26.584 158.166V157.337L27.8588 157.472L27.4478 158.28L26.584 158.166Z" fill="#CC8B09"></path><path d="M26.6309 160.994V160.124H28.0982L27.7444 160.901L27.0992 161.616L26.6309 160.994Z" fill="#CC8B09"></path><path d="M33.8739 157.938C33.682 157.939 33.4905 157.956 33.3016 157.99C33.0466 158.021 32.7812 158.073 32.4482 158.14C32.1152 158.208 31.803 158.29 31.4647 158.389C31.1344 158.49 30.8111 158.613 30.4969 158.757L32.9789 160.181L33.4212 160.026C34.0508 159.819 34.644 159.642 35.206 159.508C35.7299 159.367 36.267 159.28 36.8087 159.249C37.3034 159.216 37.8005 159.249 38.2864 159.347C38.7831 159.451 39.2595 159.634 39.6965 159.891C40.1162 160.113 40.4739 160.435 40.7372 160.829C40.8272 160.97 40.8874 161.129 40.9142 161.294C40.941 161.46 40.9339 161.629 40.8933 161.792C40.7887 162.154 40.5894 162.481 40.3158 162.74C39.9749 163.081 39.594 163.38 39.1814 163.631L40.7424 164.538L39.8839 165.03L38.2916 164.118C37.5358 164.491 36.7444 164.788 35.9293 165.004C35.0776 165.24 34.2072 165.403 33.3276 165.491L32.495 164.009C32.7282 164.005 32.961 163.987 33.1923 163.957C33.4993 163.921 33.8479 163.864 34.233 163.781C34.618 163.698 35.0187 163.595 35.4454 163.47C35.86 163.35 36.2652 163.199 36.6578 163.02L34.1913 161.606C34.0873 161.642 33.978 161.683 33.8687 161.714C33.7594 161.745 33.6502 161.787 33.5305 161.818C32.9113 162.02 32.3441 162.181 31.829 162.295C31.3509 162.407 30.8629 162.473 30.372 162.491C29.942 162.506 29.5119 162.466 29.092 162.372C28.6753 162.272 28.2756 162.111 27.9056 161.896C27.4977 161.682 27.1423 161.381 26.8649 161.015C26.6665 160.738 26.5692 160.402 26.5891 160.062C26.6228 159.709 26.7645 159.374 26.995 159.104C27.2797 158.751 27.6187 158.445 27.9993 158.197L26.5371 157.358L27.3957 156.84L28.8422 157.674C29.5209 157.338 30.2345 157.078 30.9704 156.897C31.6699 156.72 32.3811 156.592 33.0986 156.514L33.8739 157.938ZM29.6644 160.528C29.9883 160.716 30.3637 160.795 30.7363 160.756C31.2394 160.702 31.7349 160.592 32.214 160.43L29.8933 159.093C29.0452 159.642 28.9671 160.124 29.6592 160.523L29.6644 160.528ZM37.8025 161.202C37.448 161.011 37.0412 160.938 36.6421 160.994C36.0935 161.067 35.5521 161.187 35.0239 161.352L37.329 162.652C38.3107 162.065 38.4685 161.58 37.8025 161.196V161.202Z" fill="#F9CA06"></path><path d="M32.9637 173.069C44.8668 173.069 54.5162 167.524 54.5162 160.684C54.5162 153.843 44.8668 148.298 32.9637 148.298C21.0605 148.298 11.4111 153.843 11.4111 160.684C11.4111 167.524 21.0605 173.069 32.9637 173.069Z" fill="#9DECE6"></path><path d="M11.4219 160.87V155.229L15.6783 159L11.4219 160.87Z" fill="#9DECE6"></path><path d="M54.5161 155.374V160.684L52.3411 162.983L51.2744 156.907L54.5161 155.374Z" fill="#9DECE6"></path><path d="M32.9637 167.76C44.8668 167.76 54.5162 162.214 54.5162 155.374C54.5162 148.534 44.8668 142.989 32.9637 142.989C21.0605 142.989 11.4111 148.534 11.4111 155.374C11.4111 162.214 21.0605 167.76 32.9637 167.76Z" fill="#D0FFFB"></path><path d="M93.5418 249.956C105.445 249.956 115.094 244.411 115.094 237.57C115.094 230.73 105.445 225.185 93.5418 225.185C81.6387 225.185 71.9893 230.73 71.9893 237.57C71.9893 244.411 81.6387 249.956 93.5418 249.956Z" fill="#9DECE6"></path><path d="M72 237.757V232.111L76.2564 235.887L72 237.757Z" fill="#9DECE6"></path><path d="M115.094 232.261V237.57L112.919 239.87L111.853 233.789L115.094 232.261Z" fill="#9DECE6"></path><path d="M93.5418 244.646C105.445 244.646 115.094 239.101 115.094 232.261C115.094 225.421 105.445 219.875 93.5418 219.875C81.6387 219.875 71.9893 225.421 71.9893 232.261C71.9893 239.101 81.6387 244.646 93.5418 244.646Z" fill="#D0FFFB"></path><path d="M108.944 232.644C108.725 234.716 107.232 236.788 104.453 238.384C98.4277 241.844 88.6609 241.844 82.6353 238.384C79.8567 236.783 78.3633 234.732 78.15 232.644C77.8898 230.199 79.3884 227.708 82.6353 225.843C88.6609 222.378 98.4277 222.378 104.453 225.843C107.711 227.708 109.204 230.199 108.944 232.644Z" fill="#CC8B09"></path><path d="M108.944 232.644C108.726 234.716 107.232 236.788 104.454 238.384C98.4281 241.844 88.6613 241.844 82.6357 238.384C79.8571 236.783 78.3637 234.732 78.1504 232.644C78.3637 230.572 79.8571 228.5 82.6357 226.905C88.6613 223.439 98.4281 223.439 104.454 226.905C107.232 228.505 108.752 230.557 108.944 232.644Z" fill="#E8A30A"></path><path d="M93.318 229.743C93.1281 229.743 92.9386 229.757 92.7508 229.785C92.501 229.821 92.2304 229.873 91.8974 229.94C91.5644 230.007 91.2574 230.09 90.9192 230.189C90.5881 230.288 90.2646 230.411 89.9513 230.557L92.4282 231.981L92.8757 231.826C93.5053 231.618 94.0985 231.437 94.6552 231.308C95.1809 231.163 95.7193 231.07 96.2631 231.028C96.7561 231 97.2508 231.033 97.7357 231.126C98.2325 231.232 98.7088 231.417 99.1458 231.675C99.5774 231.892 99.9463 232.215 100.218 232.613C100.394 232.901 100.451 233.247 100.374 233.576C100.266 233.938 100.065 234.264 99.791 234.524C99.4518 234.865 99.0727 235.164 98.6619 235.415L100.223 236.322L99.3591 236.814L97.7981 235.902C97.0409 236.272 96.2499 236.569 95.4357 236.788C94.5839 237.023 93.7135 237.186 92.834 237.275L92.0015 235.794C92.1524 235.794 92.3865 235.794 92.6935 235.742C93.0005 235.69 93.3544 235.643 93.7342 235.56C94.1141 235.478 94.5199 235.379 94.9466 235.255C95.3596 235.134 95.7631 234.984 96.1538 234.804L93.6614 233.39L93.3388 233.499L93.0005 233.602C92.3813 233.804 91.8142 233.965 91.2938 234.079C90.8174 234.191 90.3312 234.257 89.8421 234.276C89.4121 234.29 88.982 234.25 88.562 234.157C88.1428 234.057 87.7411 233.894 87.3705 233.675C86.9595 233.466 86.6031 233.164 86.3298 232.794C86.1318 232.519 86.0328 232.185 86.0488 231.846C86.0868 231.493 86.23 231.16 86.4599 230.888C86.7439 230.536 87.0809 230.231 87.4589 229.982L86.002 229.142L86.8605 228.624L88.3071 229.458C88.9853 229.122 89.6991 228.861 90.4353 228.681C91.1341 228.501 91.8455 228.373 92.5635 228.298L93.318 229.743ZM89.1084 232.333C89.4323 232.521 89.8077 232.6 90.1803 232.561C90.6833 232.506 91.1788 232.397 91.6581 232.235L89.3373 230.898C88.484 231.448 88.4111 231.924 89.1084 232.328V232.333ZM97.2413 233.007C96.8871 232.815 96.4801 232.742 96.081 232.799C95.5324 232.873 94.991 232.993 94.4627 233.157L96.7678 234.483C97.7513 233.877 97.9126 233.385 97.2413 233.002V233.007Z" fill="#CC8B09"></path><path d="M91.9863 235.794C92.0123 235.732 91.9863 234.96 91.9863 234.96L92.9334 235.566L92.5223 236.198L91.9863 235.794Z" fill="#CC8B09"></path><path d="M100.239 236.322V235.488L98.1885 235.643L99.3645 236.441L100.239 236.322Z" fill="#CC8B09"></path><path d="M100.41 233.266V232.427L98.8755 232.981L100.41 233.266Z" fill="#CC8B09"></path><path d="M94.0518 233.224L94.5721 232.737L96.3725 233.975L96.258 234.338C96.258 234.338 94.9155 233.773 94.8687 233.742C94.8219 233.711 94.0518 233.224 94.0518 233.224Z" fill="#CC8B09"></path><path d="M89.3428 230.603L91.7312 231.95L92.2203 231.598C92.2203 231.598 91.9185 231.251 91.8977 231.22C91.6833 230.977 91.4323 230.769 91.1536 230.603C90.9767 230.567 89.8423 230.085 89.8423 230.085L89.3428 230.603Z" fill="#CC8B09"></path><path d="M93.3184 229.743V228.909L92.2205 228.557L91.9863 229.21L92.0436 229.505L93.3184 229.743Z" fill="#CC8B09"></path><path d="M86.0278 229.143V228.309L87.2975 228.443L86.8864 229.251L86.0278 229.143Z" fill="#CC8B09"></path><path d="M86.0747 231.966V231.101H87.5317L87.1778 231.872L86.543 232.582L86.0747 231.966Z" fill="#CC8B09"></path><path d="M93.318 228.91C93.1279 228.909 92.9382 228.925 92.7508 228.956C92.501 228.992 92.2304 229.039 91.8974 229.106C91.5644 229.174 91.2574 229.257 90.9192 229.36C90.5882 229.458 90.2647 229.579 89.9513 229.723L92.4282 231.147L92.8757 230.992C93.5035 230.785 94.0967 230.612 94.6552 230.474C95.1814 230.335 95.7199 230.246 96.2631 230.21C96.7562 230.177 97.2514 230.21 97.7357 230.308C98.2331 230.412 98.7097 230.597 99.1458 230.857C99.5769 231.072 99.9458 231.393 100.218 231.79C100.394 232.078 100.451 232.424 100.374 232.753C100.267 233.115 100.066 233.442 99.791 233.701C99.4531 234.043 99.0738 234.343 98.6619 234.592L100.223 235.499L99.3591 235.991L97.7981 235.079C97.0411 235.451 96.25 235.749 95.4357 235.97C94.5832 236.201 93.713 236.362 92.834 236.452L92.0015 234.97C92.2329 234.966 92.464 234.948 92.6935 234.918C93.0057 234.882 93.3544 234.825 93.7342 234.742C94.1141 234.659 94.5199 234.556 94.9466 234.431C95.3587 234.31 95.762 234.162 96.1538 233.986L93.6614 232.582L93.3388 232.696L93.0005 232.8C92.3813 233.002 91.8142 233.157 91.2938 233.276C90.8168 233.384 90.3309 233.449 89.8421 233.468C89.412 233.485 88.9815 233.445 88.562 233.349C88.1437 233.248 87.7423 233.088 87.3705 232.872C86.9606 232.662 86.6046 232.36 86.3298 231.992C86.1339 231.713 86.0352 231.378 86.0488 231.039C86.0868 230.685 86.23 230.352 86.4599 230.08C86.7453 229.73 87.0821 229.424 87.4589 229.174L86.002 228.335L86.8605 227.843L88.3071 228.671C88.9863 228.337 89.6998 228.076 90.4353 227.894C91.1352 227.719 91.8462 227.591 92.5635 227.511L93.318 228.91ZM89.1084 231.5C89.4326 231.686 89.8073 231.768 90.1803 231.733C90.683 231.673 91.1782 231.562 91.6581 231.401L89.3373 230.07C88.484 230.619 88.4111 231.096 89.1084 231.494V231.5ZM97.2413 232.173C96.8873 231.981 96.4795 231.91 96.081 231.971C95.532 232.04 94.9904 232.158 94.4627 232.323L96.7678 233.649C97.7513 233.048 97.9126 232.582 97.2413 232.168V232.173Z" fill="#F9CA06"></path><path d="M95.3055 243.346C107.209 243.346 116.858 237.801 116.858 230.961C116.858 224.121 107.209 218.575 95.3055 218.575C83.4023 218.575 73.7529 224.121 73.7529 230.961C73.7529 237.801 83.4023 243.346 95.3055 243.346Z" fill="#9DECE6"></path><path d="M73.7583 231.152V225.506L78.0147 229.282L73.7583 231.152Z" fill="#9DECE6"></path><path d="M116.858 225.656V230.961L114.678 233.266L113.611 227.184L116.858 225.656Z" fill="#9DECE6"></path><path d="M95.3055 238.042C107.209 238.042 116.858 232.497 116.858 225.656C116.858 218.816 107.209 213.271 95.3055 213.271C83.4023 213.271 73.7529 218.816 73.7529 225.656C73.7529 232.497 83.4023 238.042 95.3055 238.042Z" fill="#D0FFFB"></path><path d="M110.708 226.04C110.489 228.112 108.996 230.184 106.217 231.779C100.192 235.239 90.4196 235.239 84.3941 231.779C81.6155 230.179 80.1221 228.122 79.9088 226.04C79.6486 223.595 81.1472 221.103 84.3941 219.238C90.4196 215.773 100.192 215.773 106.217 219.238C109.464 221.103 110.963 223.595 110.708 226.04Z" fill="#CC8B09"></path><path d="M110.708 226.04C110.489 228.112 108.996 230.184 106.217 231.779C100.192 235.239 90.4196 235.239 84.394 231.779C81.6154 230.178 80.122 228.122 79.9087 226.04C80.122 223.968 81.6154 221.896 84.394 220.3C90.4196 216.835 100.192 216.835 106.217 220.3C108.996 221.896 110.489 223.952 110.708 226.04Z" fill="#E8A30A"></path><path d="M95.0764 223.134C94.8881 223.133 94.7001 223.149 94.5144 223.18C94.2595 223.217 93.9941 223.268 93.6611 223.336C93.3281 223.403 93.0159 223.486 92.6776 223.584C92.3465 223.683 92.0231 223.806 91.7098 223.952L94.1918 225.377L94.6341 225.221C95.2637 225.009 95.8569 224.833 96.4189 224.703C96.9432 224.564 97.48 224.475 98.0215 224.439C98.5163 224.409 99.013 224.442 99.4993 224.537C99.9956 224.645 100.472 224.83 100.909 225.086C101.33 225.305 101.688 225.626 101.95 226.019C102.04 226.161 102.1 226.319 102.127 226.485C102.154 226.65 102.147 226.82 102.106 226.982C102.002 227.345 101.802 227.674 101.529 227.935C101.186 228.275 100.806 228.574 100.394 228.826L101.955 229.728L101.097 230.246L99.5045 229.329C98.748 229.701 97.9568 230 97.1422 230.22C96.2905 230.456 95.4201 230.619 94.5405 230.707L93.7079 229.225C93.9412 229.218 94.1739 229.199 94.4052 229.168C94.7552 229.129 95.1026 229.071 95.4458 228.992C95.8309 228.909 96.2316 228.806 96.6582 228.687C97.0729 228.566 97.4781 228.415 97.8706 228.236L95.4042 226.822L95.0816 226.931L94.7486 227.034C94.1242 227.236 93.557 227.397 93.0419 227.511C92.5654 227.621 92.0791 227.686 91.5901 227.702C91.1583 227.719 90.7261 227.679 90.3049 227.583C89.8875 227.485 89.4875 227.324 89.1185 227.107C88.709 226.896 88.3531 226.594 88.0778 226.226C87.879 225.951 87.7816 225.616 87.802 225.278C87.8366 224.924 87.9781 224.588 88.2079 224.315C88.4943 223.965 88.833 223.661 89.2122 223.413L87.75 222.569L88.6086 222.051L90.0551 222.885C90.7346 222.55 91.448 222.287 92.1833 222.103C92.8833 221.928 93.5943 221.8 94.3115 221.719L95.0764 223.134ZM90.8668 225.724C91.1933 225.909 91.5698 225.989 91.9439 225.952C92.4454 225.894 92.9391 225.783 93.4165 225.62L91.0958 224.294C90.2494 224.846 90.1731 225.323 90.8668 225.724ZM99.005 226.397C98.6504 226.206 98.2437 226.134 97.8446 226.19C97.296 226.261 96.7546 226.379 96.2264 226.542L98.5315 227.868C99.5167 227.274 99.6745 226.784 99.005 226.397Z" fill="#CC8B09"></path><path d="M93.7446 229.189C93.7706 229.127 93.7446 228.355 93.7446 228.355L94.702 228.956L94.291 229.588L93.7446 229.189Z" fill="#CC8B09"></path><path d="M101.997 229.712V228.883L99.9468 229.039L101.123 229.836L101.997 229.712Z" fill="#CC8B09"></path><path d="M102.169 226.661V225.822L100.639 226.371L102.169 226.661Z" fill="#CC8B09"></path><path d="M95.8154 226.615L96.3358 226.128L98.1362 227.371L98.0269 227.734C98.0269 227.734 96.6792 227.169 96.6376 227.138C96.5959 227.107 95.8154 226.615 95.8154 226.615Z" fill="#CC8B09"></path><path d="M91.1064 223.994L93.4948 225.346L93.9839 224.988C93.9839 224.988 93.6821 224.646 93.6613 224.615C93.4461 224.372 93.1953 224.162 92.9172 223.994C92.7351 223.963 91.606 223.476 91.606 223.476L91.1064 223.994Z" fill="#CC8B09"></path><path d="M95.0767 223.134V222.305L93.984 221.948L93.7446 222.6L93.8019 222.901L95.0767 223.134Z" fill="#CC8B09"></path><path d="M87.7866 222.533V221.704L89.0615 221.839L88.6504 222.647L87.7866 222.533Z" fill="#CC8B09"></path><path d="M87.8335 225.361V224.491H89.2957L88.9366 225.268L88.3018 225.957L87.8335 225.361Z" fill="#CC8B09"></path><path d="M95.0766 222.305C94.8883 222.305 94.7003 222.32 94.5146 222.351C94.2597 222.388 93.9943 222.434 93.6613 222.502C93.3283 222.569 93.0161 222.652 92.6778 222.75C92.3475 222.852 92.0242 222.975 91.71 223.118L94.192 224.543L94.6343 224.387C95.2639 224.18 95.8571 224.004 96.4191 223.869C96.943 223.729 97.48 223.642 98.0217 223.61C98.5165 223.577 99.0135 223.61 99.4995 223.709C99.9962 223.812 100.473 223.996 100.91 224.253C101.329 224.474 101.687 224.796 101.95 225.19C102.04 225.332 102.1 225.49 102.127 225.656C102.154 225.822 102.147 225.991 102.106 226.154C102.002 226.515 101.802 226.842 101.529 227.102C101.188 227.443 100.807 227.742 100.394 227.993L101.956 228.899L101.097 229.391L99.5047 228.479C98.7489 228.852 97.9575 229.149 97.1424 229.365C96.2907 229.601 95.4203 229.764 94.5407 229.852L93.7081 228.371C93.9413 228.366 94.1741 228.349 94.4054 228.319C94.7176 228.283 95.061 228.226 95.446 228.143C95.8311 228.06 96.2318 227.956 96.6584 227.832C97.0731 227.711 97.4783 227.561 97.8708 227.381L95.4044 225.967C95.3004 226.003 95.1911 226.045 95.0818 226.076L94.7488 226.18C94.1244 226.387 93.5572 226.542 93.0421 226.661C92.5651 226.769 92.0791 226.834 91.5903 226.853C91.1586 226.867 90.7267 226.827 90.3051 226.734C89.8884 226.633 89.4887 226.473 89.1187 226.257C88.7108 226.044 88.3554 225.743 88.078 225.377C87.8796 225.1 87.7823 224.763 87.8022 224.423C87.8359 224.07 87.9776 223.736 88.2081 223.465C88.4928 223.112 88.8318 222.806 89.2124 222.559L87.7866 221.704L88.6452 221.186L90.0917 222.02C90.7704 221.684 91.4841 221.423 92.2199 221.243C92.9194 221.066 93.6306 220.937 94.3481 220.86L95.0766 222.305ZM90.867 224.895C91.1926 225.083 91.5699 225.163 91.9441 225.123C92.4455 225.068 92.9392 224.958 93.4167 224.796L91.096 223.46C90.2478 224.009 90.1698 224.491 90.867 224.89V224.895ZM99.0052 225.568C98.6506 225.377 98.2439 225.305 97.8448 225.361C97.2961 225.434 96.7548 225.554 96.2266 225.718L98.5317 227.045C99.5169 226.44 99.6747 225.946 99.0052 225.563V225.568Z" fill="#F9CA06"></path><path d="M93.9837 236.99C105.887 236.99 115.536 231.445 115.536 224.605C115.536 217.765 105.887 212.219 93.9837 212.219C82.0806 212.219 72.4312 217.765 72.4312 224.605C72.4312 231.445 82.0806 236.99 93.9837 236.99Z" fill="#9DECE6"></path><path d="M72.4365 224.791V219.145L76.6929 222.921L72.4365 224.791Z" fill="#9DECE6"></path><path d="M115.536 219.295V224.605L113.356 226.905L112.29 220.828L115.536 219.295Z" fill="#9DECE6"></path><path d="M93.9837 231.681C105.887 231.681 115.536 226.136 115.536 219.295C115.536 212.455 105.887 206.91 93.9837 206.91C82.0806 206.91 72.4312 212.455 72.4312 219.295C72.4312 226.136 82.0806 231.681 93.9837 231.681Z" fill="#D0FFFB"></path><path d="M109.386 219.679C109.167 221.751 107.674 223.823 104.895 225.418C98.8699 228.878 89.0979 228.878 83.0723 225.418C80.2937 223.818 78.8003 221.766 78.587 219.679C78.3268 217.239 79.8254 214.742 83.0723 212.877C89.0979 209.412 98.8699 209.412 104.895 212.877C108.142 214.742 109.641 217.239 109.386 219.679Z" fill="#CC8B09"></path><path d="M109.386 219.679C109.167 221.751 107.674 223.823 104.895 225.418C98.8698 228.878 89.0978 228.878 83.0723 225.418C80.2936 223.817 78.8003 221.766 78.5869 219.679C78.8003 217.607 80.2936 215.535 83.0723 213.939C89.0978 210.474 98.8698 210.474 104.895 213.939C107.674 215.54 109.167 217.591 109.386 219.679Z" fill="#E8A30A"></path><path d="M93.7547 216.778C93.5666 216.778 93.3787 216.792 93.1927 216.819C92.9377 216.856 92.6724 216.907 92.3393 216.975C92.0063 217.042 91.6941 217.125 91.3559 217.223C91.0256 217.325 90.7023 217.448 90.3881 217.591L92.8701 219.016L93.3124 218.86C93.942 218.653 94.5352 218.472 95.0972 218.342C95.6215 218.203 96.1582 218.114 96.6998 218.078C97.1948 218.049 97.6915 218.084 98.1776 218.182C98.6743 218.285 99.1506 218.469 99.5877 218.726C100.017 218.944 100.384 219.266 100.654 219.663C100.744 219.805 100.805 219.963 100.831 220.129C100.858 220.295 100.851 220.464 100.811 220.627C100.706 220.988 100.507 221.315 100.233 221.575C99.892 221.916 99.5112 222.215 99.0986 222.466L100.66 223.372L99.801 223.864L98.2088 222.952C97.4521 223.323 96.6609 223.62 95.8464 223.838C94.9948 224.074 94.1244 224.237 93.2447 224.325L92.4122 222.844C92.6454 222.839 92.8782 222.822 93.1095 222.792C93.4165 222.756 93.7651 222.693 94.1501 222.611C94.5352 222.528 94.9359 222.429 95.3625 222.305C95.7772 222.184 96.1824 222.034 96.5749 221.854L94.1085 220.44L93.7859 220.549C93.6766 220.585 93.5673 220.621 93.4477 220.653C92.8285 220.855 92.2613 221.015 91.7462 221.129C91.2681 221.242 90.7801 221.308 90.2892 221.326C89.8592 221.34 89.4291 221.3 89.0092 221.207C88.5925 221.106 88.1928 220.946 87.8228 220.73C87.4129 220.517 87.0571 220.214 86.7821 219.844C86.5833 219.57 86.4859 219.235 86.5063 218.897C86.54 218.543 86.6817 218.209 86.9122 217.938C87.204 217.587 87.55 217.285 87.9373 217.042L86.4751 216.203L87.3337 215.685L88.7698 216.524C89.4484 216.188 90.1621 215.928 90.898 215.747C91.5975 215.57 92.3086 215.442 93.0262 215.364L93.7547 216.778ZM89.5451 219.368C89.869 219.555 90.2445 219.635 90.617 219.596C91.1201 219.541 91.6157 219.432 92.0948 219.269L89.7741 217.933C88.9259 218.482 88.8479 218.964 89.5451 219.363V219.368ZM97.6832 220.041C97.3287 219.85 96.922 219.778 96.5229 219.834C95.9742 219.907 95.4328 220.027 94.9046 220.192L97.2097 221.518C98.1949 220.913 98.3528 220.419 97.6832 220.036V220.041Z" fill="#CC8B09"></path><path d="M92.4229 222.828C92.4229 222.766 92.4229 221.994 92.4229 221.994L93.3699 222.6L92.9588 223.232L92.4229 222.828Z" fill="#CC8B09"></path><path d="M100.675 223.356V222.522L98.625 222.678L99.801 223.481L100.675 223.356Z" fill="#CC8B09"></path><path d="M100.847 220.3V219.461L99.312 220.015L100.847 220.3Z" fill="#CC8B09"></path><path d="M94.4937 220.259L95.014 219.772L96.8144 221.01L96.7051 221.373C96.7051 221.373 95.3574 220.808 95.3158 220.777L94.4937 220.259Z" fill="#CC8B09"></path><path d="M89.7793 217.638L92.1729 218.984L92.6568 218.632C92.6568 218.632 92.3602 218.29 92.3394 218.254C92.3186 218.218 91.7722 217.669 91.5901 217.638C91.408 217.607 90.284 217.12 90.284 217.12L89.7793 217.638Z" fill="#CC8B09"></path><path d="M93.7549 216.778V215.944L92.657 215.592L92.4229 216.244L92.4801 216.539L93.7549 216.778Z" fill="#CC8B09"></path><path d="M86.4648 216.177V215.343L87.7397 215.478L87.3286 216.286L86.4648 216.177Z" fill="#CC8B09"></path><path d="M86.5117 219V218.135H87.9687L87.6148 218.907L86.98 219.601L86.5117 219Z" fill="#CC8B09"></path><path d="M93.7545 215.944C93.5662 215.944 93.3782 215.959 93.1925 215.991C92.9376 216.027 92.6722 216.079 92.3392 216.141C92.0061 216.203 91.6939 216.291 91.3557 216.395C91.0238 216.491 90.7002 216.614 90.3879 216.762L92.8699 218.182L93.3122 218.026C93.9418 217.819 94.535 217.643 95.097 217.508C95.6213 217.369 96.1581 217.28 96.6996 217.244C97.1944 217.211 97.6914 217.244 98.1774 217.343C98.6736 217.45 99.1496 217.636 99.5875 217.892C100.017 218.107 100.384 218.428 100.654 218.824C100.744 218.966 100.804 219.124 100.831 219.29C100.858 219.455 100.851 219.625 100.81 219.787C100.705 220.15 100.506 220.479 100.233 220.741C99.8903 221.079 99.5096 221.376 99.0984 221.626L100.659 222.533L99.8009 223.025L98.2086 222.113C97.4521 222.486 96.6609 222.784 95.8463 223.004C94.9941 223.238 94.1238 223.401 93.2446 223.491L92.412 222.005C92.6452 222 92.878 221.983 93.1093 221.953C93.4163 221.916 93.7649 221.86 94.15 221.777C94.535 221.694 94.9357 221.59 95.3623 221.466C95.7769 221.347 96.1821 221.198 96.5747 221.02L94.1083 219.601L93.7857 219.715L93.4475 219.819C92.8283 220.021 92.2611 220.181 91.746 220.295C91.2678 220.406 90.7798 220.47 90.289 220.487C89.8589 220.504 89.4285 220.464 89.009 220.368C88.5923 220.267 88.1926 220.107 87.8226 219.891C87.4147 219.678 87.0593 219.377 86.7819 219.01C86.5835 218.733 86.4862 218.397 86.5061 218.057C86.5408 217.704 86.6823 217.37 86.912 217.099C87.1981 216.747 87.5368 216.442 87.9163 216.193L86.4541 215.353L87.3127 214.835L88.7592 215.664C89.4398 215.333 90.153 215.072 90.8874 214.887C91.5874 214.712 92.2984 214.584 93.0156 214.504L93.7545 215.944ZM89.5449 218.534C89.8692 218.721 90.2439 218.802 90.6168 218.767C91.1197 218.708 91.6149 218.597 92.0946 218.436L89.7739 217.104C88.9275 217.657 88.8511 218.132 89.5449 218.529V218.534ZM97.6831 219.213C97.3294 219.019 96.9218 218.946 96.5227 219.005C95.9737 219.074 95.432 219.192 94.9044 219.358L97.2096 220.684C98.1947 220.086 98.3526 219.594 97.6831 219.207V219.213Z" fill="#F9CA06"></path><path d="M95.8157 230.857C107.719 230.857 117.368 225.312 117.368 218.472C117.368 211.632 107.719 206.086 95.8157 206.086C83.9126 206.086 74.2632 211.632 74.2632 218.472C74.2632 225.312 83.9126 230.857 95.8157 230.857Z" fill="#9DECE6"></path><path d="M74.2686 218.658V213.012L78.5301 216.788L74.2686 218.658Z" fill="#9DECE6"></path><path d="M117.369 213.162V218.466L115.193 220.772L114.122 214.69L117.369 213.162Z" fill="#9DECE6"></path><path d="M95.8157 225.548C107.719 225.548 117.368 220.002 117.368 213.162C117.368 206.322 107.719 200.777 95.8157 200.777C83.9126 200.777 74.2632 206.322 74.2632 213.162C74.2632 220.002 83.9126 225.548 95.8157 225.548Z" fill="#D0FFFB"></path><path d="M111.218 213.546C110.999 215.618 109.506 217.69 106.727 219.285C100.702 222.745 90.9299 222.745 84.9043 219.285C82.1257 217.684 80.6323 215.633 80.419 213.546C80.1588 211.101 81.6574 208.609 84.9043 206.744C90.9299 203.279 100.702 203.279 106.727 206.744C109.974 208.609 111.473 211.101 111.218 213.546Z" fill="#CC8B09"></path><path d="M111.218 213.546C110.999 215.618 109.506 217.689 106.727 219.285C100.702 222.745 90.9298 222.745 84.9043 219.285C82.1257 217.684 80.6323 215.633 80.4189 213.546C80.6323 211.474 82.1257 209.402 84.9043 207.806C90.9298 204.341 100.702 204.341 106.727 207.806C109.506 209.402 110.999 211.458 111.218 213.546Z" fill="#E8A30A"></path><path d="M95.5922 210.645C95.4023 210.642 95.2125 210.656 95.0251 210.686C94.7701 210.723 94.5047 210.774 94.1717 210.842C93.8387 210.909 93.5317 210.992 93.1883 211.09C92.8585 211.189 92.5368 211.312 92.2256 211.458L94.7025 212.898L95.1448 212.743C95.7744 212.53 96.3728 212.354 96.9295 212.225C97.4539 212.085 97.9906 211.997 98.5322 211.961C99.027 211.93 99.5236 211.963 100.01 212.059C100.506 212.166 100.983 212.351 101.42 212.608C101.85 212.823 102.217 213.144 102.487 213.541C102.576 213.682 102.636 213.841 102.663 214.006C102.69 214.172 102.683 214.341 102.643 214.504C102.541 214.868 102.342 215.198 102.065 215.457C101.727 215.786 101.352 216.075 100.947 216.317L102.508 217.224L101.649 217.716L100.088 216.804C99.329 217.174 98.5362 217.47 97.7204 217.69C96.8688 217.926 95.9984 218.089 95.1187 218.177L94.2914 216.695C94.5229 216.688 94.7539 216.669 94.9834 216.638C95.3333 216.599 95.6808 216.54 96.0241 216.462C96.404 216.379 96.8098 216.281 97.2313 216.156C97.6463 216.037 98.0516 215.886 98.4437 215.706L95.9773 214.292L95.6547 214.4L95.3217 214.504C94.7025 214.706 94.1301 214.867 93.6149 214.981C93.1381 215.09 92.6521 215.156 92.1632 215.177C91.7315 215.192 91.2996 215.152 90.8779 215.058C90.4603 214.958 90.0603 214.796 89.6916 214.577C89.2806 214.368 88.9242 214.066 88.6509 213.696C88.4482 213.423 88.3488 213.087 88.3699 212.748C88.4083 212.396 88.5494 212.063 88.7758 211.79C89.0605 211.437 89.3994 211.131 89.78 210.883L88.3179 210.044L89.1816 209.526L90.6282 210.36C91.3047 210.023 92.0167 209.763 92.7512 209.583C93.4502 209.404 94.1615 209.275 94.8794 209.2L95.5922 210.645ZM91.3775 213.235C91.7033 213.422 92.0804 213.502 92.4546 213.463C92.956 213.408 93.4498 213.299 93.9271 213.137L91.6064 211.8C90.7565 212.353 90.6802 212.829 91.3775 213.23V213.235ZM99.5156 213.908C99.1612 213.717 98.7544 213.644 98.3553 213.701C97.8067 213.775 97.2653 213.894 96.737 214.059L99.0421 215.379C100.027 214.782 100.185 214.29 99.5156 213.903V213.908Z" fill="#CC8B09"></path><path d="M94.2603 216.695C94.2603 216.633 94.2603 215.861 94.2603 215.861L95.2021 216.467L94.791 217.099L94.2603 216.695Z" fill="#CC8B09"></path><path d="M102.507 217.223V216.389L100.457 216.545L101.638 217.343L102.507 217.223Z" fill="#CC8B09"></path><path d="M102.684 214.167V213.328L101.149 213.877L102.684 214.167Z" fill="#CC8B09"></path><path d="M96.3257 214.12L96.846 213.639L98.6464 214.877L98.5371 215.239C98.5371 215.239 97.1894 214.675 97.1478 214.644C97.1062 214.613 96.3257 214.12 96.3257 214.12Z" fill="#CC8B09"></path><path d="M91.6167 211.499L94.0051 212.851L94.4942 212.499C94.4942 212.499 94.1924 212.152 94.1716 212.121C93.9562 211.878 93.7054 211.668 93.4275 211.499C93.2506 211.468 92.1162 210.981 92.1162 210.981L91.6167 211.499Z" fill="#CC8B09"></path><path d="M95.5923 210.645V209.811L94.4944 209.458L94.2603 210.106L94.3175 210.406L95.5923 210.645Z" fill="#CC8B09"></path><path d="M88.2969 210.044V209.21L89.5717 209.345L89.1606 210.153L88.2969 210.044Z" fill="#CC8B09"></path><path d="M88.3438 212.867V211.997H89.8059L89.4469 212.774L88.8173 213.468L88.3438 212.867Z" fill="#CC8B09"></path><path d="M95.5923 209.79C95.4022 209.79 95.2125 209.805 95.0251 209.837C94.7701 209.873 94.5047 209.919 94.1717 209.987C93.8387 210.054 93.5317 210.137 93.1883 210.241C92.8587 210.337 92.5369 210.458 92.2256 210.603L94.7025 212.028L95.1448 211.872C95.7744 211.665 96.3728 211.489 96.9295 211.354C97.4539 211.215 97.9906 211.126 98.5322 211.09C99.027 211.057 99.524 211.09 100.01 211.189C100.505 211.285 100.981 211.46 101.42 211.707C101.849 211.925 102.216 212.247 102.487 212.644C102.577 212.786 102.637 212.944 102.664 213.11C102.691 213.276 102.683 213.445 102.643 213.608C102.54 213.97 102.341 214.298 102.065 214.556C101.733 214.911 101.357 215.225 100.947 215.488L102.508 216.394L101.649 216.887L100.088 215.975C99.3292 216.346 98.5364 216.645 97.7204 216.866C96.8681 217.098 95.9979 217.259 95.1187 217.348L94.2914 215.866C94.5229 215.861 94.7539 215.844 94.9834 215.814C95.2956 215.778 95.6391 215.721 96.0241 215.638C96.4092 215.555 96.8098 215.452 97.2313 215.327C97.6463 215.208 98.0516 215.057 98.4437 214.877L95.9773 213.463L95.6547 213.577L95.3217 213.675C94.7025 213.882 94.1301 214.038 93.615 214.157C93.138 214.265 92.652 214.329 92.1632 214.348C91.7314 214.365 91.2992 214.325 90.878 214.229C90.4613 214.129 90.0616 213.968 89.6916 213.753C89.2817 213.542 88.9258 213.241 88.6509 212.872C88.4491 212.596 88.3497 212.259 88.3699 211.919C88.4083 211.567 88.5494 211.234 88.7758 210.961C89.0605 210.608 89.3994 210.302 89.78 210.054L88.3179 209.215L89.1816 208.723L90.6282 209.552C91.3056 209.217 92.0174 208.957 92.7512 208.775C93.4508 208.598 94.1619 208.47 94.8794 208.391L95.5923 209.79ZM91.3775 212.38C91.7037 212.567 92.08 212.648 92.4546 212.613C92.9556 212.554 93.4492 212.443 93.9272 212.282L91.6064 210.945C90.7565 211.515 90.6802 211.993 91.3775 212.38ZM99.5156 213.053C99.1615 212.861 98.7538 212.79 98.3553 212.851C97.8063 212.92 97.2647 213.038 96.737 213.204L99.0421 214.53C100.026 213.934 100.182 213.457 99.5156 213.069V213.053Z" fill="#F9CA06"></path><path d="M94.494 224.496C106.397 224.496 116.047 218.951 116.047 212.111C116.047 205.27 106.397 199.725 94.494 199.725C82.5908 199.725 72.9414 205.27 72.9414 212.111C72.9414 218.951 82.5908 224.496 94.494 224.496Z" fill="#9DECE6"></path><path d="M72.9468 212.297V206.651L77.2084 210.427L72.9468 212.297Z" fill="#9DECE6"></path><path d="M116.047 206.801V212.111L113.867 214.41L112.8 208.334L116.047 206.801Z" fill="#9DECE6"></path><path d="M94.494 219.187C106.397 219.187 116.047 213.641 116.047 206.801C116.047 199.961 106.397 194.416 94.494 194.416C82.5908 194.416 72.9414 199.961 72.9414 206.801C72.9414 213.641 82.5908 219.187 94.494 219.187Z" fill="#D0FFFB"></path><path d="M24.7523 257.404C36.6554 257.404 46.3048 251.859 46.3048 245.019C46.3048 238.179 36.6554 232.634 24.7523 232.634C12.8491 232.634 3.19971 238.179 3.19971 245.019C3.19971 251.859 12.8491 257.404 24.7523 257.404Z" fill="#9DECE6"></path><path d="M3.20508 245.206V239.565L7.46667 243.341L3.20508 245.206Z" fill="#9DECE6"></path><path d="M46.3052 239.709V245.019L44.1302 247.319L43.0635 241.243L46.3052 239.709Z" fill="#9DECE6"></path><path d="M24.7523 252.095C36.6554 252.095 46.3048 246.55 46.3048 239.71C46.3048 232.869 36.6554 227.324 24.7523 227.324C12.8491 227.324 3.19971 232.869 3.19971 239.71C3.19971 246.55 12.8491 252.095 24.7523 252.095Z" fill="#D0FFFB"></path></g><defs><linearGradient id="paint0_linear" x1="87.9054" y1="47.0134" x2="242.122" y2="225.313" gradientUnits="userSpaceOnUse"><stop stop-color="#3874A4"></stop><stop offset="1" stop-color="#64DAEC"></stop></linearGradient><linearGradient id="paint1_linear" x1="91.7647" y1="2.45936e-06" x2="258.33" y2="207.396" gradientUnits="userSpaceOnUse"><stop stop-color="#255C8C"></stop><stop offset="1" stop-color="#3498B5"></stop></linearGradient><clipPath id="clip0"><rect width="259" height="259" fill="white"></rect></clipPath></defs></svg>