<svg xmlns="http://www.w3.org/2000/svg" width="200" height="42" viewBox="0 0 200 42" fill="none"><path d="M45.922 15.5601C43.5515 15.5601 41.0595 17.3227 41.0595 17.3227V16.1679C41.0595 15.9247 40.9379 15.8032 40.6948 15.8032H37.6557C37.4126 15.8032 37.291 15.9855 37.291 16.1679V39.9942C37.291 40.2374 37.4126 40.3589 37.6557 40.3589H40.7556C40.9379 40.3589 41.1202 40.1766 41.1202 39.9942V19.6932C41.1202 19.6932 42.5182 18.7815 44.3417 18.7815C46.0436 18.7815 47.32 19.6324 47.32 21.2735C47.32 22.4284 47.32 40.055 47.32 40.055C47.32 40.2981 47.5023 40.4197 47.6847 40.4197H50.7237C50.9669 40.4197 51.0884 40.2374 51.0884 40.055V20.1795C50.9669 17.2012 49.0826 15.5601 45.922 15.5601Z" fill="white"></path><path d="M69.6266 3.64685H66.5875C66.3444 3.64685 66.2228 3.82919 66.2228 4.01154V16.0463C65.068 15.56 63.9739 15.3777 63.123 15.3777C58.1997 15.3777 54.7959 20.1186 54.7959 29.1751C54.7959 36.9551 58.0781 41.1491 62.3936 41.1491C64.217 41.1491 65.6758 40.1158 66.8306 39.1433L67.4992 40.2373C67.6208 40.4197 67.6816 40.4805 67.9247 40.4805H69.6874C69.8697 40.4805 70.0521 40.2981 70.0521 40.1158V3.95076C69.9913 3.70763 69.8697 3.64685 69.6266 3.64685ZM58.8075 28.3242C58.8075 23.3401 60.2662 18.356 63.2445 18.356C64.217 18.356 65.2503 18.6599 66.162 19.45V37.0767C65.4327 37.5022 64.4602 37.8669 63.4269 37.8669C60.2055 37.8669 58.8075 33.9768 58.8075 28.3242Z" fill="white"></path><path d="M81.2361 15.3777C76.1305 15.3777 73.6992 22.0029 73.6992 29.2359C73.6992 36.7728 77.2853 41.0275 81.844 41.0275C83.8497 41.0275 85.9163 40.2373 87.1927 39.508C87.3751 39.3864 87.4358 39.2648 87.3751 39.0217L87.0104 37.4414C86.9496 37.259 86.828 37.1375 86.6457 37.1375C86.5241 37.1375 84.883 37.6237 83.2419 37.6237C79.4735 37.6237 77.7716 34.2807 77.7716 29.8437C77.7716 29.2359 77.7716 28.7496 77.7716 28.7496C77.7716 28.7496 79.6558 28.9928 80.7499 28.9928H87.8613V26.9262C87.8613 19.3893 85.1262 15.3777 81.2361 15.3777ZM80.993 25.9537C79.8989 25.9537 77.8324 26.1968 77.8324 26.1968C77.8324 26.1968 77.8931 25.4066 77.9539 24.6165C78.3794 20.4833 79.3519 18.356 81.1146 18.356C82.5733 18.356 83.6066 20.4833 83.8497 24.2518C83.9105 25.042 83.9105 25.9537 83.9105 25.9537H80.993Z" fill="white"></path><path d="M31.4558 18.4775C30.3617 16.2894 28.2951 15.2561 26.0462 15.2561C24.5875 15.2561 22.2778 15.8639 20.7582 16.5325C20.4543 16.7149 20.272 16.7756 20.272 17.0188C20.272 17.2011 20.3327 17.3227 20.4543 17.4442L21.4876 19.6324C21.6092 19.8755 21.7307 19.9363 21.9131 19.9363C22.0954 19.9363 22.1562 19.8755 22.3385 19.7539C23.8581 18.7814 24.8914 18.2952 25.8031 18.2952C26.9579 18.2952 27.7481 19.0853 28.2343 20.1794C28.7206 21.2127 28.8422 22.7322 28.8422 24.4341C28.8422 24.6165 28.8422 24.9811 28.8422 24.9811C27.8697 24.3733 26.2893 24.0694 25.4384 24.0694C21.0013 24.0694 18.6309 28.2634 18.6309 32.7612C18.6309 37.6237 21.4268 41.0883 24.709 41.0883C26.5325 41.0883 28.2343 39.9942 29.3892 38.5962C29.3892 38.5962 29.997 39.9942 30.0578 40.1765C30.1186 40.3589 30.2401 40.3589 30.4225 40.3589H32.1851C32.3675 40.3589 32.5498 40.1765 32.5498 39.9942V26.1968C32.5498 22.793 32.3675 20.2402 31.4558 18.4775ZM28.7814 36.6512C27.8697 37.5021 26.8971 37.9276 25.9246 37.9276C24.9521 37.9276 24.2228 37.5021 23.6757 36.6512C23.0071 35.6787 22.6424 34.1592 22.6424 32.5181C22.6424 29.9045 23.6149 27.1693 25.6815 27.1693C26.654 27.1693 27.8089 27.4732 28.7814 28.2634V36.6512Z" fill="white"></path><path d="M103.907 15.864C103.482 15.864 101.476 15.864 101.172 15.864C100.868 15.864 100.686 16.0464 100.625 16.2287C100.443 16.715 99.2879 19.6933 98.8624 20.9697C98.5585 21.8814 97.586 24.4342 97.586 24.4342H97.4644C97.4644 24.4342 96.7958 22.6108 96.4919 21.6383C96.188 20.9089 94.7293 16.8973 94.4861 16.411C94.3646 16.1679 94.3038 15.864 93.8783 15.864C93.3313 15.864 91.2647 15.864 90.9 15.864C90.5961 15.864 90.353 16.2287 90.4746 16.4718C90.5961 16.715 95.3371 27.5341 95.3371 27.5341C95.3371 27.5341 90.2314 39.6296 90.1099 39.8727C89.9275 40.1158 90.1706 40.5413 90.5353 40.5413C90.9 40.5413 92.6627 40.5413 93.1489 40.5413C93.5744 40.5413 93.7567 40.359 93.8783 39.9335C94.243 38.9002 94.8508 37.4415 95.641 35.1318C96.188 33.673 96.9782 31.0594 96.9782 31.0594H97.0997C97.0997 31.0594 98.0115 33.7338 98.3762 34.5847C99.2271 36.7729 100.321 39.6904 100.443 39.9943C100.564 40.2982 100.686 40.5413 101.051 40.5413C101.415 40.5413 103.725 40.5413 103.968 40.5413C104.272 40.5413 104.394 40.2374 104.272 39.9335C103.968 39.2649 101.111 32.3966 99.1663 27.9595C99.1663 27.9595 104.211 16.8365 104.333 16.5326C104.333 16.1679 104.333 15.864 103.907 15.864Z" fill="white"></path><path d="M21.6094 0H18.2056C17.9017 0 17.7194 0.182344 17.6586 0.364688C17.5978 0.547033 12.4922 16.1071 12.1275 17.3835C11.8844 18.2952 11.0334 21.5167 10.7903 22.3068L9.02764 17.4443C8.66295 16.1679 4.5298 4.6194 4.40824 4.19392C4.34746 3.9508 4.2259 3.58611 3.80042 3.58611H0.45744C0.153532 3.58611 -0.0895944 3.9508 0.0319687 4.19392C0.153532 4.37627 6.1709 20.4226 8.60216 26.5615V40.055C8.60216 40.2982 8.72373 40.4197 8.96686 40.4197H12.1275C12.3098 40.4197 12.4922 40.2374 12.4922 40.055V27.2909V26.6831C14.5588 21.0304 21.9741 0.790159 22.0349 0.547032C22.0957 0.303906 22.0349 0 21.6094 0Z" fill="white"></path><path d="M115.456 4.92334H122.142C129.253 4.92334 132.657 10.7584 132.657 22.1853C132.657 34.6455 129.679 41.5746 121.595 41.5746H115.456V4.92334ZM118.191 38.8394H121.473C127.855 38.8394 129.861 33.0044 129.861 22.3676C129.861 12.1563 127.369 7.65851 121.534 7.65851H118.191V38.8394Z" fill="white"></path><path d="M136.729 14.466H139.404V41.5746H136.729V14.466ZM136.729 3.22144H139.404V8.63099H136.729V3.22144Z" fill="white"></path><path d="M144.388 23.7048C144.388 19.4501 144.388 16.411 144.327 14.466H146.88C146.941 15.2562 147.002 16.5934 147.002 19.4501C148.035 16.1071 150.405 14.1013 153.323 14.1013V17.3835C149.129 17.6266 147.002 21.152 147.002 26.0753V41.5746H144.388V23.7048Z" fill="white"></path><path d="M156.969 28.385C156.969 34.4023 157.942 39.3256 162.014 39.3256C166.147 39.3256 166.634 34.767 166.816 33.9769H169.49C169.43 34.6455 168.7 42 162.014 42C155.267 42 154.295 34.7062 154.295 28.0203C154.295 19.4501 156.787 13.9797 162.197 13.9797C168.214 13.9797 169.612 19.8148 169.612 26.5007C169.612 26.8654 169.612 27.5948 169.551 28.385H156.969ZM166.937 25.8929C166.937 20.4834 165.843 16.7149 162.136 16.7149C157.334 16.7149 157.091 24.0695 157.03 25.8929H166.937Z" fill="white"></path><path d="M187.421 33.6122C187.299 34.767 186.752 42 180.127 42C174.11 42 172.469 35.7395 172.469 27.8987C172.469 20.1187 174.657 13.9189 180.492 13.9189C187.056 13.9189 187.421 21.0304 187.421 22.1852H184.686C184.625 21.0912 184.26 16.5933 180.492 16.5933C176.663 16.5933 175.265 21.3343 175.265 27.8379C175.265 34.9494 176.784 39.2648 180.31 39.2648C184.078 39.2648 184.564 34.9494 184.747 33.5514H187.421V33.6122Z" fill="white"></path><path d="M188.698 14.466H192.163V7.05066H194.776V14.466H199.092V17.1404H194.776V36.0435C194.776 37.9885 195.202 39.2649 197.025 39.2649C197.572 39.2649 198.423 39.2041 198.849 39.0825V41.5138C198.119 41.8177 197.025 41.9393 196.235 41.9393C193.804 41.9393 192.163 40.7844 192.163 36.7121V17.1404H188.698V14.466Z" fill="white"></path></svg>